<?xml version="1.0" encoding="utf-8"?>
<!-- Generator: Adobe Illustrator 18.0.0, SVG Export Plug-In . SVG Version: 6.00 Build 0)  -->
<!DOCTYPE svg PUBLIC "-//W3C//DTD SVG 1.1//EN" "http://www.w3.org/Graphics/SVG/1.1/DTD/svg11.dtd">
<svg version="1.1" id="Capa_1" xmlns="http://www.w3.org/2000/svg" xmlns:xlink="http://www.w3.org/1999/xlink" x="0px" y="0px"
	 viewBox="0 0 126.216 200.168" enable-background="new 0 0 126.216 200.168" xml:space="preserve">
<polygon fill="#EE4656" points="79.469,197.254 125.704,200.168 126.216,193.833 123.419,190.999 124.398,185.297 119.652,184.827 
	116.808,182.927 114.908,170.561 113.34,170.086 109.935,171.308 109.85,166.756 108.261,164.856 106.592,165.328 106.747,167.231 
	104.884,166.756 103.948,164.856 104.434,159.143 102.063,156.291 101.589,153.437 99.867,149.989 89.698,140.115 85.893,133.933 
	83.99,132.982 82.562,133.933 80.184,132.029 79.709,127.748 75.902,124.42 72.572,116.808 74.953,106.817 73.049,100.635 
	73.524,90.646 69.719,87.789 70.671,85.412 68.766,81.607 71.146,68.288 73.524,64.481 72.379,59.944 70.95,59.467 67.338,54.015 
	66.063,49.99 67.698,49.227 68.788,47.155 69.007,44.975 67.264,41.593 71.077,33.454 75.44,32.583 85.473,18.362 72.281,11.081 
	74.658,5.255 74.658,0 0.316,0.259 0,3.591 1.21,7.398 1.69,12.155 0.739,13.581 0.656,14.524 1.607,15.949 1.217,18.338 
	3.12,17.862 5.025,21.193 4.55,22.145 3.597,21.669 5.501,31.659 6.926,34.512 9.781,36.892 10.733,44.978 12.637,45.93 
	13.589,48.782 17.869,52.114 16.44,55.443 13.437,54.966 15.658,58.298 15.658,60.923 14.534,62.103 16.438,65.433 19.773,67.335 
	24.053,75.899 24.529,80.18 23.099,84.46 25.478,84.938 31.187,91.121 30.212,104.198 31.187,103.964 32.615,104.439 33.31,103.903 
	33.567,104.439 32.615,105.867 35.947,107.294 37.371,112.526 35.947,122.516 38.322,123.465 38.799,129.652 42.605,132.505 
	43.557,134.883 45.458,135.359 52.592,141.068 53.544,143.445 61.156,145.825 67.816,155.338 69.719,156.291 72.098,162.95 
	75.427,163.902 80.495,172.465 83.658,173.891 83.658,176.551 86.174,179.6 81.988,188.164 83.94,191.017 82.801,196.725 
	81.658,197.199 81.658,195.822 "/>
</svg>
