<?xml version="1.0" encoding="utf-8"?>
<!-- Generator: Adobe Illustrator 18.0.0, SVG Export Plug-In . SVG Version: 6.00 Build 0)  -->
<!DOCTYPE svg PUBLIC "-//W3C//DTD SVG 1.1//EN" "http://www.w3.org/Graphics/SVG/1.1/DTD/svg11.dtd">
<svg version="1.1" id="Capa_1" xmlns="http://www.w3.org/2000/svg" xmlns:xlink="http://www.w3.org/1999/xlink" x="0px" y="0px"
	 viewBox="0 0 172.216 193.961" enable-background="new 0 0 172.216 193.961" xml:space="preserve">
<polygon fill="#EE4656" points="22.94,4.511 24.569,1.682 26.775,0 45.952,1.425 72.865,2.846 74.639,3.886 73.283,9.795 
	78.519,17.407 80.898,17.88 85.658,21.212 86.612,28.346 89.539,32.151 88.661,32.626 88.661,33.862 97.147,37.862 94.257,41.192 
	99.471,46.423 99.939,45.472 108.971,52.132 108.493,57.84 112.297,60.219 111.076,63.548 113.661,66.401 113.661,69.918 
	115.291,74.966 113.793,80.198 114.711,84.48 115.645,84.957 115.161,86.857 117.533,89.236 118.958,94.468 123.715,96.373 
	123.24,100.177 125.617,104.46 126.568,109.214 127.996,112.547 131.324,115.402 133.229,119.204 133.703,123.489 130.849,131.1 
	132.276,138.708 134.18,142.038 137.509,144.413 140.706,144.895 142.265,148.223 145.596,145.841 144.645,140.609 147.5,140.136 
	149.878,143.941 154.159,147.271 155.585,151.554 156.536,152.506 159.867,151.554 160.817,152.98 159.387,156.311 163.661,161.072 
	163.661,165.654 170.293,169.155 172.216,174.86 171.274,181.523 168.425,185.331 164.145,187.229 161.765,190.359 156.536,193.961 
	151.927,193.961 149.4,189.779 147.023,176.852 142.742,168.244 132.276,161.561 119.907,147.283 107.066,138.714 102.307,133.479 
	100.882,129.197 99.93,128.719 98.979,130.142 96.122,129.127 97.075,130.961 95.355,130.961 95.171,126.399 90.705,118.385 
	90.477,121.992 87.56,121.589 86.185,117.304 87.661,114.447 87.661,112.191 86.57,112.144 86.708,106.839 89.036,103.507 
	89.769,90.456 88.926,88.518 88.515,85.431 84.709,75.44 83.281,73.062 81.853,73.538 81.375,67.354 79.001,65.928 78.307,66.881 
	76.661,65.452 76.661,64.324 72.152,64.024 68.678,60.694 69.083,59.743 59.33,51.877 58.563,50.703 54.748,48.805 54.267,47.855 
	50.031,45.007 48.556,44.101 45.223,47.961 43.137,47.961 39.516,44.377 35.71,37.961 30.703,37.961 25.72,30.911 23.817,29.866 
	22.39,30.774 18.11,28.846 17.635,26.934 16.206,26.45 15.254,19.791 9.072,15.505 6.867,12.173 4.661,10.743 4.661,9.618 
	3.563,9.796 2.274,7.892 0.439,7.417 0,3.097 1.46,4.961 6.459,4.961 13.354,7.961 16.405,7.961 22.39,4.502 "/>
</svg>
