<?xml version="1.0" encoding="utf-8"?>
<!-- Generator: Adobe Illustrator 18.0.0, SVG Export Plug-In . SVG Version: 6.00 Build 0)  -->
<!DOCTYPE svg PUBLIC "-//W3C//DTD SVG 1.1//EN" "http://www.w3.org/Graphics/SVG/1.1/DTD/svg11.dtd">
<svg version="1.1" id="Capa_1" xmlns="http://www.w3.org/2000/svg" xmlns:xlink="http://www.w3.org/1999/xlink" x="0px" y="0px"
	 viewBox="0 0 108.36 113.46" enable-background="new 0 0 108.36 113.46" xml:space="preserve">
<polygon fill="#EE4656" points="1.518,89.454 1.954,92.217 3.263,93.53 5.159,92.512 10.17,92.293 11.333,103.339 12.494,103.777 
	13.222,105.67 15.91,106.029 17.37,107.776 18.674,108.356 18.964,109.518 21.437,110.824 23.019,105.983 23.894,104.093 
	23.458,102.496 24.039,100.022 27.088,99.584 28.981,101.33 30.805,101.206 33.253,101.787 35.383,102.207 36.831,104.237 
	44.974,103.51 45.882,113.46 103.776,106.228 103.776,105.055 103.575,101.254 108.36,100.673 104.553,52.587 71.424,11.7 
	70.553,13.008 69.574,13.663 68.164,13.446 65.978,12.789 64.776,12.356 64.776,11.593 64.556,10.467 63.91,9.882 61.73,9.882 
	59.442,10.137 58.458,0.617 58.02,0 55.907,3.697 55.304,9.669 54.989,11.165 55.776,15.446 55.776,26.867 57.845,30.669 
	55.547,34.479 50.828,39.235 49.42,55.41 41.825,63.023 36.116,67.779 27.559,72.06 25.185,75.375 28.038,74.882 28.515,74.882 
	33.74,77.277 32.795,81.564 32.194,82.485 26.776,85.853 26.776,86.803 26.776,86.803 27.166,88.713 22.995,91.733 22.499,91.25 
	20.111,90.775 20.577,90.306 19.627,88.874 20.102,88.402 21.052,87.449 15.817,83.644 0,86.983 "/>
</svg>
