<?xml version="1.0" encoding="utf-8"?>
<!-- Generator: Adobe Illustrator 18.0.0, SVG Export Plug-In . SVG Version: 6.00 Build 0)  -->
<!DOCTYPE svg PUBLIC "-//W3C//DTD SVG 1.1//EN" "http://www.w3.org/Graphics/SVG/1.1/DTD/svg11.dtd">
<svg version="1.1" id="Capa_1" xmlns="http://www.w3.org/2000/svg" xmlns:xlink="http://www.w3.org/1999/xlink" x="0px" y="0px"
	 viewBox="0 0 63.103 68.616" enable-background="new 0 0 63.103 68.616" xml:space="preserve">
<polygon fill="#EE4656" points="63.103,23.843 63.103,18.604 61.359,17.152 58.738,15.692 55.829,15.692 54.374,16.863 52.342,16.277 
	50.888,18.312 48.851,15.989 50.01,14.243 50.01,12.5 52.342,10.174 51.18,8.717 48.562,10.174 45.655,9.3 42.456,11.046 
	40.131,11.919 40.421,14.535 40.131,16.566 37.803,16.566 36.93,18.604 35.188,18.604 35.478,15.692 34.021,15.404 32.279,11.046 
	33.73,9.3 31.99,5.52 28.786,5.815 24.43,4.354 21.519,2.031 19.488,0 17.741,1.735 18.318,4.648 15.999,5.228 11.926,9.877 
	11.342,12.5 11.342,15.989 9.598,18.312 8.148,22.384 6.688,26.748 7.854,31.98 4.658,34.015 5.234,37.797 2.621,42.448 
	3.78,45.644 2.621,47.97 0,52.916 1.166,58.437 1.458,63.672 4.072,66.871 7.565,68.616 10.179,65.418 12.211,64.839 14.251,60.477 
	18.612,59.605 22.974,59.309 25.304,56.116 27.335,55.241 29.657,56.986 32.279,57.563 34.312,55.532 34.021,53.497 35.478,50.007 
	38.386,48.843 38.386,46.812 40.421,43.906 39.546,41.576 38.68,39.246 36.639,36.051 37.511,33.436 41.291,31.395 41.872,28.785 
	42.743,28.199 43.909,25.873 45.361,26.161 45.076,28.489 50.597,33.724 50.01,36.629 50.888,38.957 50.01,40.12 51.18,41.576 
	50.309,44.195 54.089,46.519 53.503,49.14 55.829,48.843 58.738,48.263 59.902,47.097 61.646,46.812 62.805,44.774 61.646,39.537 
	61.062,34.887 61.359,31.111 61.359,28.785 59.029,26.748 59.318,25.291 61.646,25.291 "/>
</svg>
