<?xml version="1.0" encoding="utf-8"?>
<!-- Generator: Adobe Illustrator 18.0.0, SVG Export Plug-In . SVG Version: 6.00 Build 0)  -->
<!DOCTYPE svg PUBLIC "-//W3C//DTD SVG 1.1//EN" "http://www.w3.org/Graphics/SVG/1.1/DTD/svg11.dtd">
<svg version="1.1" id="Capa_1" xmlns="http://www.w3.org/2000/svg" xmlns:xlink="http://www.w3.org/1999/xlink" x="0px" y="0px"
	 viewBox="0 0 184.923 237.9" enable-background="new 0 0 184.923 237.9" xml:space="preserve">
<polygon fill="#EE4656" points="15.247,14.998 29.062,14.996 29.062,0.22 66.401,0 76.458,5.334 82.821,5.668 84.444,6.333 86.062,10 
	86.062,13.275 90.007,16.661 100.749,23.988 114.955,44.643 120.721,45.976 130.104,54.97 132.791,59.634 138.801,87.944 
	148.47,94.941 155.804,100.606 161.469,103.337 168.47,108.072 169.173,108.072 170.138,109.707 184.13,116.316 184.923,118.303 
	163.119,159.223 172.712,201.491 161.809,198.42 153.96,199.281 146.106,211.487 143.493,211.922 140.003,210.616 137.819,207.121 
	132.587,206.251 128.661,208.433 126.917,207.995 125.608,205.814 120.809,208.866 113.397,206.686 109.474,201.016 104.242,200.58 
	95.953,194.966 94.206,198.072 91.465,198.072 90.764,202.438 89.062,204.069 89.062,209.097 80.448,209.739 79.478,212.358 
	83.355,218.871 80.251,224.072 77.789,224.072 77.632,234.223 71.619,237.9 59.062,236.345 59.062,230.855 57.376,227.621 
	54.42,226.749 53.162,222.824 50.569,219.335 39.676,218.464 37.066,201.016 33.143,196.655 33.58,190.984 27.91,187.495 
	26.168,184.88 21.807,184.006 19.189,186.623 18.317,184.88 15.699,185.316 13.084,177.466 15.262,174.411 13.955,170.051 
	14.389,166.124 10.901,163.943 10.468,160.455 6.105,155.659 0,141.699 2.614,138.648 7.849,138.211 14.827,140.828 17.444,138.211 
	15.699,128.18 17.879,121.2 14.827,98.958 18.316,98.086 19.626,94.162 20.934,78.023 18.751,58.396 17.007,55.341 14.389,34.843 
	12.21,33.534 13.537,29.611 "/>
</svg>
