<?xml version="1.0" encoding="utf-8"?>
<!-- Generator: Adobe Illustrator 18.0.0, SVG Export Plug-In . SVG Version: 6.00 Build 0)  -->
<!DOCTYPE svg PUBLIC "-//W3C//DTD SVG 1.1//EN" "http://www.w3.org/Graphics/SVG/1.1/DTD/svg11.dtd">
<svg version="1.1" id="Capa_1" xmlns="http://www.w3.org/2000/svg" xmlns:xlink="http://www.w3.org/1999/xlink" x="0px" y="0px"
	 viewBox="0 0 127.402 199.114" enable-background="new 0 0 127.402 199.114" xml:space="preserve">
<polygon fill="#EE4656" points="29.67,25.336 34.333,10.005 38.002,7.332 41.998,6.663 48.328,3.333 58.654,2.001 63.654,0 69.315,2 
	78.31,4.001 81.98,8.661 82.312,11.326 86.307,14.991 94.306,18.988 96.635,21.986 98.299,25.317 101.966,29.98 105.633,37.975 
	107.297,44.638 110.294,50.301 115.292,56.63 117.959,61.628 123.889,68.622 127.402,79.198 127.402,81.189 121.872,80.769 
	116.476,83.678 113.046,93.566 106.679,97.052 102.04,102.288 101.466,107.232 103.802,107.522 106.131,105.485 108.161,107.232 
	111.071,107.522 109.908,113.918 107.876,118.863 108.74,120.025 105.836,122.641 102.825,119.318 89.261,131.075 94.496,139.211 
	98.569,140.088 98.175,146.191 100.402,147.358 100.402,150.194 99.897,152.592 101.264,155.207 105.295,160.441 108.615,161.894 
	109.845,163.348 108.42,164.805 113.093,167.421 113.389,169.165 119.209,169.453 122.12,171.488 121.247,174.105 116.89,175.559 
	111.07,172.942 106.083,173.798 101.767,176.432 100.607,182.249 104.676,184.572 101.962,187.482 103.806,191.844 103.747,195.583 
	102.618,199.114 101.012,197.232 99.07,197.658 97.078,198.824 91.493,194.75 90.424,191.554 88.387,189.809 83.739,189.517 
	80.832,191.844 76.178,190.679 77.05,188.357 75.598,186.9 73.272,188.062 71.237,186.612 68.911,181.377 54.953,176.143 
	43.614,178.76 36.631,192.135 34.305,190.968 33.435,189.226 27.039,188.062 22.675,183.123 22.097,179.633 20.932,177.886 
	18.9,177.597 14.54,171.2 15.12,168.291 18.026,166.839 15.7,163.061 16.576,159.569 20.062,155.499 20.353,149.976 19.478,147.938 
	18.9,142.123 21.804,136.307 20.932,132.817 9.593,120.169 0,77.862 21.804,36.866 23.342,33.646 "/>
</svg>
