<?xml version="1.0" encoding="utf-8"?>
<!-- Generator: Adobe Illustrator 18.0.0, SVG Export Plug-In . SVG Version: 6.00 Build 0)  -->
<!DOCTYPE svg PUBLIC "-//W3C//DTD SVG 1.1//EN" "http://www.w3.org/Graphics/SVG/1.1/DTD/svg11.dtd">
<svg version="1.1" id="Capa_1" xmlns="http://www.w3.org/2000/svg" xmlns:xlink="http://www.w3.org/1999/xlink" x="0px" y="0px"
	 viewBox="0 0 154.482 168.265" enable-background="new 0 0 154.482 168.265" xml:space="preserve">
<polygon fill="#EE4656" points="89.969,162.376 85.618,162.376 82.375,159.647 81.787,156.994 80.41,153.309 77.21,151.881 
	70.883,155.965 66.239,153.646 67.832,151.288 72.485,148.677 71.325,145.762 70.742,142.861 62.596,138.785 55.331,138.499 
	54.895,135.007 50.914,135.441 47.805,133.262 47.805,130.642 45.24,127.594 44.397,120.613 40.487,117.997 39.186,112.331 
	37.882,110.583 38.317,106.659 39.632,103.607 37.446,100.118 34.395,93.137 27.416,89.209 24.802,92.266 20.002,93.577 
	16.077,89.209 17.385,85.723 13.459,78.744 10.406,73.511 5.608,71.769 2.123,64.787 0,55.628 1.805,48.651 1.805,42.109 
	14.076,43.417 19.805,39.493 19.805,28.376 22.184,28.376 25.239,23.904 21.312,17.959 22.134,15.422 30.805,14.629 30.805,9.833 
	32.601,7.414 33.526,2.376 36.14,2.376 37.886,0 46.175,6.223 51.407,6.719 55.331,12.42 62.742,14.614 67.542,11.57 68.85,13.755 
	70.594,14.194 74.52,12.013 79.752,12.884 81.937,16.377 85.426,17.683 88.04,17.246 95.894,5.035 103.742,4.163 114.645,7.216 
	125.984,19.864 126.856,23.353 123.953,29.169 124.53,34.984 125.405,37.023 125.114,42.546 121.628,46.616 120.752,50.107 
	123.079,53.885 120.172,55.337 119.592,58.246 122.498,62.025 123.953,64.643 125.984,64.932 127.149,66.68 127.728,70.17 
	132.091,75.109 138.487,76.273 139.357,78.014 141.684,79.181 148.667,65.807 153.319,74.818 154.482,87.604 152.735,91.376 
	144.675,91.376 141.4,91.866 129.766,90.027 127.728,88.533 121.335,89.959 119.879,93.437 116.971,94.306 117.75,97.506 
	109.805,103.024 109.805,105.622 108.25,107.376 106.753,107.376 105.631,109.521 107.082,111.219 106.795,114.384 109.7,117.284 
	108.25,118.439 105.052,117.64 104.76,120.178 98.362,123.67 97.489,125.412 98.656,127.156 97.489,135.589 94.873,138.785 
	95.112,150.667 91.315,168.265 "/>
</svg>
