<?xml version="1.0" encoding="utf-8"?>
<!-- Generator: Adobe Illustrator 18.0.0, SVG Export Plug-In . SVG Version: 6.00 Build 0)  -->
<!DOCTYPE svg PUBLIC "-//W3C//DTD SVG 1.1//EN" "http://www.w3.org/Graphics/SVG/1.1/DTD/svg11.dtd">
<svg version="1.1" id="Capa_1" xmlns="http://www.w3.org/2000/svg" xmlns:xlink="http://www.w3.org/1999/xlink" x="0px" y="0px"
	 viewBox="0 0 83.307 70.438" enable-background="new 0 0 83.307 70.438" xml:space="preserve">
<polygon fill="#EE4656" points="66.731,60.407 64.11,58.009 61.058,56.918 59.973,55.172 59.317,52.558 56.696,51.681 56.264,49.284 
	54.736,46.884 55.608,44.921 53.862,43.395 52.995,40.993 53.207,36.854 56.48,32.492 58.443,33.797 60.844,33.797 63.242,31.62 
	66.952,34.016 69.564,31.84 69.349,29.874 69.784,27.477 71.747,26.389 72.404,23.114 75.456,23.331 76.758,25.078 79.816,24.206 
	80.689,23.114 83.307,21.803 83.085,19.842 80.25,19.842 80.25,17.012 79.159,15.049 77.63,13.086 74.578,12.429 70.437,10.467 
	69.784,9.597 66.513,8.066 65.422,5.888 59.535,5.234 55.829,6.103 54.954,9.812 53.428,11.34 51.028,11.993 49.066,10.248 
	47.104,10.467 45.359,8.724 42.522,7.63 38.38,2.619 35.325,2.833 32.275,3.273 29.224,1.963 27.697,0 22.679,0 20.062,2.398 
	21.152,4.576 20.062,6.758 18.098,8.286 16.351,10.467 16.792,12.648 18.535,15.485 18.749,17.664 16.351,18.754 13.739,19.188 
	9.812,25.078 5.018,30.968 3.49,34.453 0.439,37.728 1.089,41.869 5.018,43.395 6.106,45.36 4.142,46.234 0,49.284 0.439,52.119 
	3.707,51.681 4.142,52.989 5.886,53.646 6.542,57.355 7.63,59.1 10.032,58.227 11.989,58.448 14.608,58.448 16.135,57.134 
	17.446,55.172 22.023,53.862 22.462,56.48 23.988,61.712 26.385,64.329 27.478,66.729 29,65.858 30.532,65.858 32.927,64.55 
	35.762,63.678 37.73,63.454 39.033,66.074 41.214,69.346 48.41,70.438 53.862,67.386 56.696,67.604 60.407,65.423 64.55,63.454 
	67.82,62.803 "/>
</svg>
