<?xml version="1.0" encoding="utf-8"?>
<!-- Generator: Adobe Illustrator 18.0.0, SVG Export Plug-In . SVG Version: 6.00 Build 0)  -->
<!DOCTYPE svg PUBLIC "-//W3C//DTD SVG 1.1//EN" "http://www.w3.org/Graphics/SVG/1.1/DTD/svg11.dtd">
<svg version="1.1" id="Capa_1" xmlns="http://www.w3.org/2000/svg" xmlns:xlink="http://www.w3.org/1999/xlink" x="0px" y="0px"
	 viewBox="0 0 64.181 63.752" enable-background="new 0 0 64.181 63.752" xml:space="preserve">
<polygon fill="#EE4656" points="64.181,29.663 61.346,27.408 59.315,26.539 56.695,30.899 54.367,31.478 51.753,34.675 48.558,36.125 
	46.521,38.163 45.066,37.295 42.742,32.35 44.771,31.185 45.649,27.989 47.681,26.826 49.788,23.337 47.759,24.21 46.299,24.502 
	46.59,23.046 47.759,22.176 48.335,19.562 50.953,18.392 54.737,21.303 55.314,20.43 54.737,17.521 56.477,14.324 57.354,11.124 
	55.607,8.509 53.862,7.927 52.116,6.178 50.081,7.343 48.918,8.216 46.59,5.308 44.771,3.708 46.299,1.817 46.086,0 44.553,0 
	42.377,0.878 41.289,3.49 42.377,5.891 41.719,6.766 39.541,5.453 35.832,6.327 35.395,7.635 33.869,7.635 32.994,5.891 
	29.725,7.197 26.02,7.197 23.407,8.292 21.004,9.16 18.168,8.292 17.296,9.596 15.775,9.816 16.86,11.993 15.775,13.74 
	15.775,15.486 12.502,20.501 10.974,23.556 12.282,25.956 8.797,27.699 3.995,29.227 1.375,29.882 0.719,34.239 0,39.333 
	2.03,41.364 4.941,43.688 9.298,45.148 12.502,44.853 14.242,48.633 12.791,50.379 14.533,54.737 15.989,55.025 15.7,57.937 
	17.441,57.937 18.315,55.898 20.643,55.898 20.933,53.868 20.643,51.252 22.968,50.379 26.167,48.633 29.074,49.507 31.691,48.05 
	32.854,49.507 30.521,51.833 30.521,53.576 29.362,55.322 31.399,57.645 32.854,55.61 34.886,56.196 36.341,55.025 39.25,55.025 
	41.871,56.485 43.614,57.937 43.614,63.176 47.972,63.752 50.294,63.461 52.916,60.263 55.53,59.972 54.367,57.065 54.658,54.449 
	57.857,49.21 57.857,46.305 58.731,44.273 56.695,41.656 53.782,42.523 53.205,41.364 54.367,38.163 56.982,38.748 59.315,36.125 
	61.346,33.223 63.965,31.769 "/>
</svg>
