<?xml version="1.0" encoding="utf-8"?>
<!-- Generator: Adobe Illustrator 18.0.0, SVG Export Plug-In . SVG Version: 6.00 Build 0)  -->
<!DOCTYPE svg PUBLIC "-//W3C//DTD SVG 1.1//EN" "http://www.w3.org/Graphics/SVG/1.1/DTD/svg11.dtd">
<svg version="1.1" id="Capa_1" xmlns="http://www.w3.org/2000/svg" xmlns:xlink="http://www.w3.org/1999/xlink" x="0px" y="0px"
	 viewBox="0 0 125.612 89.907" enable-background="new 0 0 125.612 89.907" xml:space="preserve">
<polygon fill="#EE4656" points="54.954,89.559 54.372,86.069 54.667,82.58 57.283,79.966 61.645,79.091 65.712,77.347 64.549,73.273 
	64.549,69.499 64.258,67.458 66.873,65.135 70.071,65.426 73.561,64.845 75.012,66.588 77.344,68.33 80.252,68.33 85.487,66.588 
	88.684,68.625 91.882,68.911 95.081,68.625 97.119,71.237 100.317,69.782 102.645,70.657 105.55,72.689 107.291,74.146 
	109.62,72.402 110.197,69.499 107.581,65.714 109.034,62.223 111.364,60.19 113.686,56.702 116.307,51.756 117.466,49.43 
	116.307,46.234 118.92,41.583 118.344,37.801 121.54,35.767 120.373,30.534 121.834,26.17 123.284,22.098 125.028,19.775 
	125.028,16.286 125.612,13.663 124.084,11.122 120.813,11.773 116.67,13.742 112.96,15.923 110.126,15.705 104.673,18.758 
	97.477,17.665 95.296,14.394 93.994,11.773 92.025,11.997 89.19,12.869 86.795,14.178 85.263,14.178 83.741,15.049 82.648,12.648 
	80.252,10.031 78.725,4.8 78.287,2.182 73.71,3.491 72.398,5.453 70.872,6.768 68.252,6.768 66.295,6.546 63.894,7.419 
	62.805,5.675 62.149,1.965 60.405,1.309 59.97,0 56.703,0.438 52.774,1.748 50.156,1.529 47.538,2.616 45.795,2.182 43.177,2.839 
	42.744,4.364 39.908,4.8 38.817,6.328 36.853,6.546 34.89,5.892 26.714,7.964 25.297,9.015 22.679,10.179 21.807,13.96 
	22.387,17.448 24.425,15.993 27.045,16.573 30.242,16.573 31.691,18.612 33.73,18.029 36.925,20.063 33.143,25.879 35.181,28.498 
	36.343,31.692 35.474,34.604 40.417,33.151 42.158,36.347 36.925,43.62 32.273,42.743 30.242,44.78 27.915,46.234 19.772,52.049 
	18.03,52.926 17.739,50.883 15.989,49.43 13.087,52.337 10.76,51.178 6.979,54.667 4.944,54.083 4.36,56.993 2.616,58.737 0,61.35 
	0.888,62.267 1.892,64.22 1.42,65.169 5.7,68.502 9.031,74.688 24.252,79.915 34.243,84.199 42.808,86.099 53.273,89.433 
	54.7,89.907 "/>
</svg>
