<?xml version="1.0" encoding="utf-8"?>
<!-- Generator: Adobe Illustrator 18.0.0, SVG Export Plug-In . SVG Version: 6.00 Build 0)  -->
<!DOCTYPE svg PUBLIC "-//W3C//DTD SVG 1.1//EN" "http://www.w3.org/Graphics/SVG/1.1/DTD/svg11.dtd">
<svg version="1.1" id="Capa_1" xmlns="http://www.w3.org/2000/svg" xmlns:xlink="http://www.w3.org/1999/xlink" x="0px" y="0px"
	 viewBox="0 0 59.8 86.117" enable-background="new 0 0 59.8 86.117" xml:space="preserve">
<polygon fill="#EE4656" points="0.477,17.937 0,18.885 2.855,24.121 2.508,33.799 2.376,37.437 7.609,45.525 9.512,51.712 
	11.281,52.54 17.601,55.514 18.076,57.42 17.43,58.45 15.696,61.223 16.649,65.507 15.696,71.207 12.845,72.64 12.845,81.862 
	17.106,81.355 14.747,84.243 17.605,83.77 18.66,86.117 22.722,81.178 24.18,78.852 21.851,75.601 25.635,75.889 28.538,73.275 
	31.156,72.107 33.483,73.557 35.52,75.306 38.423,75.601 41.915,79.964 44.241,80.832 47.733,84.321 48.31,77.051 51.509,75.02 
	52.379,72.69 52.379,70.365 50.932,68.329 50.932,66.58 57.035,65.71 59.362,63.385 59.8,61.128 51.947,55.315 54.859,44.773 
	51.947,42.161 48.603,38.813 45.842,35.762 47.952,29.985 47.294,28.134 46.426,24.208 42.494,24.208 39.011,21.368 38.423,18.605 
	37.046,14.865 33.846,13.41 30.575,15.699 27.52,17.48 22.875,15.154 24.468,12.793 29.121,10.18 27.961,7.265 27.378,4.362 
	19.232,0.286 11.967,0 9.347,2.902 10.804,4.943 8.481,5.812 7.021,9.594 9.347,11.921 10.511,14.831 10.804,16.862 8.481,19.188 
	6.151,18.025 3.534,17.73 2.699,16.572 2.153,16.899 2.593,18.531 2.153,19.188 0.518,17.773 "/>
</svg>
