<?xml version="1.0" encoding="utf-8"?>
<!-- Generator: Adobe Illustrator 18.0.0, SVG Export Plug-In . SVG Version: 6.00 Build 0)  -->
<!DOCTYPE svg PUBLIC "-//W3C//DTD SVG 1.1//EN" "http://www.w3.org/Graphics/SVG/1.1/DTD/svg11.dtd">
<svg version="1.1" id="Capa_1" xmlns="http://www.w3.org/2000/svg" xmlns:xlink="http://www.w3.org/1999/xlink" x="0px" y="0px"
	 viewBox="0 0 91.66 170.057" enable-background="new 0 0 91.66 170.057" xml:space="preserve">
<polygon fill="#EE4656" points="12.474,120.215 12.43,116.872 12.43,113.141 12.064,108.779 14.975,105.87 11.16,103.546 
	12.445,97.729 17.747,94.533 20.624,94.328 26.952,96.529 32.045,95.403 32.922,92.786 30.015,90.75 24.201,90.462 23.911,88.719 
	19.253,86.102 20.704,84.645 19.527,83.191 16.313,81.738 12.494,76.504 10.972,73.89 11.43,71.491 11.43,68.656 8.43,67.761 
	8.43,64.582 8.613,61.385 5.038,60.509 3.723,57.894 0,52.372 13.702,40.449 16.623,43.938 19.538,41.322 18.677,40.16 
	20.711,35.215 21.876,28.82 18.966,28.529 16.938,26.783 14.608,28.82 12.274,28.529 12.85,23.585 17.497,18.35 23.875,14.863 
	27.327,4.975 32.445,2.066 37.43,2.487 37.43,0 41.682,0.83 47.508,3.826 50.255,16.816 55.627,32.475 60.313,39.136 62.989,44.8 
	66.324,48.131 79.318,51.794 83.985,55.793 86.759,56.432 86.719,84.645 91.66,84.936 89.042,88.719 74.719,100.347 71.889,98.312 
	67.817,100.634 66.074,102.382 67.236,104.123 67.526,105.87 66.366,107.616 67.526,110.232 62.874,109.654 59.388,111.976 
	57.637,112.265 55.315,116.337 53.284,115.761 48.915,119.249 49.499,122.156 52.41,121.284 53.864,126.806 51.827,131.169 
	52.41,134.656 57.931,139.314 58.223,143.091 56.186,145.126 54.735,148.033 45.135,146.869 41.648,155.592 43.678,160.822 
	42.81,161.987 38.744,161.406 36.705,162.569 38.452,165.769 37.578,167.226 30.601,166.895 30.313,170.057 27.514,170.057 
	25.895,167.404 25.074,162.442 25.658,157.712 24.491,155.056 25.074,148.928 20.713,141.063 20.131,127.975 16.51,123.616 "/>
</svg>
