<?xml version="1.0" encoding="utf-8"?>
<!-- Generator: Adobe Illustrator 18.0.0, SVG Export Plug-In . SVG Version: 6.00 Build 0)  -->
<!DOCTYPE svg PUBLIC "-//W3C//DTD SVG 1.1//EN" "http://www.w3.org/Graphics/SVG/1.1/DTD/svg11.dtd">
<svg version="1.1" id="Capa_1" xmlns="http://www.w3.org/2000/svg" xmlns:xlink="http://www.w3.org/1999/xlink" x="0px" y="0px"
	 viewBox="0 0 161.521 109.733" enable-background="new 0 0 161.521 109.733" xml:space="preserve">
<polygon fill="#EE4656" points="161.088,50.373 124.886,51.685 125.104,50.157 125.974,49.067 125.104,46.449 120.962,47.178 
	114.418,41.939 111.363,38.45 111.363,36.053 113.981,35.18 114.197,33.653 110.708,32.562 108.748,34.524 106.352,35.18 
	102.495,40.852 100.315,41.07 99.006,40.414 96.824,42.596 93.123,38.888 90.065,33.653 91.807,31.038 93.336,26.02 90.203,26.912 
	88.455,26.257 83.663,27.127 81.699,26.257 80.904,20.133 79.379,18.392 75.818,15.047 75.598,12.869 72.551,11.117 72.551,9.156 
	71.019,7.634 69.712,4.577 65.567,2.178 62.953,0.436 61.209,0 60.553,1.089 62.953,5.452 59.607,12.572 57.062,16.357 
	55.754,18.099 52.267,18.318 50.084,20.281 48.12,20.5 47.031,19.629 42.456,20.063 36.347,24.642 35.254,28.348 33.513,28.131 
	32.203,22.895 28.931,20.717 30.022,15.481 28.276,14.172 25.884,16.572 23.916,16.786 21.736,23.333 24.786,25.948 24.786,28.348 
	23.046,29.437 20.43,29.437 18.466,27.695 8.871,27.916 8.215,30.963 6.252,29.437 4.072,31.983 3.851,33.584 3.851,36.851 
	3.639,41.652 3.419,46.013 5.597,49.067 7.12,52.987 7.562,55.826 9.961,57.132 11.267,61.28 14.319,63.241 16.065,70.438 
	16.937,71.744 16.284,75.02 12.794,76.981 12.359,78.943 5.82,80.903 4.072,85.263 0,87.884 15.122,90.708 16.551,91.656 
	12.746,91.656 23.215,96.889 23.398,97.206 23.688,97.366 26.54,99.269 48.421,101.172 59.842,106.877 69.354,109.26 
	72.682,109.733 74.109,107.829 83.15,107.356 91.236,102.597 97.491,100.293 109.311,95.935 114.546,90.228 118.351,88.801 
	118.826,87.375 130.591,87.19 129.639,86.239 126.452,85.473 122.643,85.473 122.156,85.473 121.205,84.525 122.156,83.095 
	124.534,82.618 125.964,79.766 127.863,78.813 131.196,82.146 130.246,84.044 130.722,84.99 135.002,80.713 137.858,82.146 
	136.906,84.525 133.095,86.901 140.237,86.901 144.319,87.958 157.64,91.764 157.833,91.182 156.406,89.755 152.128,88.801 
	151.174,87.375 146.42,86.901 145.175,86.18 144.041,86.032 143.091,84.99 144.041,82.618 151.174,85.949 153.553,84.525 
	155.197,87.227 156.29,84.612 155.415,82.216 156.502,79.158 153.017,73.271 156.07,66.729 155.197,63.025 157.157,62.372 
	160.43,60.188 159.996,56.264 161.521,55.389 "/>
</svg>
