<?xml version="1.0" encoding="utf-8"?>
<!-- Generator: Adobe Illustrator 18.0.0, SVG Export Plug-In . SVG Version: 6.00 Build 0)  -->
<!DOCTYPE svg PUBLIC "-//W3C//DTD SVG 1.1//EN" "http://www.w3.org/Graphics/SVG/1.1/DTD/svg11.dtd">
<svg version="1.1" id="Capa_1" xmlns="http://www.w3.org/2000/svg" xmlns:xlink="http://www.w3.org/1999/xlink" x="0px" y="0px"
	 viewBox="0 0 134.484 121.852" enable-background="new 0 0 134.484 121.852" xml:space="preserve">
<polygon fill="#EE4656" points="72.843,46.816 72.843,48.847 73.319,50.881 75.933,49.138 77.188,52.338 79.538,54.369 79.383,55.827 
	74.843,60.492 74.843,62.518 76.798,63.965 82.088,64.836 88.3,67.749 92.412,68.91 91.565,65.421 92.746,64.547 95.077,67.169 
	98.276,66.585 104.095,75.888 109.617,75.6 114.564,78.507 115.436,77.342 119.218,77.534 121.398,76.852 124.753,76.852 
	126.853,78.354 131.428,81.777 133.753,82.758 134.484,83.825 130.336,85.53 130.627,89.126 129.463,91.852 126.619,91.852 
	126.853,95.239 129.173,97.337 128.592,99.263 123.945,102.403 126.267,107.609 128.304,110.686 129.251,114.852 127.863,114.852 
	125.541,114.69 124.454,116.767 125.541,118.898 124.883,119.641 122.705,118.261 118.997,119.842 118.559,121.852 117.293,121.852 
	116.243,119.61 113.985,118.396 113.614,116.726 110.27,117.21 107.068,113.671 103.988,102.73 101.843,104.022 101.843,105.872 
	101.117,106.852 99.888,106.852 98.94,110.244 96.972,111.329 94.358,112.852 92.427,112.852 88.902,107.577 86.943,107.435 
	86.72,109.764 85.413,111.8 83.883,109.765 80.831,109.072 76.69,107.092 76.038,106.212 72.766,104.678 71.675,102.495 
	65.788,101.841 62.083,102.71 61.208,106.419 59.681,107.947 57.282,108.6 55.32,106.855 53.357,107.074 51.613,105.33 
	48.776,104.237 44.633,99.226 38.529,99.879 35.477,99.192 33.951,97.852 29.018,97.852 27.843,95.576 29.807,92.493 31.116,91.277 
	32.205,82.277 31.116,78.536 30.678,75.904 32.856,74.367 33.513,73.271 31.985,70.659 29.807,69.13 26.969,68.911 24.132,71.965 
	20.862,74.018 19.339,75.852 16.585,75.852 13.67,70.446 8.721,65.024 3.487,61.74 1.455,55.875 2.327,50.905 0,46.241 1.455,44.77 
	2.618,41.852 3.53,41.852 6.104,42.319 9.89,41.367 11.635,41.908 16.286,34.329 19.19,32.868 21.229,29.375 27.843,26.459 
	33.438,21.515 38.674,13.085 42.454,6.395 47.404,3.486 49.12,0 52.635,3.202 55.828,7.562 56.41,20.647 60.77,28.506 
	60.187,34.623 61.354,37.259 60.77,41.868 61.6,47.289 63.21,49.852 66.287,49.852 65.985,46.741 "/>
</svg>
