<?xml version="1.0" encoding="utf-8"?>
<!-- Generator: Adobe Illustrator 18.0.0, SVG Export Plug-In . SVG Version: 6.00 Build 0)  -->
<!DOCTYPE svg PUBLIC "-//W3C//DTD SVG 1.1//EN" "http://www.w3.org/Graphics/SVG/1.1/DTD/svg11.dtd">
<svg version="1.1" id="Capa_1" xmlns="http://www.w3.org/2000/svg" xmlns:xlink="http://www.w3.org/1999/xlink" x="0px" y="0px"
	 viewBox="0 0 109.02 47.894" enable-background="new 0 0 109.02 47.894" xml:space="preserve">
<polyline fill-rule="evenodd" clip-rule="evenodd" fill="#EE4656" points="25.73,30.288 27.559,26.127 26.684,27.434 26.466,28.959 
	25.812,31.359 26.903,35.064 24.288,37.25 23.849,40.3 20.139,46.186 16.004,42.263 17.524,38.991 17.745,37.25 14.472,33.318 
	10.329,31.792 7.929,31.141 6.406,27.867 4.876,28.089 2.696,26.997 0,26.577 1.961,29.631 4.806,26.968 14.795,22.683 
	15.748,22.21 23.36,18.405 29.542,16.979 38.576,16.499 39.531,16.499 47.142,15.551 55.194,2.845 55.731,3.089 56.142,1.892 
	63.12,0 65.153,2.472 65.589,5.234 66.897,6.547 68.794,5.529 73.805,5.311 74.968,16.356 76.129,16.794 76.856,18.688 
	79.545,19.046 81.005,20.793 82.309,21.373 82.599,22.535 82.296,23.943 85.54,26.554 89.476,26.021 84.636,24.62 86.654,19 
	87.529,17.11 87.093,15.514 87.674,13.039 90.723,12.601 92.616,14.348 94.439,14.224 96.888,14.805 99.018,15.225 100.466,17.254 
	108.608,16.527 109.02,26.554 109.02,46.727 98.939,47.015 97.048,47.894 96.032,42.263 96.904,40.517 95.165,39.43 92.981,38.769 
	92.761,36.809 88.182,35.502 87.962,33.318 86.437,29.611 82.514,28.523 83.473,26.826 80.42,24.646 78.455,27.263 71.609,25.47 
	69.644,26.127 62.665,28.959 61.573,31.141 51.545,40.517 49.579,42.695 47.399,42.479 46.531,41.605 43.696,37.46 38.462,37.46 
	39.114,34.189 38.896,30.051 39.987,28.523 39.773,25.904 35.626,25.034 33.798,30.288 31.182,28.76 28.784,28.542 27.691,29.855 
	"/>
</svg>
