<?xml version="1.0" encoding="utf-8"?>
<!-- Generator: Adobe Illustrator 18.0.0, SVG Export Plug-In . SVG Version: 6.00 Build 0)  -->
<!DOCTYPE svg PUBLIC "-//W3C//DTD SVG 1.1//EN" "http://www.w3.org/Graphics/SVG/1.1/DTD/svg11.dtd">
<svg version="1.1" id="Capa_1" xmlns="http://www.w3.org/2000/svg" xmlns:xlink="http://www.w3.org/1999/xlink" x="0px" y="0px"
	 viewBox="0 0 95.244 146.399" enable-background="new 0 0 95.244 146.399" xml:space="preserve">
<polygon fill="#EE4656" points="50.352,0 56.075,1.525 62.235,5.358 79.051,5.358 84.898,10.3 89.225,9.358 90.863,9.358 91.612,8.2 
	92.089,9.454 93.992,8.416 95.244,8.141 94.942,19.293 83.788,46.258 83.524,42.587 87.329,34.498 86.855,31.167 87.807,30.209 
	83.524,28.785 83.049,29.738 84.477,30.208 83.049,35.138 82.579,34.358 80.294,34.358 80.667,33.358 79.051,33.358 77.817,36.455 
	78.769,39.518 77.644,43.983 77.817,45.975 81.148,48.32 79.723,50.208 77.344,50.674 78.769,52.099 78.296,56.854 79.723,56.377 
	78.296,64.097 76.394,61.358 74.7,61.358 74.012,63.358 74.7,63.358 74.487,65.717 75.441,66.514 78.769,65.49 77.344,78.297 
	76.869,77.799 76.394,79.219 77.817,79.692 78.296,88.25 77.344,89.2 77.817,93.954 78.377,95.027 77.817,106.326 79.158,119.272 
	77.344,125.353 74.962,126.778 75.916,127.731 74.487,131.535 76.001,132.561 75.916,134.393 79.158,144.977 77.019,146.399 
	74.986,146.111 74.696,142.625 68.588,139.569 66.626,137.824 64.008,137.244 62.558,139.569 60.519,140.225 56.38,138.551 
	54.047,139.718 48.964,139.422 46.785,140.878 43.002,141.46 42.13,142.625 37.183,139.718 31.664,140.006 25.846,130.703 
	22.651,131.287 20.325,128.665 19.156,129.539 20.029,133.028 15.965,131.867 9.855,128.954 5.053,128.083 3.161,126.636 
	3.161,124.609 7.663,119.945 7.308,118.487 4.945,116.456 3.769,113.256 1.589,114.999 1.161,112.965 1.161,110.934 1.779,109.476 
	0,106.275 2.023,105.112 6.081,105.693 6.946,104.528 4.914,99.299 8.399,90.575 18,91.739 19.449,88.833 21.487,86.798 
	21.194,83.021 15.673,78.362 15.09,74.876 17.127,70.513 15.672,64.99 12.761,65.863 12.177,62.956 16.546,59.467 18.578,60.044 
	20.9,55.972 22.651,55.683 26.136,53.361 29.922,54.521 30.789,53.938 29.628,51.322 30.789,49.576 30.499,47.83 29.336,46.089 
	31.08,44.341 35.152,42.019 37.982,44.054 52.304,32.425 54.922,28.642 49.981,28.352 "/>
</svg>
