<?xml version="1.0" encoding="utf-8"?>
<!-- Generator: Adobe Illustrator 18.0.0, SVG Export Plug-In . SVG Version: 6.00 Build 0)  -->
<!DOCTYPE svg PUBLIC "-//W3C//DTD SVG 1.1//EN" "http://www.w3.org/Graphics/SVG/1.1/DTD/svg11.dtd">
<svg version="1.1" id="Capa_1" xmlns="http://www.w3.org/2000/svg" xmlns:xlink="http://www.w3.org/1999/xlink" x="0px" y="0px"
	 viewBox="0 0 37.216 21.81" enable-background="new 0 0 37.216 21.81" xml:space="preserve">
<polygon fill="#EE4656" points="5.231,9.306 6.979,11.628 7.559,13.669 10.181,15.12 12.212,19.195 14.826,20.355 16.862,20.645 
	18.904,21.81 23.258,18.031 26.169,19.195 29.654,17.736 29.366,15.699 31.986,14.833 35.182,15.412 36.638,13.954 37.216,12.213 
	34.307,11.628 31.986,7.851 29.074,9.014 27.332,7.268 27.622,5.523 23.843,3.204 21.517,0.585 19.774,2.329 17.154,1.745 15.989,0 
	13.375,0.291 10.753,3.489 8.431,3.78 4.073,3.204 2.616,4.652 0.289,4.652 0,6.109 2.33,8.146 2.33,10.473 "/>
</svg>
