<?xml version="1.0" encoding="utf-8"?>
<!-- Generator: Adobe Illustrator 18.0.0, SVG Export Plug-In . SVG Version: 6.00 Build 0)  -->
<!DOCTYPE svg PUBLIC "-//W3C//DTD SVG 1.1//EN" "http://www.w3.org/Graphics/SVG/1.1/DTD/svg11.dtd">
<svg version="1.1" id="Capa_1" xmlns="http://www.w3.org/2000/svg" xmlns:xlink="http://www.w3.org/1999/xlink" x="0px" y="0px"
	 viewBox="0 0 116.355 148.585" enable-background="new 0 0 116.355 148.585" xml:space="preserve">
<polygon fill="#EE4656" points="95.1,118.479 97.052,115.431 98.357,114.23 99.443,105.237 98.352,101.506 97.915,98.875 
	100.091,97.341 100.749,96.246 99.22,93.641 97.043,92.122 94.205,91.92 91.368,95.015 88.097,97.079 86.914,98.398 83.821,98.383 
	80.906,93.509 75.957,87.968 70.722,84.703 68.69,78.857 69.562,73.911 67.235,69.288 68.69,68.055 69.853,65.451 70.766,65.451 
	73.34,65.604 77.125,64.418 78.87,64.918 83.521,57.32 86.425,55.851 88.464,52.35 95.079,49.433 100.673,44.488 105.91,36.057 
	109.689,29.366 114.639,26.458 116.355,22.971 114.749,21.09 112.807,21.516 110.815,22.681 105.23,18.607 104.161,15.411 
	102.124,13.666 97.476,13.375 94.569,15.701 89.915,14.536 90.787,12.214 89.335,10.758 87.009,11.92 84.974,10.469 82.648,5.234 
	68.69,0 57.351,2.618 62.004,11.628 63.167,24.047 61.42,27.451 53.359,27.451 50.085,28.309 38.451,26.653 36.412,25.252 
	30.02,26.723 28.563,30.225 25.656,31.106 26.078,34.31 17.779,39.835 17.779,42.433 16.935,44.451 15.438,44.451 14.316,46.463 
	15.767,48.096 15.479,51.228 18.384,54.11 16.935,55.258 13.737,54.454 13.445,56.991 7.046,60.482 6.174,62.223 7.34,63.967 
	6.174,72.4 3.557,75.596 3.796,87.478 0,105.295 7.046,102.929 10.827,103.221 12.574,100.313 12.281,95.66 9.667,93.915 
	9.375,90.141 10.244,86.357 18.384,87.519 17.806,90.721 15.189,92.465 15.479,96.825 14.316,99.731 15.029,104.965 17.779,99.149 
	17.779,94.652 19.327,91.594 23.507,94.786 21.24,102.929 21.557,105.838 21.283,107.87 22.742,109.911 25.364,108.456 
	28.563,109.911 29.091,106.423 30.779,105.253 30.779,101.491 29.764,99.442 30.184,97.404 32.573,94.786 38.709,99.731 
	37.559,101.767 36.12,102.35 36.702,103.509 39.903,102.639 42.521,104.387 41.943,106.708 38.741,109.038 40.149,111.362 
	37.779,113.401 37.779,114.546 36.512,116.305 34.139,114.737 29.023,118.05 25.014,123.576 25.337,129.968 22.733,132.007 
	20.421,130.843 18.966,131.72 18.678,137.242 16.641,142.477 20.712,142.186 22.17,144.51 24.493,145.093 26.818,145.967 
	28.857,145.675 31.183,147.705 34.089,146.836 36.998,147.705 38.741,148.585 41.069,146.836 39.905,142.765 40.776,140.442 
	47.172,142.186 48.917,139.862 51.244,140.026 51.827,138.451 54.603,138.451 55.316,136.103 53.863,134.343 55.607,133.616 
	55.316,129.757 51.244,128.269 48.917,126.506 49.595,124.75 46.779,121.251 46.779,117.032 49.452,115.146 51.075,111.362 
	53.484,109.911 55.274,105.253 56.168,103.509 59.373,102.929 62.578,100.896 65.49,99.731 66.654,97.538 69.853,101.451 
	72.631,101.451 73.055,103.941 75.205,104.456 76.779,105.838 76.779,110.194 81.517,112.53 87.168,115.434 91.884,118.922 "/>
</svg>
