<?xml version="1.0" encoding="utf-8"?>
<!-- Generator: Adobe Illustrator 17.0.0, SVG Export Plug-In . SVG Version: 6.00 Build 0)  -->
<!DOCTYPE svg PUBLIC "-//W3C//DTD SVG 1.1//EN" "http://www.w3.org/Graphics/SVG/1.1/DTD/svg11.dtd">
<svg version="1.1" id="Capa_1" xmlns="http://www.w3.org/2000/svg" xmlns:xlink="http://www.w3.org/1999/xlink" x="0px" y="0px"
	 width="64px" height="64px" viewBox="0 0 64 64" enable-background="new 0 0 64 64" xml:space="preserve">
<circle opacity="0.8" fill="#444444" cx="32" cy="32" r="30"/>
<g>
	<g>
		<g>
			<path fill="#FFFFFF" d="M27.482,42.15c-0.067,0.033-0.14,0.057-0.2,0.101c-0.106,0.077-0.205,0.166-0.305,0.249
				c-0.138,0.002-0.199-0.086-0.247-0.189c-0.051-0.111-0.032-0.22,0.031-0.315c0.123-0.185,0.28-0.339,0.475-0.452
				c0.074-0.043,0.149-0.087,0.228-0.133c-0.02-0.055-0.035-0.095-0.053-0.146c-0.175-0.002-0.281,0.118-0.402,0.204
				c-0.115,0.082-0.216,0.186-0.334,0.244c-0.121-0.054-0.162-0.143-0.18-0.243c-0.021-0.111-0.009-0.218,0.047-0.32
				c0.071-0.129,0.17-0.23,0.292-0.309c0.092-0.06,0.188-0.112,0.287-0.17c0.032-0.119-0.035-0.217-0.065-0.318
				c-0.166-0.562-0.286-1.13-0.309-1.718c-0.021-0.535,0.038-1.056,0.245-1.554c0.013-0.03,0.022-0.062,0.03-0.094
				c0.005-0.021,0.004-0.043,0.009-0.088c-0.056-0.03-0.117-0.074-0.185-0.098c-0.321-0.115-0.646-0.22-0.967-0.337
				c-0.737-0.268-1.443-0.602-2.112-1.013c-0.491-0.302-0.943-0.651-1.323-1.087c-0.036-0.042-0.073-0.084-0.117-0.116
				c-0.114-0.084-0.254-0.076-0.364,0.016c-0.025,0.021-0.05,0.044-0.069,0.071c-0.118,0.16-0.268,0.166-0.442,0.108
				c-0.212-0.071-0.4-0.182-0.576-0.317c-0.439-0.337-0.83-0.725-1.175-1.158c-0.289-0.362-0.564-0.734-0.851-1.097
				c-0.58-0.735-1.164-1.467-1.748-2.199c-0.06-0.075-0.131-0.141-0.203-0.217c-0.402,0.311-0.821,0.259-1.237,0.105
				c-0.406-0.15-0.766-0.385-1.111-0.645c-0.539-0.406-1.021-0.873-1.495-1.351c-0.613-0.618-1.224-1.238-1.85-1.843
				c-0.524-0.505-1.087-0.966-1.684-1.384c-0.353-0.247-0.717-0.473-1.118-0.635c-0.029-0.012-0.054-0.034-0.084-0.053
				c0.133-0.059,0.142-0.062,0.232-0.057c0.374,0.021,0.748,0.042,1.122,0.064c0.539,0.032,1.078,0.066,1.617,0.097
				c1.32,0.075,2.64,0.148,3.96,0.224c1.133,0.065,2.266,0.129,3.398,0.203c0.681,0.045,1.363,0.081,2.04,0.182
				c0.952,0.142,1.881,0.361,2.771,0.731c0.586,0.244,1.113,0.573,1.563,1.027c0.28,0.283,0.351,0.599,0.251,0.968
				c-0.086,0.319-0.182,0.635-0.268,0.954c-0.15,0.557-0.214,1.124-0.18,1.701c0.027,0.467,0.183,0.878,0.492,1.234
				c0.33,0.379,0.712,0.689,1.161,0.913c0.238,0.119,0.485,0.21,0.754,0.229c0.34,0.023,0.638,0.156,0.912,0.353
				c0.234,0.168,0.442,0.363,0.638,0.573c0.374,0.401,0.464,0.87,0.312,1.38c-0.078,0.261-0.209,0.505-0.319,0.765
				c0.039,0.039,0.085-0.005,0.128-0.032c0.591-0.37,1.223-0.653,1.871-0.906c0.636-0.248,1.271-0.498,1.904-0.755
				c0.244-0.099,0.487-0.208,0.719-0.332c1.347-0.72,2.17-1.833,2.478-3.327c0.137-0.664,0.16-1.332,0.093-2.006
				c-0.044-0.438-0.105-0.872-0.186-1.315c-0.151-0.051-0.297-0.076-0.466-0.056c-0.016,0.081-0.035,0.154-0.043,0.228
				c-0.021,0.212-0.142,0.337-0.333,0.411c-0.154,0.06-0.307,0.122-0.458,0.188c-0.038,0.017-0.07,0.051-0.099,0.083
				c-0.011,0.012-0.005,0.04-0.007,0.061c0.281,0.056,0.344,0.047,1.275-0.187c0.107,0.142,0.115,0.2,0.002,0.26
				c-0.377,0.205-0.755,0.409-1.142,0.594c-0.285,0.136-0.635-0.106-0.637-0.414c-0.001-0.208,0.046-0.397,0.19-0.547
				c0.144-0.15,0.296-0.297,0.461-0.424c0.123-0.095,0.19-0.203,0.216-0.352c0.036-0.206,0.081-0.41,0.124-0.615
				c0.004-0.02,0.021-0.038,0.042-0.078c0.188-0.084,0.422-0.004,0.644-0.096c0-0.076,0.009-0.152-0.001-0.225
				c-0.058-0.427-0.148-0.849-0.347-1.234c-0.095-0.184-0.211-0.363-0.347-0.519c-0.268-0.308-0.613-0.366-0.993-0.238
				c-0.235,0.08-0.432,0.225-0.598,0.402c-0.173,0.184-0.332,0.382-0.479,0.588c-0.163,0.226-0.344,0.43-0.576,0.586
				c-0.5,0.336-0.978,0.309-1.411-0.105c-0.159-0.152-0.327-0.239-0.542-0.281c-0.245-0.048-0.485-0.133-0.663-0.317
				c0.011-0.08,0.064-0.067,0.103-0.067c0.143,0.002,0.286,0.01,0.429,0.014c0.129,0.003,0.204-0.069,0.243-0.184
				c0.061-0.18,0.04-0.347-0.077-0.5c-0.109-0.143-0.248-0.253-0.408-0.33c-0.179-0.085-0.365-0.153-0.548-0.228
				c-0.049-0.02-0.099-0.039-0.14-0.055c-0.005-0.076,0.03-0.095,0.078-0.096c0.234-0.002,0.46,0.043,0.679,0.122
				c0.463,0.167,0.76,0.488,0.833,0.978c0.031,0.204,0.131,0.312,0.304,0.389c0.23,0.102,0.468,0.116,0.712,0.09
				c0.125-0.014,0.232-0.073,0.317-0.163c0.075-0.08,0.143-0.168,0.207-0.256c0.155-0.214,0.304-0.433,0.461-0.646
				c0.179-0.242,0.398-0.44,0.658-0.595c0.392-0.233,0.791-0.244,1.2-0.048c0.371,0.177,0.657,0.449,0.833,0.819
				c0.189,0.397,0.364,0.802,0.528,1.21c0.106,0.265,0.187,0.541,0.27,0.815c0.056,0.183,0.126,0.351,0.278,0.477
				c0.05,0.041,0.086,0.099,0.124,0.154c0.157,0.226,0.198,0.469,0.06,0.714c-0.072,0.128-0.072,0.247-0.039,0.38
				c0.057,0.235,0.118,0.471,0.157,0.709c0.213,1.296,0.055,2.545-0.494,3.742c-0.333,0.728-0.838,1.316-1.466,1.803
				c-0.481,0.373-1.006,0.674-1.553,0.938c-0.834,0.403-1.698,0.735-2.563,1.063c-0.34,0.129-0.68,0.258-1.013,0.402
				c-0.439,0.19-0.833,0.448-1.163,0.8c-0.36,0.384-0.563,0.835-0.599,1.363c-0.026,0.397-0.014,0.792,0.036,1.187
				c0.036,0.284,0.065,0.569,0.1,0.853c0.009,0.075,0.029,0.149,0.046,0.237c0.163,0.069,0.315,0.155,0.502,0.128
				c0.078-0.011,0.16-0.01,0.213,0.058c0.068,0.088,0.056,0.184-0.007,0.292c-0.07-0.017-0.141-0.038-0.213-0.052
				c-0.119-0.023-0.288,0.142-0.221,0.287c0.014,0.029,0.028,0.074,0.051,0.08c0.141,0.038,0.249,0.198,0.423,0.118
				c0.019-0.009,0.043-0.005,0.065-0.006c0.071-0.001,0.128,0.022,0.166,0.086c0.033,0.055,0.034,0.059-0.035,0.205
				c-0.272-0.019-0.272-0.019-0.329,0.141c0.098,0.062,0.198,0.125,0.299,0.189c0.322-0.084,0.322-0.084,0.393,0.161
				c-0.065,0.008-0.127,0.013-0.187,0.024c-0.158,0.029-0.216,0.118-0.155,0.256c0.044,0.1,0.1,0.198,0.169,0.282
				c0.185,0.227,0.438,0.368,0.698,0.488c0.134,0.062,0.281,0.037,0.42-0.014c0.179-0.066,0.333-0.168,0.471-0.298
				c0.2-0.189,0.396-0.384,0.604-0.564c0.32-0.277,0.68-0.479,1.097-0.585c1.064-0.27,1.969,0.638,1.851,1.638
				c-0.046,0.386-0.137,0.761-0.318,1.105c-0.123,0.233-0.164,0.468-0.14,0.731c0.047,0.52-0.068,1.006-0.367,1.443
				c-0.188,0.274-0.439,0.452-0.746,0.574c-0.532,0.211-1.037,0.155-1.521-0.126c-0.199-0.116-0.394-0.246-0.57-0.394
				c-0.472-0.397-0.933-0.807-1.398-1.212c-0.075-0.065-0.142-0.139-0.218-0.203c-0.305-0.256-0.645-0.311-1.02-0.176
				c-0.341,0.123-0.622,0.332-0.844,0.614c-0.164,0.207-0.326,0.418-0.461,0.645c-0.27,0.456-0.672,0.542-1.138,0.414
				c-0.13-0.036-0.252-0.084-0.352-0.174c-0.318-0.289-0.635-0.579-0.951-0.87c-0.015-0.014-0.02-0.038-0.032-0.061
				c0.061-0.118,0.18-0.117,0.285-0.121c0.134-0.005,0.265,0.029,0.371,0.117c0.093,0.077,0.171,0.172,0.265,0.248
				c0.119,0.097,0.244,0.186,0.372,0.27c0.054,0.035,0.121,0.054,0.185,0.067c0.192,0.039,0.353-0.017,0.454-0.189
				c0.072-0.123,0.129-0.255,0.187-0.386c0.165-0.377,0.379-0.721,0.672-1.013c0.288-0.287,0.624-0.482,1.029-0.559
				c0.291-0.055,0.57-0.021,0.848,0.056c0.433,0.121,0.804,0.351,1.141,0.644c0.498,0.434,1.002,0.863,1.504,1.293
				c0.075,0.065,0.151,0.13,0.232,0.186c0.479,0.332,1.026,0.163,1.239-0.382c0.036-0.092,0.064-0.189,0.075-0.286
				c0.02-0.186,0.048-0.375,0.031-0.559c-0.028-0.314,0.049-0.575,0.244-0.828c0.401-0.524,0.298-1.077,0.03-1.619
				c-0.095-0.192-0.275-0.285-0.492-0.273c-0.108,0.006-0.218,0.029-0.322,0.06c-0.279,0.082-0.52,0.238-0.742,0.423
				c-0.364,0.303-0.724,0.612-1.088,0.915c-0.118,0.099-0.239,0.197-0.368,0.28c-0.379,0.245-0.765,0.252-1.149,0.009
				c-0.283-0.179-0.509-0.419-0.716-0.679c-0.062-0.077-0.119-0.159-0.186-0.232c-0.067-0.074-0.156-0.079-0.236-0.016
				c-0.051,0.041-0.092,0.094-0.142,0.137c-0.066,0.056-0.155,0.062-0.213,0.02c-0.068-0.05-0.096-0.162-0.048-0.238
				c0.035-0.054,0.083-0.104,0.135-0.14c0.061-0.042,0.133-0.067,0.2-0.099c-0.029-0.084-0.085-0.123-0.155-0.08
				c-0.177,0.11-0.351,0.228-0.521,0.349c-0.089,0.063-0.168,0.141-0.268,0.226c-0.057-0.057-0.127-0.1-0.156-0.163
				c-0.029-0.064-0.032-0.149-0.021-0.222c0.021-0.147,0.107-0.262,0.206-0.369c0.072-0.079,0.139-0.162,0.209-0.243
				c0.112,0.006,0.191-0.043,0.268-0.155C27.579,42.047,27.579,42.047,27.482,42.15z"/>
		</g>
		<g>
			<path fill="#FFFFFF" d="M57.468,23.687c-0.168,0.08-0.338,0.156-0.502,0.242c-0.402,0.21-0.769,0.473-1.127,0.749
				c-0.656,0.504-1.273,1.054-1.858,1.639c-0.537,0.538-1.069,1.082-1.606,1.62c-0.445,0.445-0.915,0.86-1.434,1.218
				c-0.301,0.207-0.619,0.382-0.968,0.493c-0.362,0.116-0.714,0.135-1.039-0.108c-0.015-0.012-0.041-0.01-0.075-0.017
				c-0.157,0.11-0.279,0.266-0.4,0.423c-0.553,0.714-1.107,1.428-1.659,2.144c-0.444,0.576-0.897,1.146-1.421,1.653
				c-0.238,0.23-0.483,0.453-0.778,0.609c-0.106,0.056-0.218,0.106-0.333,0.141c-0.145,0.044-0.284,0.035-0.382-0.109
				c-0.024-0.036-0.058-0.067-0.092-0.094c-0.121-0.096-0.239-0.098-0.361-0.002c-0.043,0.034-0.081,0.075-0.117,0.117
				c-0.392,0.457-0.868,0.811-1.377,1.124c-0.849,0.52-1.755,0.92-2.69,1.255c-0.259,0.093-0.521,0.178-0.784,0.26
				c-0.159,0.05-0.32,0.067-0.487,0.021c-0.324-0.089-0.491-0.271-0.517-0.602c-0.02-0.264-0.029-0.528-0.039-0.792
				c-0.029-0.793-0.049-1.586-0.087-2.378c-0.017-0.353,0.117-0.618,0.388-0.828c0.206-0.16,0.441-0.249,0.696-0.282
				c0.91-0.117,1.586-0.613,2.143-1.307c0.169-0.21,0.274-0.453,0.326-0.715c0.064-0.325,0.086-0.653,0.055-0.986
				c-0.065-0.707-0.218-1.395-0.476-2.053c-0.103-0.262-0.057-0.462,0.081-0.677c0.156-0.244,0.349-0.453,0.577-0.631
				c0.402-0.316,0.851-0.546,1.325-0.734c0.792-0.315,1.615-0.512,2.454-0.651c0.719-0.119,1.443-0.17,2.171-0.199
				c0.627-0.025,1.254-0.073,1.881-0.11c0.451-0.027,0.902-0.053,1.353-0.077c0.979-0.054,1.958-0.104,2.937-0.161
				c1.331-0.077,2.661-0.158,3.992-0.237c0.076-0.004,0.153-0.001,0.229-0.001C57.467,23.658,57.468,23.673,57.468,23.687z"/>
		</g>
		<g>
			<path fill="#FFFFFF" d="M43.596,43.174c-0.053,0.083-0.122,0.071-0.186,0.066c-0.312-0.022-0.611-0.099-0.879-0.261
				c-0.206-0.125-0.406-0.266-0.593-0.418c-0.384-0.313-0.759-0.638-1.138-0.958c-0.092-0.078-0.182-0.158-0.302-0.169
				c-0.091,0.068-0.078,0.152-0.042,0.216c0.069,0.124,0.14,0.252,0.238,0.353c0.454,0.467,0.942,0.896,1.491,1.251
				c0.082,0.053,0.161,0.109,0.242,0.163c-0.041,0.083-0.102,0.054-0.144,0.041c-0.156-0.051-0.314-0.104-0.463-0.172
				c-0.474-0.216-0.898-0.513-1.317-0.819c-0.079-0.058-0.164-0.109-0.249-0.158c-0.013-0.008-0.049,0.002-0.059,0.015
				c-0.018,0.024-0.038,0.062-0.031,0.086c0.011,0.04,0.038,0.08,0.068,0.109c0.097,0.09,0.196,0.177,0.298,0.262
				c0.279,0.233,0.56,0.464,0.839,0.697c0.058,0.049,0.111,0.103,0.171,0.158c-0.107,0.062-0.185-0.004-0.255-0.042
				c-0.387-0.21-0.77-0.427-1.152-0.646c-0.124-0.071-0.244-0.151-0.356-0.24c-0.133-0.106-0.263-0.1-0.395-0.013
				c-0.053,0.035-0.096,0.087-0.157,0.143c0.042,0.059,0.071,0.117,0.116,0.157c0.165,0.146,0.339,0.282,0.504,0.428
				c0.056,0.05,0.106,0.111,0.145,0.175c0.052,0.086-0.002,0.195-0.099,0.193c-0.096-0.002-0.2-0.013-0.286-0.052
				c-0.251-0.113-0.495-0.239-0.74-0.366c-0.127-0.066-0.248-0.142-0.386-0.222c-0.04,0.038-0.097,0.067-0.11,0.11
				c-0.013,0.044,0.003,0.11,0.03,0.152c0.072,0.111,0.161,0.21,0.235,0.319c0.098,0.146,0.192,0.295,0.278,0.448
				c0.037,0.065,0.058,0.143,0.072,0.218c0.027,0.14-0.044,0.236-0.189,0.255c-0.143,0.019-0.284,0.006-0.424-0.039
				c-0.266-0.086-0.5-0.228-0.72-0.396c-0.131-0.1-0.256-0.209-0.385-0.312c-0.08-0.063-0.159-0.073-0.242,0.036
				c0.005,0.124,0.09,0.227,0.159,0.335c0.125,0.196,0.232,0.4,0.302,0.622c0.062,0.198-0.009,0.309-0.212,0.36
				c-0.275,0.068-0.499,0.008-0.674-0.223c-0.12-0.158-0.242-0.314-0.373-0.464c-0.107-0.122-0.212-0.255-0.406-0.285
				c-0.031,0.057-0.063,0.112-0.09,0.17c-0.12,0.248-0.235,0.498-0.359,0.743c-0.044,0.087-0.104,0.169-0.17,0.242
				c-0.089,0.099-0.123,0.104-0.325,0.112c-0.077-0.099-0.035-0.208-0.024-0.314c0.051-0.504,0.111-1.008,0.098-1.516
				c-0.011-0.443-0.067-0.878-0.196-1.303c-0.026-0.084-0.052-0.168-0.083-0.251c-0.16-0.432-0.453-0.72-0.901-0.847
				c-0.417-0.118-0.836-0.189-1.272-0.11c-0.253,0.046-0.489,0.128-0.712,0.253c-0.124,0.07-0.248,0.142-0.391,0.224
				c-0.033-0.06-0.074-0.109-0.09-0.166c-0.14-0.498-0.278-0.997-0.411-1.497c-0.075-0.283-0.066-0.565,0.008-0.849
				c0.086-0.33,0.163-0.663,0.24-0.995c0.02-0.085,0.031-0.173,0.042-0.261c0.035-0.279-0.038-0.518-0.242-0.723
				c-0.202-0.203-0.388-0.421-0.578-0.636c-0.065-0.074-0.129-0.152-0.173-0.239c-0.073-0.141-0.03-0.262,0.111-0.33
				c0.089-0.043,0.184-0.072,0.278-0.102c1.112-0.362,2.188-0.813,3.237-1.329c0.406-0.2,0.799-0.42,1.159-0.698
				c0.042-0.032,0.092-0.054,0.159-0.093c0.048,0.127,0.09,0.24,0.133,0.351c0.109,0.277,0.212,0.555,0.33,0.828
				c0.061,0.141,0.139,0.276,0.224,0.404c0.165,0.248,0.219,0.264,0.517,0.196c0.032-0.007,0.065-0.014,0.097-0.019
				c0.251-0.034,0.352,0.042,0.377,0.288c0.018,0.175,0.033,0.351,0.037,0.527c0.005,0.233,0.088,0.425,0.245,0.596
				c0.47,0.511,0.927,1.034,1.406,1.536c0.822,0.861,1.652,1.713,2.528,2.521c0.778,0.718,1.574,1.413,2.419,2.052
				C43.504,43.091,43.55,43.134,43.596,43.174z"/>
		</g>
		<g>
			<path fill="#FFFFFF" d="M29.721,34.345c-0.038-0.079-0.081-0.143-0.102-0.214c-0.252-0.847-0.245-1.674,0.215-2.458
				c0.259-0.442,0.441-0.909,0.529-1.415c0.077-0.446,0.223-0.874,0.38-1.298c0.122-0.33,0.249-0.659,0.382-0.985
				c0.058-0.142,0.13-0.28,0.206-0.413c0.087-0.151,0.226-0.24,0.394-0.276c0.049-0.01,0.103,0.006,0.178,0.012
				c-0.018,0.084-0.029,0.145-0.044,0.205c-0.051,0.21,0.027,0.366,0.202,0.48c0.168,0.109,0.353,0.183,0.551,0.214
				c0.282,0.044,0.567,0.079,0.85,0.116c0.298,0.039,0.383,0.145,0.34,0.435c-0.02,0.131-0.048,0.26-0.073,0.39
				c-0.047,0.251-0.047,0.505-0.022,0.757c0.048,0.487,0.275,0.878,0.655,1.179c0.076,0.06,0.169,0.101,0.26,0.139
				c0.144,0.06,0.186,0.184,0.117,0.325c-0.043,0.088-0.105,0.168-0.166,0.246c-0.325,0.411-0.72,0.743-1.171,1.007
				c-0.599,0.352-1.228,0.646-1.873,0.902c-0.542,0.215-1.094,0.406-1.641,0.606C29.838,34.318,29.785,34.328,29.721,34.345z"/>
		</g>
		<g>
			<path fill="#FFFFFF" d="M29.109,32.291c-0.059,0-0.118,0.017-0.161-0.003c-0.119-0.056-0.244-0.11-0.344-0.193
				c-0.35-0.293-0.766-0.428-1.2-0.519c-0.161-0.034-0.327-0.044-0.49-0.073c-0.107-0.019-0.225-0.032-0.315-0.085
				c-0.753-0.442-1.252-1.068-1.366-1.956c-0.09-0.707,0.034-1.382,0.332-2.027c0.028-0.06,0.058-0.119,0.087-0.178
				c0.199-0.411,0.168-0.81-0.061-1.199c-0.177-0.3-0.424-0.534-0.709-0.729c-0.531-0.363-1.107-0.635-1.717-0.836
				c-0.483-0.159-0.98-0.255-1.482-0.326c-0.567-0.08-1.134-0.159-1.703-0.226c-0.394-0.047-0.79-0.071-1.184-0.109
				c-1.087-0.103-2.177-0.136-3.267-0.166c-0.374-0.01-0.749-0.026-1.123-0.032c-1.279-0.023-2.555-0.101-3.828-0.213
				c-0.877-0.077-1.745-0.24-2.595-0.482C7.93,22.924,7.88,22.904,7.811,22.88c0.059-0.066,0.125-0.044,0.179-0.041
				c0.495,0.028,0.99,0.057,1.485,0.091c0.747,0.053,1.494,0.112,2.241,0.166c0.857,0.062,1.714,0.122,2.571,0.183
				c0.374,0.026,0.748,0.048,1.121,0.076c1.088,0.083,2.177,0.132,3.268,0.154c0.771,0.015,1.538,0.11,2.301,0.221
				c0.621,0.09,1.241,0.192,1.846,0.363c0.628,0.178,1.233,0.409,1.796,0.742c0.323,0.191,0.631,0.403,0.893,0.677
				c0.194,0.203,0.337,0.436,0.424,0.701c0.122,0.372,0.1,0.738-0.052,1.098c-0.154,0.366-0.286,0.74-0.35,1.134
				c-0.074,0.46-0.093,0.921,0.027,1.377c0.134,0.509,0.421,0.917,0.847,1.226c0.198,0.144,0.415,0.235,0.665,0.268
				c0.459,0.061,0.912,0.165,1.334,0.362c0.178,0.084,0.348,0.188,0.512,0.298C29.019,32.042,29.11,32.129,29.109,32.291z"/>
		</g>
		<g>
			<path fill="#FFFFFF" d="M57.811,22.902c-0.352,0.174-0.728,0.249-1.102,0.325c-0.713,0.145-1.436,0.224-2.161,0.282
				c-0.923,0.074-1.847,0.107-2.773,0.136c-1.156,0.036-2.312,0.079-3.468,0.133c-1.277,0.06-2.549,0.174-3.815,0.359
				c-0.534,0.078-1.069,0.144-1.592,0.284c-0.556,0.148-1.09,0.352-1.598,0.619c-0.362,0.19-0.701,0.416-0.989,0.711
				c-0.14,0.143-0.258,0.3-0.343,0.482c-0.17,0.362-0.182,0.723,0.007,1.08c0.172,0.324,0.298,0.663,0.371,1.021
				c0.086,0.424,0.126,0.847,0.042,1.279c-0.158,0.807-0.605,1.403-1.3,1.825c-0.135,0.082-0.285,0.106-0.439,0.131
				c-0.282,0.046-0.562,0.103-0.84,0.17c-0.282,0.068-0.535,0.202-0.755,0.394c-0.117,0.102-0.241,0.196-0.398,0.222
				c-0.035,0.006-0.084-0.016-0.111-0.041c-0.016-0.015-0.016-0.072,0-0.092c0.06-0.077,0.117-0.166,0.197-0.217
				c0.175-0.113,0.357-0.219,0.548-0.302c0.406-0.177,0.835-0.281,1.274-0.334c0.214-0.026,0.402-0.097,0.58-0.217
				c0.562-0.381,0.881-0.905,0.983-1.576c0.064-0.423,0.041-0.836-0.074-1.243c-0.086-0.307-0.174-0.616-0.29-0.912
				c-0.284-0.718-0.129-1.336,0.386-1.886c0.198-0.211,0.429-0.379,0.672-0.532c0.755-0.475,1.577-0.783,2.444-0.972
				c1.393-0.302,2.801-0.463,4.228-0.476c0.616-0.006,1.232-0.061,1.848-0.097c0.396-0.023,0.792-0.051,1.188-0.078
				c0.879-0.06,1.758-0.121,2.637-0.18c0.385-0.026,0.77-0.048,1.154-0.075c1.066-0.074,2.132-0.15,3.198-0.223
				C57.614,22.896,57.713,22.902,57.811,22.902z"/>
		</g>
		<g>
			<path fill="#FFFFFF" d="M34.078,47.588c0.058,0.07,0.097,0.164,0.155,0.178c0.169,0.04,0.216,0.167,0.267,0.299
				c-0.263,0.023-0.278,0.008-0.403-0.204c-0.042-0.071-0.118-0.123-0.185-0.177c-0.208-0.169-0.21-0.347,0-0.515
				c0.094-0.076,0.182-0.162,0.285-0.222c0.146-0.085,0.304-0.149,0.455-0.222c-0.166-0.101-0.208-0.09-0.594,0.162
				c-0.004-0.185,0.08-0.312,0.247-0.362c0.052-0.016,0.109-0.026,0.162-0.021c0.28,0.027,0.545-0.024,0.814-0.162
				c0.026,0.064,0.048,0.109,0.064,0.157c0.02,0.062,0.025,0.131,0.055,0.188c0.048,0.091,0.196,0.102,0.252,0.017
				c0.06-0.089,0.105-0.188,0.154-0.278c0.088,0.001,0.082,0.072,0.107,0.112c0.09,0.137,0.17,0.283,0.267,0.415
				c0.074,0.1,0.18,0.161,0.313,0.153c0.045-0.003,0.06-0.014,0.141-0.139c-0.165-0.166-0.485-0.174-0.549-0.493
				c0.052,0.003,0.106-0.01,0.125,0.01c0.14,0.149,0.306,0.246,0.502,0.3c0.05,0.014,0.097,0.051,0.138,0.087
				c0.088,0.078,0.107,0.193,0.057,0.301c-0.091,0.196-0.322,0.294-0.526,0.222c-0.051-0.018-0.102-0.042-0.147-0.073
				c-0.354-0.249-0.738-0.323-1.159-0.219c-0.138,0.034-0.283,0.043-0.421,0.076C34.418,47.232,34.274,47.338,34.078,47.588z"/>
		</g>
		<g>
			<path fill="#FFFFFF" d="M35.415,33.494c0.049-0.102,0.074-0.189,0.125-0.256c0.153-0.199,0.507-0.187,0.62,0.029
				c0.254,0.488,0.485,0.986,0.539,1.544c0.026,0.261-0.095,0.426-0.344,0.464c-0.197,0.03-0.319-0.033-0.381-0.227
				c-0.047-0.145-0.069-0.299-0.094-0.45c-0.016-0.097-0.018-0.197-0.02-0.296c-0.004-0.219-0.079-0.405-0.237-0.56
				C35.554,33.674,35.497,33.593,35.415,33.494z"/>
		</g>
		<g>
			<path fill="#FFFFFF" d="M29.353,41.646c-0.075-0.26-0.112-0.483-0.004-0.712c0.029-0.009,0.061-0.031,0.089-0.028
				c0.602,0.082,1.172,0.266,1.709,0.525c0.065,0.142,0.05,0.275,0.03,0.403c-0.028,0.178-0.152,0.262-0.328,0.243
				c-0.022-0.003-0.044-0.004-0.065-0.011C30.312,41.928,29.84,41.789,29.353,41.646z"/>
		</g>
		<g>
			<path fill="#FFFFFF" d="M32.516,45.129c-0.047-0.445,0.053-0.81,0.055-1.179c0.002-0.373,0.001-0.746,0.001-1.13
				c0.13-0.082,0.246-0.164,0.369-0.232c0.213-0.117,0.423-0.001,0.44,0.248c0.011,0.153,0.007,0.308-0.01,0.46
				c-0.018,0.163-0.053,0.325-0.094,0.484c-0.044,0.174-0.129,0.334-0.286,0.429c-0.13,0.079-0.158,0.2-0.197,0.326
				c-0.045,0.146-0.097,0.29-0.152,0.432C32.628,45.006,32.591,45.035,32.516,45.129z"/>
		</g>
		<g>
			<path fill="#FFFFFF" d="M36.078,46.115c-0.107,0.031-0.212,0.06-0.322,0.092c-0.054,0.091-0.109,0.183-0.179,0.302
				c-0.042-0.062-0.077-0.1-0.094-0.144c-0.032-0.08-0.052-0.164-0.079-0.25c-0.165-0.009-0.286,0.078-0.419,0.117
				c-0.069,0.02-0.13,0.014-0.167-0.059c-0.034-0.066-0.03-0.134,0.021-0.182c0.054-0.052,0.12-0.095,0.188-0.128
				c0.098-0.047,0.202-0.083,0.305-0.121c0.23-0.084,0.385-0.241,0.477-0.468c0.036-0.089,0.091-0.172,0.145-0.253
				c0.012-0.018,0.062-0.026,0.086-0.017c0.024,0.009,0.051,0.043,0.055,0.07c0.008,0.053,0.002,0.108,0,0.163
				c-0.004,0.098-0.014,0.197-0.012,0.295c0.006,0.207,0.082,0.382,0.244,0.518c0.109,0.092,0.215,0.187,0.316,0.288
				c0.06,0.06,0.106,0.134,0.153,0.194c-0.031,0.084-0.082,0.101-0.134,0.064c-0.079-0.057-0.155-0.121-0.222-0.192
				C36.332,46.291,36.223,46.186,36.078,46.115z"/>
		</g>
		<g>
			<path fill="#FFFFFF" d="M31.768,43.258c0.193-0.123,0.346-0.245,0.52-0.312c0.084,0.031,0.073,0.091,0.074,0.143
				c0.007,0.494,0.009,0.987-0.055,1.478c-0.032,0.249-0.071,0.496-0.228,0.707c-0.028-0.019-0.058-0.028-0.06-0.042
				C31.917,44.583,31.844,43.931,31.768,43.258z"/>
		</g>
		<g>
			<path fill="#FFFFFF" d="M31.668,26.971c0.024-0.024,0.037-0.049,0.054-0.053c0.313-0.069,0.547-0.266,0.782-0.468
				c0.225-0.193,0.46-0.375,0.702-0.545c0.189-0.134,0.403-0.227,0.63-0.279c0.215-0.05,0.418-0.027,0.571,0.156
				c0.025,0.03,0.036,0.073,0.066,0.137c-0.088,0.01-0.149,0.022-0.21,0.022c-0.568,0.001-1.046,0.218-1.456,0.602
				c-0.16,0.15-0.321,0.3-0.486,0.446c-0.11,0.097-0.238,0.158-0.387,0.164C31.799,27.158,31.711,27.096,31.668,26.971z"/>
		</g>
		<g>
			<path fill="#FFFFFF" d="M33.186,26.729c0.005,0.126,0.019,0.224,0.008,0.318c-0.007,0.059-0.043,0.122-0.085,0.166
				c-0.285,0.305-0.286,0.351,0.009,0.63c0.008,0.007,0.013,0.018,0.019,0.027c-0.01,0.076-0.072,0.07-0.123,0.073
				c-0.176,0.012-0.35,0.012-0.512-0.076c-0.267-0.144-0.315-0.392-0.119-0.627C32.525,27.071,32.858,26.854,33.186,26.729z"/>
		</g>
		<g>
			<path fill="#FFFFFF" d="M29.064,24.07c0.09-0.078,0.199-0.091,0.3-0.125c0.106-0.035,0.203-0.084,0.266-0.183
				c0.053-0.084,0.028-0.183-0.068-0.214c-0.062-0.02-0.129-0.022-0.193-0.037c-0.062-0.015-0.131-0.026-0.183-0.059
				c-0.12-0.076-0.225-0.181-0.35-0.245c-0.125-0.063-0.269-0.089-0.398-0.129c-0.047-0.096,0.024-0.135,0.079-0.156
				c0.18-0.068,0.362-0.049,0.479,0.109c0.149,0.201,0.344,0.293,0.58,0.341c0.104,0.021,0.205,0.081,0.293,0.142
				c0.118,0.082,0.12,0.208,0.015,0.31c-0.155,0.15-0.349,0.228-0.558,0.268c-0.064,0.012-0.131,0.011-0.197,0.012
				C29.112,24.105,29.094,24.087,29.064,24.07z"/>
		</g>
		<g>
			<path fill="#FFFFFF" d="M33.529,26.728c0.12,0.068,0.205,0.114,0.287,0.165c0.035,0.022,0.062,0.057,0.09,0.084
				c-0.144,0.298-0.225,0.375-0.522,0.486C33.369,27.213,33.465,26.996,33.529,26.728z"/>
		</g>
		<g>
			<path fill="#FFFFFF" d="M28.354,23.225c0.329,0.108,0.573,0.261,0.839,0.424c-0.113,0.107-0.221,0.109-0.336,0.064
				C28.641,23.628,28.434,23.531,28.354,23.225z"/>
		</g>
		<g>
			<path fill="#FFFFFF" d="M36.394,48.058c0-0.12,0.002-0.238-0.001-0.355c-0.002-0.09,0.05-0.141,0.124-0.169
				c0.111-0.042,0.223,0.043,0.218,0.16C36.728,47.887,36.642,47.981,36.394,48.058z"/>
		</g>
		<g>
			<path fill="#FFFFFF" d="M33.788,26.204c0.022,0.042,0.036,0.059,0.041,0.079c0.041,0.17,0.067,0.191,0.213,0.151
				c0.094-0.026,0.185-0.06,0.271-0.088c0.058,0.044,0.042,0.083,0.009,0.116c-0.09,0.09-0.209,0.119-0.329,0.135
				c-0.092,0.012-0.172-0.027-0.238-0.091C33.676,26.429,33.682,26.354,33.788,26.204z"/>
		</g>
	</g>
</g>
</svg>
