<?xml version="1.0" encoding="utf-8"?>
<!-- Generator: Adobe Illustrator 17.0.0, SVG Export Plug-In . SVG Version: 6.00 Build 0)  -->
<!DOCTYPE svg PUBLIC "-//W3C//DTD SVG 1.1//EN" "http://www.w3.org/Graphics/SVG/1.1/DTD/svg11.dtd">
<svg version="1.1" id="Capa_1" xmlns="http://www.w3.org/2000/svg" xmlns:xlink="http://www.w3.org/1999/xlink" x="0px" y="0px"
	 width="64px" height="64px" viewBox="0 0 64 64" enable-background="new 0 0 64 64" xml:space="preserve">
<circle opacity="0.8" fill="#444444" cx="32" cy="32" r="30"/>
<g>
	<g>
		<g>
			<path fill="#FFFFFF" d="M18.815,36.811c-0.848,0.003-1.68,0.002-2.521,0.001c-0.022-0.065-0.051-0.117-0.056-0.171
				c-0.009-0.097-0.006-0.196-0.006-0.294c0-1.687,0-3.374,0-5.06c0-0.137,0.001-0.275-0.01-0.412
				c-0.009-0.107-0.027-0.214-0.056-0.317c-0.084-0.296-0.29-0.465-0.591-0.495c-0.184-0.018-0.373-0.013-0.557,0.007
				c-0.234,0.025-0.464,0.074-0.696,0.117c-0.046,0.009-0.088,0.038-0.15,0.065c-0.006,0.164-0.016,0.329-0.016,0.494
				c-0.001,1.834-0.001,3.668-0.001,5.501c0,0.118,0.002,0.235-0.002,0.353c-0.002,0.057-0.014,0.113-0.024,0.182
				c-0.065,0.011-0.12,0.028-0.176,0.028c-0.716,0.002-1.432,0.001-2.148,0.001c-0.048,0-0.096-0.007-0.125-0.009
				c-0.092-0.073-0.068-0.158-0.068-0.232c0.001-0.755,0.004-1.51,0.007-2.265c0.005-1.108,0.01-2.216,0.013-3.324
				c0-0.098-0.002-0.197-0.022-0.293c-0.063-0.305-0.243-0.504-0.548-0.591c-0.232-0.066-0.467-0.057-0.7-0.027
				c-0.204,0.026-0.406,0.068-0.607,0.111c-0.167,0.035-0.212,0.089-0.225,0.259c-0.007,0.088-0.003,0.176-0.003,0.265
				c0,1.902,0,3.805,0,5.707c0,0.117-0.003,0.233-0.005,0.363c-0.068,0.014-0.122,0.036-0.177,0.036
				c-0.706,0.002-1.412,0.002-2.118,0.001c-0.048,0-0.095-0.009-0.162-0.015c-0.009-0.061-0.023-0.116-0.023-0.171
				c0.008-2.667,0.017-5.334,0.027-8.001c0-0.078,0.007-0.155,0.012-0.248c0.066-0.022,0.126-0.054,0.19-0.063
				c0.427-0.061,0.854-0.117,1.281-0.176c0.117-0.016,0.211,0.018,0.286,0.111c0.111,0.136,0.224,0.27,0.332,0.399
				c0.13,0.003,0.222-0.059,0.32-0.098c0.31-0.122,0.618-0.249,0.944-0.326c0.883-0.211,1.732-0.137,2.54,0.292
				c0.026,0.014,0.053,0.026,0.079,0.04c0.241,0.134,0.485,0.135,0.734,0.021c0.358-0.163,0.729-0.285,1.115-0.364
				c0.713-0.146,1.425-0.136,2.129,0.036c0.715,0.174,1.217,0.61,1.491,1.297c0.203,0.508,0.272,1.041,0.28,1.583
				c0.006,0.432,0.001,0.863,0.005,1.294c0.013,1.343,0.028,2.686,0.042,4.029C18.851,36.559,18.864,36.667,18.815,36.811z"/>
		</g>
		<g>
			<path fill="#FFFFFF" d="M40.477,28.354c0.21-0.069,0.438-0.069,0.658-0.106c0.27-0.045,0.545-0.068,0.816-0.108
				c0.14-0.021,0.247,0.014,0.337,0.125c0.104,0.129,0.216,0.251,0.321,0.371c0.148-0.011,0.257-0.081,0.373-0.13
				c0.669-0.286,1.366-0.424,2.093-0.38c0.845,0.051,1.579,0.363,2.172,0.978c0.443,0.459,0.703,1.008,0.808,1.635
				c0.063,0.378,0.081,0.758,0.086,1.142c0.014,1.176,0.043,2.352,0.064,3.528c0.007,0.412,0.011,0.823,0.014,1.235
				c0,0.067-0.009,0.134-0.015,0.209c-0.046,0.014-0.081,0.032-0.117,0.035c-0.714,0.056-1.43,0.063-2.145,0.034
				c-0.097-0.004-0.193-0.021-0.276-0.031c-0.13-0.165-0.131-0.34-0.131-0.518c0.002-1.598,0.001-3.197,0-4.795
				c0-0.177,0.001-0.354-0.009-0.529c-0.039-0.628-0.349-0.938-0.98-0.99c-0.395-0.032-0.783,0.02-1.17,0.085
				c-0.114,0.019-0.228,0.043-0.353,0.066c-0.036,0.372-0.013,0.733-0.017,1.093c-0.004,0.363-0.001,0.726-0.001,1.088
				c0,0.373,0,0.745,0,1.118c0,0.363,0,0.726,0,1.088c0,0.363,0.001,0.726,0,1.088c-0.001,0.362,0.004,0.723-0.003,1.093
				c-0.065,0.013-0.111,0.031-0.157,0.031c-0.765,0.002-1.53,0.002-2.295,0.001c-0.028,0-0.055-0.011-0.094-0.02
				c-0.008-0.036-0.025-0.073-0.025-0.109c0.001-2.745,0.004-5.491,0.008-8.236C40.439,28.42,40.46,28.394,40.477,28.354z"/>
		</g>
		<g>
			<path fill="#FFFFFF" d="M55.953,35.001c0.263,0.05,0.51-0.005,0.764,0.042c0.131,0.454,0.216,0.915,0.325,1.378
				c-0.107,0.125-0.245,0.194-0.39,0.253c-0.445,0.183-0.904,0.326-1.375,0.423c-0.456,0.094-0.853-0.026-1.195-0.341
				c-0.101-0.093-0.205-0.182-0.336-0.299c-0.071-0.005-0.157,0.068-0.251,0.115c-0.404,0.204-0.825,0.361-1.266,0.467
				c-0.694,0.165-1.366,0.122-2-0.218c-0.737-0.396-1.251-0.985-1.413-1.819c-0.2-1.032,0.113-1.902,0.938-2.564
				c0.48-0.386,1.041-0.589,1.656-0.607c0.371-0.011,0.745,0.013,1.116,0.032c0.274,0.014,0.547,0.045,0.821,0.065
				c0.132,0.01,0.178-0.029,0.179-0.168c0.003-0.245,0.01-0.491-0.007-0.735c-0.038-0.569-0.421-0.942-0.988-0.967
				c-0.165-0.007-0.335,0.005-0.496,0.039c-0.518,0.109-1.033,0.232-1.549,0.348c-0.066,0.015-0.133,0.022-0.205,0.034
				c-0.115-0.095-0.153-0.231-0.208-0.353c-0.26-0.566-0.37-0.879-0.407-1.136c0.03-0.016,0.062-0.038,0.097-0.052
				c0.76-0.291,1.529-0.552,2.327-0.725c1.028-0.223,1.966-0.019,2.821,0.58c0.633,0.444,0.987,1.059,1.036,1.829
				c0.031,0.488,0.013,0.98,0.011,1.47c-0.004,0.902-0.012,1.805-0.017,2.707C55.943,34.855,55.949,34.913,55.953,35.001z
				 M53.499,33.524c-0.027-0.017-0.035-0.027-0.042-0.027c-0.498-0.003-0.997-0.021-1.495-0.001
				c-0.287,0.011-0.482,0.203-0.594,0.463c-0.212,0.487,0.095,1.102,0.613,1.234c0.075,0.019,0.156,0.033,0.231,0.026
				c0.361-0.03,0.721-0.066,1.081-0.105c0.185-0.02,0.239-0.079,0.241-0.265c0.003-0.382,0.001-0.763-0.004-1.145
				C53.529,33.639,53.508,33.574,53.499,33.524z"/>
		</g>
		<g>
			<path fill="#FFFFFF" d="M27.477,32.607c-0.002,0.589-0.07,1.172-0.256,1.736c-0.299,0.904-0.818,1.645-1.633,2.159
				c-0.454,0.287-0.955,0.451-1.481,0.542c-0.809,0.14-1.601,0.078-2.374-0.203c-0.917-0.334-1.609-0.929-2.037-1.807
				c-0.76-1.558-0.779-3.136-0.059-4.712c0.485-1.063,1.311-1.739,2.441-2.04c0.955-0.254,1.899-0.242,2.829,0.118
				c1.055,0.409,1.787,1.144,2.204,2.193C27.367,31.24,27.504,31.908,27.477,32.607z M24.968,32.619
				c-0.034-0.341-0.057-0.683-0.104-1.022c-0.042-0.302-0.137-0.59-0.281-0.861c-0.384-0.724-1.114-0.889-1.753-0.698
				c-0.381,0.114-0.633,0.379-0.812,0.721c-0.184,0.352-0.276,0.731-0.323,1.123c-0.061,0.499-0.055,0.997,0.004,1.495
				c0.054,0.452,0.165,0.887,0.41,1.276c0.57,0.908,1.879,0.884,2.415-0.044c0.133-0.231,0.225-0.478,0.288-0.736
				C24.911,33.462,24.954,33.044,24.968,32.619z"/>
		</g>
		<g>
			<path fill="#FFFFFF" d="M39.929,33.246c-1.618,0-3.203-0.084-4.772-0.076c-0.079,0.082-0.072,0.161-0.059,0.238
				c0.053,0.331,0.138,0.654,0.318,0.941c0.385,0.613,0.958,0.87,1.668,0.858c0.571-0.01,1.13-0.116,1.688-0.228
				c0.192-0.039,0.382-0.087,0.574-0.128c0.066-0.014,0.134-0.018,0.199-0.026c0.074,0.204,0.207,1.135,0.209,1.457
				c-0.065,0.091-0.171,0.123-0.268,0.165c-0.751,0.326-1.532,0.545-2.349,0.623c-0.321,0.031-0.646,0.06-0.968,0.052
				c-1.131-0.029-2.039-0.501-2.709-1.417c-0.456-0.623-0.701-1.331-0.813-2.089c-0.071-0.477-0.087-0.957-0.061-1.438
				c0.037-0.681,0.176-1.341,0.463-1.963c0.539-1.172,1.468-1.83,2.727-2.04c0.678-0.113,1.351-0.065,2.009,0.123
				c0.955,0.273,1.639,0.866,2.014,1.789c0.323,0.796,0.429,1.628,0.317,2.481C40.085,32.788,39.998,33,39.929,33.246z
				 M37.661,31.528c-0.021-0.486-0.15-0.897-0.439-1.249c-0.162-0.198-0.381-0.304-0.634-0.328
				c-0.116-0.011-0.235-0.008-0.351,0.002c-0.452,0.036-0.762,0.268-0.94,0.685c-0.097,0.228-0.136,0.468-0.157,0.712
				c-0.005,0.054,0.006,0.11,0.011,0.182C35.987,31.597,36.803,31.589,37.661,31.528z"/>
		</g>
		<g>
			<path fill="#FFFFFF" d="M28.04,28.33c0.589-0.072,1.14-0.139,1.697-0.207c0.207,0.216,0.321,0.495,0.532,0.718
				c0.098-0.055,0.192-0.106,0.285-0.159c0.601-0.342,1.236-0.591,1.92-0.708c0.143-0.025,0.288-0.035,0.43-0.051
				c0.072,0.108,0.034,0.207,0.023,0.299c-0.037,0.311-0.082,0.622-0.124,0.932c-0.037,0.272-0.072,0.544-0.111,0.815
				c-0.012,0.086-0.033,0.171-0.052,0.269c-0.34,0.075-0.686,0.056-1.021,0.117c-0.337,0.061-0.675,0.117-0.992,0.171
				c-0.085,0.109-0.061,0.211-0.061,0.306c-0.002,0.627-0.001,1.255-0.001,1.882c0,1.245,0,2.489,0,3.734
				c0,0.106-0.005,0.212-0.007,0.324c-0.054,0.016-0.09,0.036-0.125,0.036c-0.755,0.002-1.509,0.002-2.264,0.001
				c-0.028,0-0.056-0.012-0.102-0.024c-0.008-0.053-0.02-0.108-0.023-0.163c-0.004-0.068-0.001-0.137-0.001-0.206
				c0-2.568,0-5.136,0-7.704C28.04,28.596,28.04,28.48,28.04,28.33z"/>
		</g>
	</g>
</g>
</svg>
