<?xml version="1.0" encoding="utf-8"?>
<!-- Generator: Adobe Illustrator 17.0.0, SVG Export Plug-In . SVG Version: 6.00 Build 0)  -->
<!DOCTYPE svg PUBLIC "-//W3C//DTD SVG 1.1//EN" "http://www.w3.org/Graphics/SVG/1.1/DTD/svg11.dtd">
<svg version="1.1" id="Capa_1" xmlns="http://www.w3.org/2000/svg" xmlns:xlink="http://www.w3.org/1999/xlink" x="0px" y="0px"
	 width="64px" height="64px" viewBox="0 0 64 64" enable-background="new 0 0 64 64" xml:space="preserve">
<circle opacity="0.8" fill="#444444" cx="32" cy="32" r="30"/>
<g>
	<g>
		<g>
			<path fill="#FFFFFF" d="M49.615,45.69c-0.106-0.009-0.212-0.025-0.318-0.025c-1.14-0.002-2.281-0.008-3.421,0.005
				c-0.227,0.003-0.317-0.072-0.38-0.285c-0.723-2.444-1.455-4.884-2.185-7.326c-0.038-0.128-0.082-0.254-0.18-0.375
				c0,2.647,0,5.295,0,7.961c-1.435,0-2.833,0-4.25,0c0-8.785,0-17.561,0-26.381c0.104,0,0.208,0,0.311,0
				c1.043,0,2.086,0.01,3.128-0.007c0.269-0.004,0.381,0.067,0.46,0.337c0.843,2.884,1.702,5.764,2.558,8.644
				c0.011,0.035,0.024,0.07,0.1,0.101c0-3.013,0-6.026,0-9.057c1.41,0,2.77,0,4.164,0c0.006,0.101,0.018,0.203,0.018,0.306
				c0.001,8.606,0.001,17.212,0,25.818c0,0.097-0.009,0.195-0.014,0.292L49.615,45.69z"/>
		</g>
		<g>
			<path fill="#FFFFFF" d="M38.403,45.664c-0.566,0-1.119,0-1.673,0c-0.77,0-1.54-0.007-2.309,0.004
				c-0.2,0.003-0.265-0.068-0.295-0.259c-0.164-1.028-0.338-2.054-0.521-3.079c-0.015-0.084-0.122-0.216-0.187-0.216
				c-1.509-0.012-3.019-0.01-4.568-0.01c-0.201,1.184-0.4,2.358-0.602,3.544c-1.414,0-2.813,0-4.257,0
				c1.529-8.804,3.053-17.586,4.579-26.371c0.111-0.006,0.187-0.013,0.264-0.013c1.578-0.001,3.157,0.003,4.736-0.005
				c0.216-0.001,0.293,0.055,0.332,0.281c0.512,3.001,1.037,6,1.559,9c0.499,2.865,0.998,5.73,1.495,8.596
				c0.487,2.808,0.972,5.616,1.458,8.425C38.416,45.578,38.41,45.598,38.403,45.664z M31.251,32.694
				c-0.026-0.004-0.052-0.009-0.078-0.013c-0.381,1.83-0.761,3.659-1.146,5.509c0.799,0,1.564,0,2.364,0
				C32.009,36.344,31.63,34.519,31.251,32.694z"/>
		</g>
		<g>
			<path fill="#FFFFFF" d="M18.709,36.105c0,3.201,0,6.363,0,9.541c-1.38,0-2.721,0-4.089,0c0-8.78,0-17.562,0-26.383
				c0.103,0,0.207,0,0.311,0c2.836,0,5.672,0.01,8.507-0.006c0.844-0.005,1.433,0.356,1.827,1.077
				c0.396,0.725,0.587,1.515,0.593,2.327c0.02,3.089,0.021,6.178-0.001,9.267c-0.006,0.879-0.194,1.739-0.568,2.547
				c-0.496,1.071-1.278,1.672-2.513,1.637c-1.217-0.035-2.436-0.007-3.654-0.007C18.997,36.105,18.872,36.105,18.709,36.105z
				 M18.712,23.686c0,0.238,0,0.441,0,0.643c0,2.426,0.004,4.852-0.006,7.278c-0.001,0.262,0.078,0.335,0.331,0.326
				c0.525-0.017,1.052-0.002,1.578-0.006c0.525-0.004,0.795-0.23,0.876-0.746c0.036-0.23,0.058-0.465,0.058-0.697
				c0.005-1.802,0.005-3.605,0-5.407c0-0.232-0.023-0.467-0.064-0.696c-0.076-0.419-0.325-0.682-0.68-0.69
				C20.125,23.675,19.445,23.686,18.712,23.686z"/>
		</g>
	</g>
</g>
</svg>
