<?xml version="1.0" encoding="utf-8"?>
<!-- Generator: Adobe Illustrator 17.0.0, SVG Export Plug-In . SVG Version: 6.00 Build 0)  -->
<!DOCTYPE svg PUBLIC "-//W3C//DTD SVG 1.1//EN" "http://www.w3.org/Graphics/SVG/1.1/DTD/svg11.dtd">
<svg version="1.1" id="Capa_1" xmlns="http://www.w3.org/2000/svg" xmlns:xlink="http://www.w3.org/1999/xlink" x="0px" y="0px"
	 width="64px" height="64px" viewBox="0 0 64 64" enable-background="new 0 0 64 64" xml:space="preserve">
<circle opacity="0.8" fill="#444444" cx="32" cy="32" r="30"/>
<g>
	<g>
		<g>
			<path fill="#FFFFFF" d="M33.065,28.888c0.009,0.007,0.019,0.013,0.028,0.02c0.054-0.039,0.107-0.078,0.161-0.118
				c1.829-1.349,3.654-2.703,5.566-3.933c1.159-0.746,2.341-1.45,3.617-1.982c0.908-0.378,1.841-0.667,2.834-0.71
				c0.4-0.017,0.796,0.015,1.167,0.183c0.444,0.201,0.668,0.552,0.692,1.035c0.019,0.393-0.078,0.764-0.215,1.126
				c-0.282,0.75-0.705,1.424-1.158,2.079c-1.136,1.644-2.459,3.133-3.836,4.574c-2.498,2.615-5.178,5.034-7.929,7.377
				c-0.03,0.026-0.064,0.046-0.107,0.077c-0.023-0.065-0.037-0.113-0.056-0.158c-0.214-0.527-0.395-1.07-0.65-1.576
				c-1.019-2.024-2.57-3.476-4.708-4.271c-1.481-0.55-3.015-0.685-4.575-0.506c-2.25,0.258-4.339,0.993-6.26,2.197
				c-1.595,1-2.963,2.262-4.218,3.655c-1.372,1.524-2.585,3.171-3.74,4.863c-0.017,0.025-0.03,0.054-0.045,0.081
				c0.011,0.009,0.022,0.019,0.033,0.029c0.053-0.064,0.102-0.133,0.161-0.191c1.154-1.139,2.358-2.221,3.655-3.196
				c1.316-0.989,2.701-1.863,4.243-2.462c1.333-0.518,2.704-0.788,4.141-0.616c1.15,0.138,2.2,0.529,3.126,1.234
				c0.92,0.7,1.579,1.607,2.069,2.643c0.555,1.173,0.854,2.418,1.032,3.697c0.073,0.524,0.177,1.04,0.403,1.523
				c0.178,0.383,0.419,0.714,0.789,0.935c0.454,0.271,0.945,0.286,1.447,0.198c0.634-0.112,1.211-0.379,1.774-0.68
				c2.44-1.303,4.713-2.86,6.886-4.566c1.851-1.453,3.616-3.007,5.363-4.583c1.378-1.243,2.712-2.527,3.916-3.943
				c1.731-2.037,3.244-4.218,4.417-6.626c0.627-1.287,1.144-2.614,1.407-4.028c0.139-0.745,0.198-1.493,0.065-2.246
				c-0.152-0.861-0.589-1.512-1.372-1.93c-0.718-0.383-1.484-0.558-2.289-0.586c-0.928-0.032-1.835,0.11-2.73,0.345
				c-1.676,0.439-3.238,1.15-4.744,1.99c-2.575,1.437-4.919,3.191-7.062,5.214c-1.046,0.987-2.023,2.037-2.867,3.205
				C33.349,28.467,33.209,28.679,33.065,28.888z"/>
		</g>
	</g>
</g>
</svg>
