<?xml version="1.0" encoding="utf-8"?>
<!-- Generator: Adobe Illustrator 17.0.0, SVG Export Plug-In . SVG Version: 6.00 Build 0)  -->
<!DOCTYPE svg PUBLIC "-//W3C//DTD SVG 1.1//EN" "http://www.w3.org/Graphics/SVG/1.1/DTD/svg11.dtd">
<svg version="1.1" id="Capa_1" xmlns="http://www.w3.org/2000/svg" xmlns:xlink="http://www.w3.org/1999/xlink" x="0px" y="0px"
	 width="64px" height="64px" viewBox="0 0 64 64" enable-background="new 0 0 64 64" xml:space="preserve">
<circle opacity="0.8" fill="#444444" cx="32" cy="32" r="30"/>
<g>
	<g>
		<g>
			<path fill="#FFFFFF" d="M51.478,30.319c0-2.018,0-3.898,0-5.765c-6.45,0-12.806,0-19.149,0c0,1.98,0,3.855,0,5.86
				c2.159,0,4.193,0,6.359,0c0,6.197,0,12.262,0,18.34c2.161,0,4.183,0,6.294,0c0-6.148,0-12.187,0-18.434
				C47.258,30.319,49.363,30.319,51.478,30.319z"/>
		</g>
		<g>
			<path fill="#FFFFFF" d="M37.574,13.625c-0.035-0.078-0.069-0.156-0.104-0.233c-1.417,0-2.833,0-4.319,0
				c-0.492-1.534-0.96-2.994-1.428-4.455c-0.08,0.017-0.159,0.033-0.238,0.05c-0.492,1.446-0.984,2.893-1.5,4.407
				c-1.445,0-2.828,0-4.21,0c-0.023,0.084-0.045,0.168-0.066,0.252c1.122,0.919,2.245,1.839,3.401,2.785
				c-0.466,1.54-0.909,3.005-1.439,4.76c1.481-1.08,2.683-1.956,3.913-2.853c1.279,0.928,2.469,1.792,3.893,2.826
				c-0.505-1.805-0.925-3.308-1.352-4.831C35.323,15.392,36.449,14.509,37.574,13.625z"/>
		</g>
		<g>
			<path fill="#FFFFFF" d="M29.982,35.456c0.709-1.799,0.726-3.665,0.371-5.519c-0.708-3.697-2.992-5.521-6.786-5.517
				c-2.748,0.002-5.495,0.014-8.243,0.021c-0.726,0.002-1.451,0.001-2.249,0.001c0,8.229,0,16.333,0,24.496c2.087,0,4.079,0,6.195,0
				c0-3.028,0-5.98,0-9.139c1.577,0,2.961,0.001,4.345,0C26.589,39.795,28.889,38.229,29.982,35.456z M22.566,29.535
				c1.171,0.27,1.847,1.504,1.761,2.835c-0.085,1.307-0.853,2.249-2.132,2.402c-0.893,0.107-1.809,0.021-2.822,0.021
				c0-1.884,0-3.616,0-5.568C20.504,29.324,21.564,29.305,22.566,29.535z"/>
		</g>
	</g>
</g>
</svg>
