<?xml version="1.0" encoding="utf-8"?>
<!-- Generator: Adobe Illustrator 17.0.0, SVG Export Plug-In . SVG Version: 6.00 Build 0)  -->
<!DOCTYPE svg PUBLIC "-//W3C//DTD SVG 1.1//EN" "http://www.w3.org/Graphics/SVG/1.1/DTD/svg11.dtd">
<svg version="1.1" id="Capa_1" xmlns="http://www.w3.org/2000/svg" xmlns:xlink="http://www.w3.org/1999/xlink" x="0px" y="0px"
	 width="64px" height="64px" viewBox="0 0 64 64" enable-background="new 0 0 64 64" xml:space="preserve">
<circle opacity="0.8" fill="#444444" cx="32" cy="32" r="30"/>
<g>
	<g>
		<g>
			<g>
				<path fill="#FFFFFF" d="M35.583,53.907c-2.343,0-4.653,0-6.99,0c-0.052-0.087-0.116-0.179-0.164-0.279
					c-1.339-2.723-2.675-5.447-4.013-8.171c-1.463-2.978-2.927-5.955-4.392-8.933c-1.946-3.957-3.893-7.914-5.839-11.871
					c-0.118-0.239-0.26-0.468-0.34-0.75c0.095-0.032,0.17-0.064,0.248-0.083c2.479-0.595,4.959-1.183,7.462-1.774
					c0.077,0.16,0.148,0.296,0.209,0.436c1.619,3.718,3.237,7.436,4.855,11.154c1.771,4.069,3.541,8.139,5.312,12.209
					c0.056,0.128,0.12,0.253,0.196,0.411c0.218-0.268,0.286-0.575,0.414-0.851c0.125-0.269,0.236-0.545,0.358-0.831
					c2.915-1.013,5.826-2.025,8.831-3.061C39.653,45.701,37.626,49.789,35.583,53.907z"/>
			</g>
			<g>
				<path fill="#FFFFFF" d="M52.168,34.237c-0.125,0.02-0.253,0.028-0.374,0.061c-3.34,0.911-6.719,1.647-10.127,2.255
					c-2.136,0.38-4.274,0.744-6.413,1.105c-1.818,0.307-3.637,0.601-5.457,0.896c-0.193,0.031-0.391,0.033-0.605,0.05
					c-0.692-1.561-1.376-3.102-2.052-4.625c0.057-0.144,0.169-0.132,0.261-0.14c0.806-0.068,1.611-0.147,2.418-0.191
					c1.772-0.098,3.545-0.088,5.318-0.015c1.432,0.059,2.863,0.142,4.295,0.161c1.986,0.027,3.973,0.031,5.959-0.004
					c1.205-0.021,2.408-0.12,3.611-0.209c0.99-0.073,1.979-0.165,2.965-0.284c0.83-0.1,1.655-0.243,2.48-0.38
					c0.811-0.135,1.62-0.286,2.43-0.427c0.076-0.013,0.157-0.002,0.233-0.002c0.014,0.156-0.098,0.194-0.17,0.249
					c-0.61,0.464-1.214,0.935-1.837,1.381c-3.103,2.222-6.432,4.044-9.924,5.575c-2.326,1.02-4.705,1.905-7.111,2.715
					c-1.935,0.651-3.883,1.262-5.826,1.89c-0.133,0.043-0.263,0.107-0.403,0.089c-0.189-0.272-2.047-4.205-2.436-5.156
					c-0.02-0.049-0.024-0.104-0.042-0.186c0.197-0.039,0.375-0.081,0.554-0.11c2.282-0.367,4.565-0.731,6.847-1.097
					c2.604-0.419,5.198-0.894,7.773-1.469c2.437-0.544,4.85-1.173,7.224-1.949c0.14-0.046,0.309-0.042,0.402-0.191
					c0.172,0.011,0.172,0.011,0.205-0.134c0.067,0.036,0.132,0.087,0.232,0.003c-0.098,0-0.164,0-0.23,0
					C52.301,34.144,52.235,34.191,52.168,34.237z M52.841,34.015l-0.002,0.025l0.033-0.01L52.841,34.015z"/>
			</g>
			<g>
				<path fill="#FFFFFF" d="M36.406,18.228c-0.245,0.604-0.502,1.184-0.617,1.818c-0.068,0.373-0.054,0.739,0.058,1.094
					c0.144,0.459,0.303,0.915,0.484,1.361c0.122,0.3,0.277,0.591,0.448,0.866c0.329,0.528,0.524,1.092,0.592,1.712
					c0.209,1.901,0.013,3.768-0.486,5.605c-0.182,0.67-0.414,1.326-0.625,1.987c-0.03,0.094-0.076,0.182-0.112,0.267
					c-0.336,0.051-7.584,0.058-8.004,0.009c-0.019-0.02-0.047-0.036-0.054-0.059c-0.34-1.067-0.71-2.125-0.98-3.213
					c-0.265-1.068-0.385-2.148-0.322-3.248c0.085-1.48,0.523-2.837,1.403-4.042c0.133-0.182,0.257-0.376,0.356-0.578
					c0.132-0.268,0.208-0.558,0.221-0.86c0.048-1.101,0.286-2.164,0.667-3.194c0.304-0.824,0.619-1.645,0.958-2.456
					c0.158-0.378,0.359-0.742,0.579-1.088c0.657-1.034,1.559-1.75,2.761-2.06c0.513-0.132,1.034-0.173,1.561-0.152
					c0.216,0.009,0.414-0.018,0.617-0.112c0.43-0.2,0.895-0.271,1.365-0.29c1.064-0.043,2.128-0.059,3.191,0.006
					c1.623,0.1,3.209,0.382,4.72,1.011c1.1,0.458,2.092,1.077,2.907,1.958c1.058,1.143,1.631,2.509,1.836,4.039
					c0.028,0.209,0.017,0.425,0.01,0.637c-0.003,0.08-0.037,0.165-0.075,0.238c-0.043,0.082-0.128,0.123-0.216,0.086
					c-0.13-0.055-0.263-0.112-0.375-0.195c-0.442-0.327-0.943-0.506-1.466-0.654c-1.548-0.437-3.12-0.723-4.723-0.852
					c-1.546-0.125-3.09-0.096-4.633,0.038c-0.139,0.012-0.287,0.035-0.41,0.095c-0.395,0.194-0.811,0.245-1.242,0.225
					C36.685,18.224,36.572,18.228,36.406,18.228z M35.516,12.142c-0.118,0.031-0.229,0.054-0.335,0.091
					c-0.483,0.17-0.869,0.476-1.17,0.886c-0.235,0.32-0.46,0.648-0.679,0.979c-1.313,1.994-2.308,4.132-2.917,6.444
					c-0.208,0.791-0.291,1.59-0.13,2.401c0.174,0.878,0.607,1.592,1.389,2.048c1.004,0.586,2.052,0.59,3.106,0.14
					c0.436-0.186,0.742-0.522,0.928-0.955c0.221-0.517,0.308-1.06,0.247-1.622c-0.049-0.454-0.171-0.89-0.334-1.316
					c-0.223-0.58-0.22-1.166-0.016-1.749c0.103-0.294,0.228-0.581,0.338-0.873c0.069-0.184,0.13-0.372,0.193-0.554
					c-0.049-0.062-0.078-0.111-0.118-0.15c-0.399-0.384-0.528-0.866-0.482-1.398c0.025-0.281,0.067-0.566,0.146-0.836
					c0.264-0.906,0.273-1.819,0.12-2.74C35.758,12.675,35.725,12.403,35.516,12.142z M36.3,14.746
					c-0.239,0.459-0.343,0.898-0.397,1.351c-0.035,0.297-0.052,0.594,0.008,0.89c0.145,0.723,0.749,1.104,1.457,0.914
					c0.122-0.033,0.245-0.075,0.357-0.135c0.181-0.097,0.371-0.13,0.573-0.133c0.312-0.004,0.625-0.008,0.936-0.027
					c1.575-0.094,3.147-0.059,4.717,0.098c1.272,0.127,2.529,0.341,3.762,0.68c0.437,0.12,0.87,0.258,1.306,0.382
					c0.072,0.02,0.151,0.014,0.233,0.021c-0.008-0.058-0.003-0.091-0.017-0.111c-0.426-0.587-0.885-1.142-1.454-1.601
					c-0.917-0.739-1.942-1.273-3.052-1.65c-1.477-0.502-3.003-0.727-4.556-0.759c-1.078-0.022-2.156-0.003-3.234,0.006
					C36.728,14.675,36.519,14.72,36.3,14.746z"/>
			</g>
			<g>
				<path fill="#FFFFFF" d="M37.767,33.315c0.047-0.139,0.076-0.244,0.118-0.345c1.406-3.374,4.584-10.609,4.82-10.963
					c2.501,0.581,5.006,1.192,7.515,1.786c0.037,0.009,0.067,0.045,0.098,0.067c-0.118,0.381-4.339,9.083-4.581,9.448
					C45.421,33.355,38.299,33.366,37.767,33.315z"/>
			</g>
			<g>
				<path fill="#FFFFFF" d="M23.993,45.558c-0.247,0.03-0.428,0.06-0.611,0.072c-1.161,0.073-2.323,0.109-3.487,0.061
					c-0.964-0.04-1.926-0.096-2.885-0.206c-2.32-0.268-4.581-0.785-6.76-1.631c-0.435-0.169-0.85-0.389-1.265-0.605
					c-0.44-0.229-0.868-0.481-1.301-0.723c-0.173-0.097-0.332-0.209-0.456-0.403c0.1-0.083,0.214-0.089,0.317-0.103
					c0.491-0.069,0.984-0.13,1.476-0.195c0.998-0.132,1.996-0.265,2.993-0.396c0.956-0.126,1.912-0.25,2.868-0.377
					c0.97-0.128,1.939-0.257,2.909-0.386c1.124-0.149,2.249-0.299,3.373-0.448c0.055-0.007,0.112-0.001,0.193-0.001
					c0.25,0.42,0.443,0.877,0.666,1.317c0.224,0.442,0.437,0.891,0.655,1.337c0.212,0.433,0.425,0.865,0.637,1.298
					C23.53,44.613,23.747,45.057,23.993,45.558z"/>
			</g>
			<g>
				<path fill="#FFFFFF" d="M7.111,41.524c0.019-0.06,0.021-0.138,0.061-0.181c0.171-0.188,0.343-0.378,0.532-0.547
					c1.466-1.318,3.146-2.317,4.879-3.233c1.595-0.842,3.25-1.544,4.966-2.099c0.296-0.096,0.6-0.167,0.902-0.246
					c0.136-0.036,0.275-0.071,0.452-0.002c0.746,1.492,1.492,3.013,2.229,4.511c-0.034,0.053-0.04,0.067-0.05,0.076
					c-0.01,0.009-0.023,0.02-0.036,0.021c-4.54,0.577-9.081,1.154-13.621,1.731c-0.07,0.009-0.141,0.011-0.212,0.01
					C7.187,41.563,7.162,41.544,7.111,41.524z"/>
			</g>
			<g>
				<path fill="#FFFFFF" d="M33.689,14.755c0.006-0.468,0.366-0.821,0.846-0.818c0.463,0.003,0.826,0.297,0.826,0.83
					c0,0.568-0.429,0.864-0.86,0.846C34.038,15.594,33.683,15.222,33.689,14.755z"/>
			</g>
		</g>
	</g>
</g>
</svg>
