<?xml version="1.0" encoding="utf-8"?>
<!-- Generator: Adobe Illustrator 17.0.0, SVG Export Plug-In . SVG Version: 6.00 Build 0)  -->
<!DOCTYPE svg PUBLIC "-//W3C//DTD SVG 1.1//EN" "http://www.w3.org/Graphics/SVG/1.1/DTD/svg11.dtd">
<svg version="1.1" xmlns="http://www.w3.org/2000/svg" xmlns:xlink="http://www.w3.org/1999/xlink" x="0px" y="0px" width="70px"
	 height="70px" viewBox="0 0 70 70" enable-background="new 0 0 70 70" xml:space="preserve">
<g id="Layer_3">
</g>
<g id="Layer_2">
	<rect x="-152.057" y="-657.524" fill="none" stroke="#00FF00" stroke-miterlimit="10" width="799.29" height="1027.268"/>
	<g>
		<circle fill="#EE4455" cx="35" cy="35" r="34.18"/>
		<g>
			<g>
				<path fill="#F1F1F2" d="M51.235,46.377l-6.581-12.976c-0.25-0.577-0.925-0.843-1.509-0.593
					c-0.214,0.094-0.385,0.239-0.503,0.418c-0.206,0.318-0.252,0.724-0.09,1.095l5.882,11.363l-8.001-0.002
					c0.006-0.111,0.051-0.897,0.066-1.234c0.019-0.367-0.317-0.048-0.317-0.048l-2.792,2.068c0,0-0.225,0.176-0.043,0.375
					c0.248,0.272,2.645,2.291,2.645,2.291s0.315,0.349,0.342-0.091c0.018-0.353,0.049-0.878,0.055-1.069l9.8,0.001
					c0.381,0,0.745-0.195,0.957-0.515C51.353,47.136,51.391,46.73,51.235,46.377z"/>
				<path fill="#F1F1F2" d="M34.845,45.9l-12.391,0.01l3.86-7.345c0.092,0.05,0.797,0.404,1.102,0.556
					c0.328,0.161,0.168-0.273,0.168-0.273l-0.788-3.389c0,0-0.068-0.271-0.323-0.186c-0.355,0.117-3.161,1.519-3.161,1.519
					s-0.451,0.149-0.055,0.344c0.322,0.157,0.788,0.394,0.965,0.479l-4.565,8.98c-0.158,0.356-0.118,0.769,0.093,1.093
					c0.21,0.323,0.573,0.517,0.959,0.517l14.136-0.014c0.64,0,1.148-0.51,1.147-1.143c-0.002-0.23-0.067-0.453-0.186-0.63
					C35.603,46.111,35.246,45.9,34.845,45.9z"/>
				<path fill="#F1F1F2" d="M27.425,33.585c0.206,0.13,0.437,0.193,0.672,0.19c0.395,0,0.788-0.186,1.018-0.517l6.028-10.375
					l4.689,6.681c-0.1,0.056-0.821,0.457-1.138,0.629c-0.335,0.184,0.148,0.287,0.148,0.287l3.476,1.195
					c0,0,0.288,0.094,0.359-0.166c0.105-0.363,0.491-3.476,0.491-3.476s0.132-0.457-0.278-0.235
					c-0.325,0.18-0.806,0.445-0.989,0.543l-5.737-8.18c-0.228-0.323-0.612-0.52-1.022-0.517c-0.407,0-0.792,0.197-1.019,0.52
					L27.07,31.998C26.701,32.528,26.86,33.243,27.425,33.585z"/>
			</g>
		</g>
	</g>
</g>
<g id="Capa_4">
</g>
</svg>
