<?xml version="1.0" encoding="utf-8"?>
<!-- Generator: Adobe Illustrator 17.0.0, SVG Export Plug-In . SVG Version: 6.00 Build 0)  -->
<!DOCTYPE svg PUBLIC "-//W3C//DTD SVG 1.1//EN" "http://www.w3.org/Graphics/SVG/1.1/DTD/svg11.dtd">
<svg version="1.1" xmlns="http://www.w3.org/2000/svg" xmlns:xlink="http://www.w3.org/1999/xlink" x="0px" y="0px" width="32px"
	 height="32px" viewBox="0 0 32 32" enable-background="new 0 0 32 32" xml:space="preserve">
<g id="Layer_3">
</g>
<g id="Layer_2">
	<g>
		<circle opacity="0.5" fill="#CCCCCC" cx="16" cy="16" r="15"/>
		<path fill="none" stroke="#666666" stroke-linecap="round" stroke-linejoin="round" stroke-miterlimit="10" d="M20.946,22.023
			c-1.01-1.147-2.77-1.907-4.772-1.907c-1.989,0-3.739,0.75-4.752,1.884"/>
		<g>
			<g>
				
					<line fill="none" stroke="#666666" stroke-linecap="round" stroke-linejoin="round" stroke-miterlimit="10" x1="4.864" y1="13.652" x2="11.636" y2="13.652"/>
				<path fill="#666666" d="M6.841,13.652c0,0.879,0.713,1.592,1.592,1.592c0.879,0,1.592-0.713,1.592-1.592H6.841z"/>
			</g>
			<g>
				
					<line fill="none" stroke="#666666" stroke-linecap="round" stroke-linejoin="round" stroke-miterlimit="10" x1="20.419" y1="13.652" x2="27.191" y2="13.652"/>
				<path fill="#666666" d="M22.577,13.652c0,0.879,0.713,1.592,1.592,1.592c0.879,0,1.592-0.713,1.592-1.592H22.577z"/>
			</g>
		</g>
		<g>
			
				<line fill="none" stroke="#666666" stroke-linecap="round" stroke-linejoin="round" stroke-miterlimit="10" x1="6.776" y1="8.966" x2="12.015" y2="12.304"/>
			
				<line fill="none" stroke="#666666" stroke-linecap="round" stroke-linejoin="round" stroke-miterlimit="10" x1="25.282" y1="8.966" x2="20.043" y2="12.304"/>
		</g>
	</g>
	<rect x="-181.498" y="-131" fill="none" stroke="#00FF00" stroke-miterlimit="10" width="799.29" height="1027.268"/>
</g>
<g id="Capa_4">
</g>
</svg>
