<?xml version="1.0" encoding="utf-8"?>
<!-- Generator: Adobe Illustrator 17.0.0, SVG Export Plug-In . SVG Version: 6.00 Build 0)  -->
<!DOCTYPE svg PUBLIC "-//W3C//DTD SVG 1.1//EN" "http://www.w3.org/Graphics/SVG/1.1/DTD/svg11.dtd">
<svg version="1.1" xmlns="http://www.w3.org/2000/svg" xmlns:xlink="http://www.w3.org/1999/xlink" x="0px" y="0px" width="70px"
	 height="70px" viewBox="0 0 70 70" enable-background="new 0 0 70 70" xml:space="preserve">
<g id="Layer_3">
</g>
<g id="Layer_2">
	<rect x="-233.812" y="-657.524" fill="none" stroke="#00FF00" stroke-miterlimit="10" width="799.29" height="1027.268"/>
	<g>
		<circle fill="#EE4455" cx="35" cy="35" r="34.18"/>
		<g>
			<g>
				<path fill="#F1F1F2" d="M45.56,39.09H18.859v1.985H45.56c1.985,0,3.594,1.616,3.594,3.594c0,1.985-1.609,3.596-3.594,3.596
					H18.859v1.987H45.56c3.074,0,5.581-2.508,5.581-5.583C51.141,41.596,48.634,39.09,45.56,39.09z"/>
				<path fill="#F1F1F2" d="M47.749,44.776c0-1.199-0.97-2.172-2.166-2.172H20.662v4.337h24.921
					C46.778,46.941,47.749,45.971,47.749,44.776z"/>
			</g>
			<g>
				<path fill="#F1F1F2" d="M37.829,24.299c-0.937,0-1.814,0.327-2.574,0.875c0.053-3.218,1.986-4.057,2.075-4.09
					c0.255-0.102,0.378-0.389,0.278-0.641c-0.1-0.256-0.387-0.381-0.641-0.28c-0.11,0.04-2.556,1.048-2.698,4.816
					c-0.682-0.432-1.443-0.679-2.245-0.679c-2.833,0-5.127,3.006-5.127,6.714c0,3.71,2.294,6.718,5.127,6.718
					c1.032,0,4.715,0,5.805,0c2.909,0,5.272-3.009,5.272-6.718C43.101,27.305,40.738,24.299,37.829,24.299z"/>
				<path fill="#F1F1F2" d="M33.399,23.507c0.625-0.656,0.152-2.121-1.055-3.273c-1.205-1.153-2.695-1.56-3.315-0.906
					c-0.63,0.654-0.155,2.118,1.05,3.271C31.289,23.756,32.777,24.161,33.399,23.507z"/>
			</g>
		</g>
	</g>
</g>
<g id="Capa_4">
</g>
</svg>
