<?xml version="1.0" encoding="utf-8"?>
<!-- Generator: Adobe Illustrator 17.0.0, SVG Export Plug-In . SVG Version: 6.00 Build 0)  -->
<!DOCTYPE svg PUBLIC "-//W3C//DTD SVG 1.1//EN" "http://www.w3.org/Graphics/SVG/1.1/DTD/svg11.dtd">
<svg version="1.1" xmlns="http://www.w3.org/2000/svg" xmlns:xlink="http://www.w3.org/1999/xlink" x="0px" y="0px" width="70px"
	 height="70px" viewBox="0 0 70 70" enable-background="new 0 0 70 70" xml:space="preserve">
<g id="Layer_3">
</g>
<g id="Layer_2">
	<rect x="-560.83" y="-577.529" fill="none" stroke="#00FF00" stroke-miterlimit="10" width="799.29" height="1027.268"/>
	<g>
		<circle fill="#D0D2D3" cx="35" cy="35" r="34.18"/>
		<g>
			<g>
				<polygon fill="#F1F1F2" points="24.191,33.213 18.354,33.213 18.354,41.978 24.191,38.775 				"/>
				<polygon fill="#F1F1F2" points="18.354,49.891 24.191,49.891 24.191,44.788 18.354,47.986 				"/>
				<polygon fill="#F1F1F2" points="33.749,27.299 27.914,27.299 27.914,36.739 33.749,33.539 				"/>
				<polygon fill="#F1F1F2" points="27.914,49.891 33.749,49.891 33.749,39.551 27.914,42.749 				"/>
				<polygon fill="#F1F1F2" points="37.745,49.891 43.581,49.891 43.581,34.161 37.745,37.362 				"/>
				<polygon fill="#F1F1F2" points="43.581,20.379 37.745,20.379 37.745,31.348 43.581,28.152 				"/>
				<polygon fill="#F1F1F2" points="45.958,23.363 47.921,27.133 16.374,44.554 16.374,47.562 49.136,29.471 51.188,33.003 
					54.002,25.399 				"/>
			</g>
		</g>
	</g>
</g>
<g id="Capa_4">
</g>
</svg>
