<?xml version="1.0" encoding="utf-8"?>
<!-- Generator: Adobe Illustrator 17.0.0, SVG Export Plug-In . SVG Version: 6.00 Build 0)  -->
<!DOCTYPE svg PUBLIC "-//W3C//DTD SVG 1.1//EN" "http://www.w3.org/Graphics/SVG/1.1/DTD/svg11.dtd">
<svg version="1.1" xmlns="http://www.w3.org/2000/svg" xmlns:xlink="http://www.w3.org/1999/xlink" x="0px" y="0px" width="70px"
	 height="70px" viewBox="0 0 70 70" enable-background="new 0 0 70 70" xml:space="preserve">
<g id="Layer_3">
</g>
<g id="Layer_2">
	<rect x="-479.075" y="-657.524" fill="none" stroke="#00FF00" stroke-miterlimit="10" width="799.29" height="1027.268"/>
	<g>
		<circle fill="#EE4455" cx="35" cy="35" r="34.18"/>
		<g>
			<g>
				<path fill="#F1F1F2" d="M46.845,28.579h-8.527c1.175,1.046,2.172,2.276,2.958,3.645h5.569c1.011,0,1.826-0.814,1.826-1.827
					C48.671,29.397,47.857,28.579,46.845,28.579L46.845,28.579z M46.845,28.579"/>
				<path fill="#F1F1F2" d="M46.845,33.174h-5.076c0.546,1.142,0.953,2.361,1.186,3.643h3.89c1.011,0,1.826-0.815,1.826-1.825
					C48.671,33.991,47.857,33.174,46.845,33.174L46.845,33.174z M46.845,33.174"/>
				<path fill="#F1F1F2" d="M46.845,23.987h-13.49c-0.787,0-1.45,0.495-1.7,1.187c2.012,0.43,3.873,1.286,5.486,2.458h9.703
					c1.011,0,1.826-0.82,1.826-1.823C48.671,24.799,47.857,23.987,46.845,23.987L46.845,23.987z M46.845,23.987"/>
				<path fill="#F1F1F2" d="M33.356,23.034h13.49c1.011,0,1.826-0.812,1.826-1.825c0-1.001-0.814-1.819-1.826-1.819h-13.49
					c-1.006,0-1.825,0.818-1.825,1.826C31.531,22.221,32.35,23.034,33.356,23.034L33.356,23.034z M33.356,23.034"/>
				<path fill="#F1F1F2" d="M46.845,37.769h-3.744c0.059,0.547,0.099,1.103,0.099,1.669c0,0.671-0.058,1.325-0.144,1.976h3.789
					c1.011,0,1.826-0.82,1.826-1.826C48.671,38.582,47.857,37.769,46.845,37.769L46.845,37.769z M46.845,37.769"/>
				<path fill="#F1F1F2" d="M46.845,42.36h-3.937c-0.265,1.291-0.709,2.506-1.29,3.645h5.226c1.011,0,1.826-0.816,1.826-1.818
					C48.671,43.179,47.857,42.36,46.845,42.36L46.845,42.36z M46.845,42.36"/>
				<path fill="#F1F1F2" d="M46.845,46.955h-5.751c-0.838,1.38-1.879,2.61-3.111,3.644h8.862c1.011,0,1.826-0.813,1.826-1.823
					C48.671,47.772,47.857,46.955,46.845,46.955L46.845,46.955z M46.845,46.955"/>
				<path fill="#F1F1F2" d="M28.622,26.68c-7.034,0-12.757,5.727-12.757,12.759c0,7.032,5.722,12.753,12.757,12.753
					c7.038,0,12.759-5.721,12.759-12.753C41.381,32.407,35.661,26.68,28.622,26.68L28.622,26.68z M28.622,48.548
					c-5.021,0-9.111-4.084-9.111-9.109c0-5.025,4.09-9.115,9.111-9.115c5.026,0,9.114,4.09,9.114,9.115
					C37.736,44.463,33.648,48.548,28.622,48.548L28.622,48.548z M28.622,48.548"/>
				<path fill="#F1F1F2" d="M29.154,38.206v-3.149c1.838,0.032,1.818,1.807,2.897,1.807c0.563,0,1.049-0.382,1.049-1.029
					c0-1.626-2.655-2.432-3.947-2.471v-0.88c0-0.279-0.216-0.563-0.5-0.563c-0.28,0-0.495,0.284-0.495,0.563v0.88
					c-2.065,0.069-3.941,1.232-3.941,3.48c0,1.839,1.484,2.918,3.941,3.365v3.465c-2.757-0.116-1.311-2.4-3.167-2.4
					c-0.622,0-1.026,0.384-1.026,1.042c0,1.311,1.389,2.984,4.193,3.048v1.025c0,0.284,0.215,0.567,0.495,0.567
					c0.284,0,0.5-0.284,0.5-0.567v-1.025c2.468-0.146,4.129-1.274,4.129-3.497C33.283,39.32,31.344,38.673,29.154,38.206
					L29.154,38.206z M28.16,38.025c-1.242-0.249-1.86-0.728-1.86-1.56c0-0.712,0.73-1.376,1.86-1.409V38.025z M29.154,43.673v-3.282
					c0.896,0.198,2.04,0.53,2.04,1.659C31.194,43.142,30.15,43.609,29.154,43.673L29.154,43.673z M29.154,43.673"/>
			</g>
		</g>
	</g>
</g>
<g id="Capa_4">
</g>
</svg>
