<?xml version="1.0" encoding="utf-8"?>
<!-- Generator: Adobe Illustrator 17.0.0, SVG Export Plug-In . SVG Version: 6.00 Build 0)  -->
<!DOCTYPE svg PUBLIC "-//W3C//DTD SVG 1.1//EN" "http://www.w3.org/Graphics/SVG/1.1/DTD/svg11.dtd">
<svg version="1.1" xmlns="http://www.w3.org/2000/svg" xmlns:xlink="http://www.w3.org/1999/xlink" x="0px" y="0px" width="47px"
	 height="47px" viewBox="0 0 47 47" enable-background="new 0 0 47 47" xml:space="preserve">
<g id="Layer_3">
</g>
<g id="Layer_2">
	<rect x="-655.896" y="-919.77" fill="none" stroke="#00FF00" stroke-miterlimit="10" width="799.29" height="1027.268"/>
	<g>
		<g>
			<g>
				<path fill="#343434" d="M15.599,10.379c5.563,0,12.886,3.281,12.886,9.024c0,5.743-3.601,10.225-14.766,10.225
					c-3.802,4.122-7.283,4.522-7.283,4.522s3.199-4.404,1.441-5.723c0,0-5.322-2.961-5.322-8.924
					C2.553,13.54,10.037,10.379,15.599,10.379 M15.599,8.825C9.712,8.825,1,12.219,1,19.503c0,6.062,4.669,9.378,5.856,10.123
					c0.038,0.615-0.75,2.328-1.679,3.612c-0.361,0.499-0.393,1.164-0.083,1.696c0.281,0.48,0.793,0.769,1.34,0.769
					c0.059,0,0.118-0.003,0.177-0.01c0.159-0.018,3.809-0.481,7.777-4.517c12.912-0.209,15.649-6.49,15.649-11.772
					C30.038,12.501,21.652,8.825,15.599,8.825L15.599,8.825z"/>
			</g>
			<g>
				<path fill="#343434" d="M21.682,25.016H9.257c-0.572,0-1.036-0.428-1.036-1s0.464-1,1.036-1h12.426c0.572,0,1.035,0.428,1.035,1
					S22.254,25.016,21.682,25.016z"/>
			</g>
			<g>
				<path fill="#343434" d="M21.682,21.016H9.257c-0.572,0-1.036-0.428-1.036-1s0.464-1,1.036-1h12.426c0.572,0,1.035,0.428,1.035,1
					S22.254,21.016,21.682,21.016z"/>
			</g>
			<g>
				<path fill="#343434" d="M21.682,17.016H9.257c-0.572,0-1.036-0.428-1.036-1c0-0.572,0.464-1,1.036-1h12.426
					c0.572,0,1.035,0.428,1.035,1C22.718,16.588,22.254,17.016,21.682,17.016z"/>
			</g>
		</g>
		<g>
			<g>
				<path fill="#343434" d="M46,24.778c0-6.092-7.619-8.931-12.769-8.931c-0.705,0-1.427,0.072-2.15,0.173
					c0.274,0.454,0.421,0.97,0.485,1.508c0.566-0.073,1.127-0.128,1.665-0.128c4.782,0,11.215,2.556,11.215,7.378
					s-4.576,7.216-4.576,7.216c-1.512,1.066,1.238,4.627,1.238,4.627s-2.993-0.324-6.261-3.656c-4.915,0-8.116-0.954-10.079-2.505
					c-0.499,0.289-1.036,0.519-1.607,0.688c1.994,1.897,5.4,3.268,11.045,3.364c3.44,3.262,6.597,3.638,6.735,3.653
					c0.056,0.006,0.112,0.009,0.167,0.009c0.558,0,1.078-0.3,1.355-0.794c0.304-0.543,0.255-1.216-0.126-1.708
					c-0.657-0.855-1.252-1.983-1.354-2.53C42.238,32.365,46,29.629,46,24.778z"/>
			</g>
			<g>
				<path fill="#343434" d="M37.215,30.016h-8.284c-0.572,0-1.035-0.428-1.035-1s0.464-1,1.035-1h8.284c0.572,0,1.035,0.428,1.035,1
					S37.786,30.016,37.215,30.016z"/>
			</g>
			<g>
				<path fill="#343434" d="M37.215,24.034h-6.296c-0.17,0.565-0.395,1.121-0.697,1.665c-0.078,0.14-0.169,0.272-0.256,0.406h7.249
					c0.572,0,1.035-0.463,1.035-1.035C38.25,24.497,37.786,24.034,37.215,24.034z"/>
			</g>
			<g>
				<path fill="#343434" d="M37.215,19.892h-5.787c-0.008,0.699-0.039,1.39-0.111,2.071h5.898c0.572,0,1.035-0.463,1.035-1.035
					C38.25,20.355,37.786,19.892,37.215,19.892z"/>
			</g>
		</g>
	</g>
</g>
<g id="Capa_4">
</g>
</svg>
