<?xml version="1.0" encoding="utf-8"?>
<!-- Generator: Adobe Illustrator 17.0.0, SVG Export Plug-In . SVG Version: 6.00 Build 0)  -->
<!DOCTYPE svg PUBLIC "-//W3C//DTD SVG 1.1//EN" "http://www.w3.org/Graphics/SVG/1.1/DTD/svg11.dtd">
<svg version="1.1" xmlns="http://www.w3.org/2000/svg" xmlns:xlink="http://www.w3.org/1999/xlink" x="0px" y="0px" width="70px"
	 height="70px" viewBox="0 0 70 70" enable-background="new 0 0 70 70" xml:space="preserve">
<g id="Layer_3">
</g>
<g id="Layer_2">
	<rect x="-315.565" y="-657.524" fill="none" stroke="#00FF00" stroke-miterlimit="10" width="799.29" height="1027.268"/>
	<g>
		<circle fill="#EE4455" cx="35" cy="35" r="34.18"/>
		<g>
			<g>
				<polygon fill="#F1F1F2" points="20.725,30.979 21.735,32.886 21.755,32.886 21.755,44.288 25.645,44.288 25.645,32.886 
					25.609,32.886 26.677,30.979 				"/>
				<polygon fill="#F1F1F2" points="28.373,30.979 29.381,32.886 29.403,32.886 29.403,44.288 33.293,44.288 33.293,32.886 
					33.253,32.886 34.324,30.979 				"/>
				<polygon fill="#F1F1F2" points="36.017,30.979 37.032,32.886 37.049,32.886 37.049,44.288 40.941,44.288 40.941,32.886 
					40.906,32.886 41.972,30.979 				"/>
				<polygon fill="#F1F1F2" points="43.667,30.979 44.678,32.886 44.696,32.886 44.696,44.288 48.585,44.288 48.585,32.886 
					48.55,32.886 49.618,30.979 				"/>
				<path fill="#F1F1F2" d="M35.251,19.423l-15.455,9.613c0.082,0,30.744,0,30.744,0L35.251,19.423z M35.169,27.167
					c-1.05,0-1.907-0.854-1.907-1.911c0-1.05,0.857-1.905,1.907-1.905c1.057,0,1.912,0.854,1.912,1.905
					C37.081,26.312,36.226,27.167,35.169,27.167z"/>
				<polygon fill="#F1F1F2" points="49.591,46.351 20.792,46.351 19.783,50.168 50.564,50.168 				"/>
			</g>
		</g>
	</g>
</g>
<g id="Capa_4">
</g>
</svg>
