<?xml version="1.0" encoding="utf-8"?>
<!-- Generator: Adobe Illustrator 18.0.0, SVG Export Plug-In . SVG Version: 6.00 Build 0)  -->
<!DOCTYPE svg PUBLIC "-//W3C//DTD SVG 1.1//EN" "http://www.w3.org/Graphics/SVG/1.1/DTD/svg11.dtd">
<svg version="1.1" xmlns="http://www.w3.org/2000/svg" xmlns:xlink="http://www.w3.org/1999/xlink" x="0px" y="0px"
	 viewBox="0 0 190 190" enable-background="new 0 0 190 190" xml:space="preserve">
<g id="Guías_para_la_mesa_de_trabajo">
</g>
<g id="Capa_1">
	<g>
		<g>
			<defs>
				<circle id="SVGID_3_" cx="95" cy="95" r="93"/>
			</defs>
			<clipPath id="SVGID_2_">
				<use xlink:href="#SVGID_3_"  overflow="visible"/>
			</clipPath>
			<rect x="0.7" y="0.7" clip-path="url(#SVGID_2_)" fill="#EE4433" width="188.6" height="188.6"/>
		</g>
		<g>
			<path fill="#FFFFFF" d="M139.5,89.7c0,5.4-1.1,10-3.2,13.7c-2.2,3.7-5,6.7-8.6,8.9c-3.6,2.2-7.6,3.9-12.1,4.8
				c-4.5,1-9.2,1.5-14,1.5H61.9V19.2h39.6c3.8,0,7.8,0.4,11.8,1.2c4,0.8,7.7,2.2,11,4.1c3.3,1.9,5.9,4.5,8,7.8
				c2.1,3.3,3.1,7.4,3.1,12.5c0,5.5-1.5,10.1-4.5,13.7c-3,3.6-6.9,6.2-11.8,7.8v0.3c2.8,0.5,5.5,1.3,7.9,2.6
				c2.5,1.3,4.6,2.9,6.5,4.8c1.8,2,3.3,4.3,4.4,6.9C138.9,83.5,139.5,86.4,139.5,89.7z M112.2,48c0-3.4-1.3-5.8-3.9-7.4
				c-2.6-1.5-6.4-2.3-11.4-2.3H85.1v20.5H98c4.5,0,8-0.9,10.5-2.7C111,54.2,112.2,51.5,112.2,48z M115.5,87.4c0-4.1-1.6-7-4.6-8.6
				c-3.1-1.6-7.2-2.4-12.4-2.4H85.1v22.8h13.5c1.9,0,3.8-0.2,5.8-0.5c2-0.3,3.8-0.9,5.5-1.8c1.6-0.8,3-2,4-3.6
				S115.5,89.9,115.5,87.4z"/>
		</g>
		<g>
			<path fill="#FFFFFF" d="M37.7,128.1h5.7c1,0,2,0.1,2.8,0.3c0.8,0.2,1.5,0.5,2.1,1c0.6,0.4,1.1,1,1.4,1.7c0.3,0.7,0.5,1.5,0.5,2.4
				s-0.2,1.7-0.5,2.4c-0.3,0.7-0.8,1.2-1.4,1.7c-0.6,0.4-1.3,0.8-2.2,1c-0.8,0.2-1.8,0.3-2.8,0.3h-3.6v9.3h-2V128.1z M39.7,137.1
				h3.5c1.6,0,2.8-0.3,3.7-0.9c0.8-0.6,1.2-1.5,1.2-2.7c0-1.2-0.4-2.2-1.3-2.7c-0.9-0.6-2.1-0.9-3.6-0.9h-3.5V137.1z"/>
			<path fill="#FFFFFF" d="M74,138.1c0,1.5-0.3,2.9-0.8,4.2c-0.5,1.3-1.3,2.4-2.2,3.3c-0.9,0.9-2,1.7-3.3,2.2
				c-1.3,0.5-2.7,0.8-4.2,0.8c-1.5,0-2.9-0.3-4.2-0.8c-1.3-0.5-2.4-1.3-3.3-2.2c-0.9-0.9-1.7-2-2.2-3.3c-0.5-1.3-0.8-2.7-0.8-4.2
				c0-1.5,0.3-2.9,0.8-4.2c0.5-1.3,1.3-2.4,2.2-3.3c0.9-0.9,2-1.7,3.3-2.2c1.3-0.5,2.7-0.8,4.2-0.8c1.5,0,2.9,0.3,4.2,0.8
				c1.3,0.5,2.4,1.3,3.3,2.2c0.9,0.9,1.7,2.1,2.2,3.3C73.8,135.2,74,136.6,74,138.1z M71.9,138.2c0-1.2-0.2-2.3-0.6-3.3
				c-0.4-1.1-0.9-2-1.6-2.8c-0.7-0.8-1.6-1.4-2.6-1.9c-1-0.5-2.2-0.7-3.5-0.7c-1.3,0-2.4,0.2-3.5,0.7c-1,0.5-1.9,1.1-2.6,1.9
				c-0.7,0.8-1.3,1.7-1.6,2.8c-0.4,1.1-0.6,2.2-0.6,3.3c0,1.2,0.2,2.3,0.6,3.3c0.4,1.1,0.9,2,1.6,2.8c0.7,0.8,1.6,1.4,2.6,1.9
				c1,0.5,2.2,0.7,3.5,0.7c1.3,0,2.4-0.2,3.5-0.7c1-0.5,1.9-1.1,2.6-1.9c0.7-0.8,1.3-1.7,1.6-2.8C71.7,140.4,71.9,139.3,71.9,138.2z
				"/>
			<path fill="#FFFFFF" d="M80.3,146.4h9.4v1.8H78.3v-20.1h2V146.4z"/>
			<path fill="#FFFFFF" d="M94.5,126.5h-1.7l2.8-2.3h2.6L94.5,126.5z M94.8,148.2h-2v-20.1h2V148.2z"/>
			<path fill="#FFFFFF" d="M106.6,148.2h-2v-18.3h-6.7v-1.8h15.5v1.8h-6.7V148.2z"/>
			<path fill="#FFFFFF" d="M118.4,148.2h-2v-20.1h2V148.2z"/>
			<path fill="#FFFFFF" d="M140.7,144.9c-0.3,0.5-0.8,1-1.2,1.5c-0.5,0.5-1,0.9-1.7,1.2c-0.6,0.3-1.3,0.6-2.1,0.8
				c-0.8,0.2-1.6,0.3-2.5,0.3c-1.5,0-2.9-0.3-4.2-0.8c-1.3-0.5-2.4-1.3-3.3-2.2c-0.9-0.9-1.7-2-2.2-3.3c-0.5-1.3-0.8-2.7-0.8-4.2
				c0-1.5,0.3-2.9,0.8-4.2c0.5-1.3,1.3-2.4,2.2-3.3c0.9-0.9,2-1.7,3.3-2.2c1.3-0.5,2.7-0.8,4.2-0.8c0.7,0,1.5,0.1,2.2,0.2
				c0.7,0.2,1.4,0.4,2,0.6c0.6,0.3,1.2,0.6,1.7,1c0.5,0.4,0.9,0.8,1.3,1.3l-1.7,1.2c-0.2-0.3-0.5-0.6-0.8-1
				c-0.4-0.3-0.8-0.6-1.2-0.9c-0.5-0.2-1-0.4-1.5-0.6c-0.6-0.2-1.2-0.2-1.8-0.2c-1.3,0-2.5,0.2-3.5,0.7c-1,0.5-1.9,1.1-2.6,1.9
				c-0.7,0.8-1.3,1.7-1.6,2.8c-0.4,1.1-0.6,2.2-0.6,3.3c0,1.2,0.2,2.3,0.6,3.3c0.4,1.1,0.9,2,1.7,2.8c0.7,0.8,1.6,1.4,2.6,1.9
				c1,0.5,2.2,0.7,3.5,0.7c1.2,0,2.3-0.2,3.3-0.7c1-0.5,1.9-1.2,2.6-2.3L140.7,144.9z"/>
			<path fill="#FFFFFF" d="M163.7,138.1c0,1.5-0.3,2.9-0.8,4.2c-0.5,1.3-1.3,2.4-2.2,3.3c-0.9,0.9-2,1.7-3.3,2.2
				c-1.3,0.5-2.7,0.8-4.2,0.8c-1.5,0-2.9-0.3-4.2-0.8c-1.3-0.5-2.4-1.3-3.3-2.2c-0.9-0.9-1.7-2-2.2-3.3c-0.5-1.3-0.8-2.7-0.8-4.2
				c0-1.5,0.3-2.9,0.8-4.2c0.5-1.3,1.3-2.4,2.2-3.3c0.9-0.9,2-1.7,3.3-2.2c1.3-0.5,2.7-0.8,4.2-0.8c1.5,0,2.9,0.3,4.2,0.8
				c1.3,0.5,2.4,1.3,3.3,2.2c0.9,0.9,1.7,2.1,2.2,3.3C163.5,135.2,163.7,136.6,163.7,138.1z M161.6,138.2c0-1.2-0.2-2.3-0.6-3.3
				c-0.4-1.1-0.9-2-1.6-2.8c-0.7-0.8-1.6-1.4-2.6-1.9c-1-0.5-2.2-0.7-3.5-0.7c-1.3,0-2.4,0.2-3.5,0.7c-1,0.5-1.9,1.1-2.6,1.9
				c-0.7,0.8-1.3,1.7-1.6,2.8c-0.4,1.1-0.6,2.2-0.6,3.3c0,1.2,0.2,2.3,0.6,3.3c0.4,1.1,0.9,2,1.6,2.8c0.7,0.8,1.6,1.4,2.6,1.9
				c1,0.5,2.2,0.7,3.5,0.7c1.3,0,2.4-0.2,3.5-0.7c1-0.5,1.9-1.1,2.6-1.9c0.7-0.8,1.3-1.7,1.6-2.8
				C161.4,140.4,161.6,139.3,161.6,138.2z"/>
		</g>
	</g>
</g>
</svg>
