<?xml version="1.0" encoding="utf-8"?>
<!-- Generator: Adobe Illustrator 18.0.0, SVG Export Plug-In . SVG Version: 6.00 Build 0)  -->
<!DOCTYPE svg PUBLIC "-//W3C//DTD SVG 1.1//EN" "http://www.w3.org/Graphics/SVG/1.1/DTD/svg11.dtd">
<svg version="1.1" xmlns="http://www.w3.org/2000/svg" xmlns:xlink="http://www.w3.org/1999/xlink" x="0px" y="0px"
	 viewBox="0 0 190 190" enable-background="new 0 0 190 190" xml:space="preserve">
<g id="Guías_para_la_mesa_de_trabajo">
</g>
<g id="Capa_1">
	<g>
		<defs>
			<circle id="SVGID_7_" cx="95" cy="95" r="93"/>
		</defs>
		<clipPath id="SVGID_2_">
			<use xlink:href="#SVGID_7_"  overflow="visible"/>
		</clipPath>
		<rect x="0.7" y="0.7" clip-path="url(#SVGID_2_)" width="188.6" height="188.6"/>
	</g>
	<g>
		<g id="XMLID_23_">
			<g id="XMLID_26_">
				<polygon fill="#FFFFFF" points="178.2,104.4 178.2,111.2 155.1,111.2 155.1,78.1 178.2,78.1 178.2,84.8 162.9,84.8 162.9,91.1 
					176.6,91.1 176.6,97.5 162.9,97.5 162.9,104.4 				"/>
				<path fill="#FFFFFF" d="M130.9,78.1c2.3,0,4.6,0.3,6.9,0.8c2.3,0.5,4.3,1.4,6.1,2.7c1.8,1.3,3.2,3,4.3,5.1
					c1.1,2.1,1.6,4.7,1.6,7.9c0,2.9-0.5,5.4-1.6,7.5c-1.1,2.1-2.5,3.8-4.3,5.2c-1.8,1.4-3.7,2.4-6,3c-2.2,0.6-4.5,1-6.7,1h-12.3
					V78.1H130.9z M141.5,94.5c0-1.9-0.3-3.4-0.9-4.7c-0.6-1.2-1.4-2.2-2.4-2.9c-1-0.7-2.2-1.3-3.5-1.6s-2.6-0.5-4-0.5h-4v19.4h3.8
					c1.4,0,2.8-0.2,4.1-0.5c1.3-0.3,2.5-0.9,3.5-1.6c1-0.7,1.8-1.7,2.4-3C141.2,97.9,141.5,96.4,141.5,94.5z"/>
				<path fill="#FFFFFF" d="M112.2,83.3c0.7,1.3,1.1,2.9,1.1,4.8c0,2.2-0.6,4.1-1.8,5.7c-1.2,1.5-2.9,2.6-5.1,3.3l8.7,14.2h-9.4
					L98.5,98h-2.8v-5.8h3.8c0.7,0,1.3-0.1,2-0.2c0.7-0.1,1.3-0.3,1.9-0.6c0.6-0.3,1-0.7,1.4-1.2c0.4-0.5,0.5-1.2,0.5-2.1
					c0-0.8-0.2-1.4-0.5-1.9c-0.3-0.5-0.8-0.9-1.3-1.1c-0.5-0.3-1.1-0.4-1.7-0.5c-0.6-0.1-1.3-0.1-1.9-0.1h-4.3v-6.5h4.8
					c1.6,0,3.1,0.2,4.7,0.5c1.5,0.3,2.9,0.9,4.1,1.7C110.5,81,111.4,82,112.2,83.3z"/>
				<g>
					<path fill="#FFFFFF" d="M84.5,78.1v33.1H61.2c2.5,0,4.7-0.4,6.8-1.2c2.1-0.8,3.9-1.9,5.4-3.4c1.5-1.5,2.7-3.2,3.6-5.3
						c0.9-2.1,1.3-4.3,1.3-6.8c0-2.5-0.4-4.8-1.3-6.8c-0.9-2-2-3.7-3.6-5.2C72,81.1,70.1,80,68,79.2c-2.1-0.8-4.4-1.2-6.8-1.2H84.5z
						"/>
					<path fill="#FFFFFF" d="M68.9,91c0.4,1.1,0.6,2.3,0.6,3.5c0,1.3-0.2,2.5-0.6,3.6c-0.4,1.1-1,2.1-1.7,2.9
						c-0.7,0.8-1.6,1.4-2.6,1.9c-1,0.5-2.1,0.7-3.4,0.7c-1.2,0-2.4-0.2-3.4-0.7c-1-0.5-1.9-1.1-2.6-1.9c-0.7-0.8-1.3-1.7-1.7-2.9
						c-0.4-1.1-0.6-2.3-0.6-3.6c0-1.3,0.2-2.4,0.6-3.5c0.4-1.1,1-2,1.7-2.8c0.7-0.8,1.6-1.4,2.6-1.9c1-0.5,2.1-0.7,3.4-0.7
						c1.2,0,2.4,0.2,3.4,0.7c1,0.5,1.9,1.1,2.6,1.9C68,88.9,68.5,89.9,68.9,91z"/>
					<path fill="#FFFFFF" d="M26.8,78.1h34.4c-2.5,0-4.7,0.4-6.8,1.2c-2.1,0.8-3.9,1.9-5.4,3.3c-1.5,1.4-2.7,3.1-3.6,5.2
						c-0.9,2-1.3,4.3-1.3,6.8c0,2.5,0.4,4.8,1.3,6.8c0.9,2.1,2,3.8,3.6,5.3c1.5,1.5,3.3,2.6,5.4,3.4c2.1,0.8,4.4,1.2,6.8,1.2H26.8
						c1.6,0,3.1-0.2,4.7-0.5c1.5-0.3,2.9-0.9,4-1.6c1.2-0.7,2.1-1.7,2.9-3c0.7-1.2,1.1-2.8,1.1-4.6c0-1.1-0.2-2.1-0.5-2.9
						c-0.4-0.9-0.8-1.6-1.5-2.3c-0.6-0.7-1.3-1.2-2.2-1.6c-0.8-0.4-1.7-0.7-2.6-0.9v-0.1c1.6-0.5,2.9-1.4,3.9-2.6
						c1-1.2,1.5-2.7,1.5-4.6c0-1.7-0.3-3.1-1-4.2c-0.7-1.1-1.6-2-2.7-2.6c-1.1-0.6-2.3-1.1-3.6-1.4C29.4,78.2,28.1,78.1,26.8,78.1z"
						/>
					<path fill="#FFFFFF" d="M31.5,100.8c0,0.8-0.2,1.5-0.5,2c-0.3,0.5-0.8,0.9-1.3,1.2c-0.5,0.3-1.2,0.5-1.8,0.6
						c-0.7,0.1-1.3,0.2-1.9,0.2h-4.5v-7.6h4.4c1.7,0,3.1,0.3,4.1,0.8C31,98.5,31.5,99.4,31.5,100.8z"/>
					<path fill="#FFFFFF" d="M30.4,87.7c0,1.2-0.4,2.1-1.2,2.7c-0.8,0.6-2,0.9-3.5,0.9h-4.3v-6.8h3.9c1.7,0,3,0.3,3.8,0.8
						C30,85.7,30.4,86.5,30.4,87.7z"/>
				</g>
			</g>
		</g>
		<rect x="94" y="2" fill="#FFFFFF" width="2" height="186"/>
	</g>
</g>
</svg>
