<?xml version="1.0" encoding="utf-8"?>
<!-- Generator: Adobe Illustrator 18.0.0, SVG Export Plug-In . SVG Version: 6.00 Build 0)  -->
<!DOCTYPE svg PUBLIC "-//W3C//DTD SVG 1.1//EN" "http://www.w3.org/Graphics/SVG/1.1/DTD/svg11.dtd">
<svg version="1.1" xmlns="http://www.w3.org/2000/svg" xmlns:xlink="http://www.w3.org/1999/xlink" x="0px" y="0px"
	 viewBox="0 0 190 190" enable-background="new 0 0 190 190" xml:space="preserve">
<g id="Guías_para_la_mesa_de_trabajo">
</g>
<g id="Capa_1">
	<g>
		<g>
			<defs>
				<circle id="SVGID_5_" cx="95" cy="95" r="93"/>
			</defs>
			<clipPath id="SVGID_2_">
				<use xlink:href="#SVGID_5_"  overflow="visible"/>
			</clipPath>
			<rect x="0.7" y="0.7" clip-path="url(#SVGID_2_)" fill="#FFBB33" width="188.6" height="188.6"/>
		</g>
		<g>
			<path fill="#FFFFFF" d="M139.5,89.7c0,5.4-1.1,10-3.2,13.7c-2.2,3.7-5,6.7-8.6,8.9c-3.6,2.2-7.6,3.9-12.1,4.8
				c-4.5,1-9.2,1.5-14,1.5H61.9V19.2h39.6c3.8,0,7.8,0.4,11.8,1.2c4,0.8,7.7,2.2,11,4.1c3.3,1.9,5.9,4.5,8,7.8
				c2.1,3.3,3.1,7.4,3.1,12.5c0,5.5-1.5,10.1-4.5,13.7c-3,3.6-6.9,6.2-11.8,7.8v0.3c2.8,0.5,5.5,1.3,7.9,2.6
				c2.5,1.3,4.6,2.9,6.5,4.8c1.8,2,3.3,4.3,4.4,6.9C138.9,83.5,139.5,86.4,139.5,89.7z M112.2,48c0-3.4-1.3-5.8-3.9-7.4
				c-2.6-1.5-6.4-2.3-11.4-2.3H85.1v20.5H98c4.5,0,8-0.9,10.5-2.7C111,54.2,112.2,51.5,112.2,48z M115.5,87.4c0-4.1-1.6-7-4.6-8.6
				c-3.1-1.6-7.2-2.4-12.4-2.4H85.1v22.8h13.5c1.9,0,3.8-0.2,5.8-0.5c2-0.3,3.8-0.9,5.5-1.8c1.6-0.8,3-2,4-3.6
				S115.5,89.9,115.5,87.4z"/>
		</g>
		<text transform="matrix(1 0 0 1 30.9797 148.4174)" fill="#FFFFFF" font-family="'AvenirNext-Regular'" font-size="28.7854">JURÍDICO</text>
	</g>
</g>
</svg>
