<?xml version="1.0" encoding="utf-8"?>
<!-- Generator: Adobe Illustrator 17.0.0, SVG Export Plug-In . SVG Version: 6.00 Build 0)  -->
<!DOCTYPE svg PUBLIC "-//W3C//DTD SVG 1.1//EN" "http://www.w3.org/Graphics/SVG/1.1/DTD/svg11.dtd">
<svg version="1.1" xmlns="http://www.w3.org/2000/svg" xmlns:xlink="http://www.w3.org/1999/xlink" x="0px" y="0px"
	 width="130.828px" height="80px" viewBox="0 0 130.828 80" enable-background="new 0 0 130.828 80" xml:space="preserve">
<g id="Layer_3">
</g>
<g id="Layer_2">
	<g>
		<defs>
			<rect id="SVGID_1_" x="131.167" y="127.171" width="1802.309" height="523.741"/>
		</defs>
		<clipPath id="SVGID_2_">
			<use xlink:href="#SVGID_1_"  overflow="visible"/>
		</clipPath>
		<g clip-path="url(#SVGID_2_)">
			<rect x="10.013" y="-67.596" opacity="0.75" fill="#EE4455" width="2014.504" height="965.851"/>
		</g>
	</g>
	<g>
		<g id="XMLID_7_">
			<g id="XMLID_8_">
				<polygon fill="#FFFFFF" points="130.828,47.167 130.828,52.626 112.355,52.626 112.355,26.152 130.828,26.152 130.828,31.537 
					118.525,31.537 118.525,36.547 129.52,36.547 129.52,41.67 118.525,41.67 118.525,47.167 				"/>
				<path fill="#FFFFFF" d="M92.986,26.152c1.87,0,3.714,0.219,5.535,0.654c1.819,0.437,3.44,1.159,4.861,2.169
					c1.421,1.009,2.567,2.362,3.44,4.057c0.873,1.696,1.309,3.79,1.309,6.282c0,2.319-0.43,4.319-1.29,6.002
					c-0.861,1.682-1.995,3.066-3.403,4.151c-1.409,1.084-2.998,1.882-4.768,2.393c-1.77,0.511-3.566,0.766-5.384,0.766h-9.873
					V26.152H92.986z M101.475,39.314c0-1.495-0.243-2.735-0.73-3.72c-0.486-0.984-1.134-1.77-1.944-2.356
					c-0.81-0.585-1.732-1.003-2.767-1.253c-1.035-0.249-2.101-0.374-3.197-0.374h-3.178v15.481h3.029
					c1.147,0,2.249-0.131,3.31-0.393c1.059-0.262,1.994-0.692,2.804-1.291c0.81-0.598,1.459-1.395,1.944-2.393
					C101.231,42.019,101.475,40.785,101.475,39.314z"/>
				<path fill="#FFFFFF" d="M77.991,30.34c0.573,1.022,0.86,2.294,0.86,3.814c0,1.795-0.486,3.304-1.458,4.524
					c-0.973,1.222-2.319,2.094-4.039,2.618l6.918,11.33h-7.479l-5.748-10.507h-2.2v-4.637h3.027c0.526,0,1.065-0.043,1.616-0.131
					c0.551-0.087,1.052-0.243,1.504-0.467c0.451-0.225,0.82-0.548,1.108-0.972c0.288-0.424,0.432-0.972,0.432-1.645
					c0-0.623-0.131-1.128-0.395-1.514c-0.263-0.387-0.602-0.686-1.014-0.898c-0.414-0.211-0.877-0.355-1.391-0.43
					c-0.513-0.074-1.008-0.112-1.483-0.112h-3.403v-5.161h3.872c1.272,0,2.512,0.131,3.721,0.393
					c1.209,0.261,2.293,0.704,3.253,1.327C76.651,28.495,77.418,29.318,77.991,30.34z"/>
				<g>
					<path fill="#FFFFFF" d="M55.903,26.152v26.475H37.245c1.963,0,3.785-0.319,5.465-0.958c1.679-0.639,3.128-1.544,4.347-2.715
						c1.219-1.172,2.17-2.579,2.857-4.224c0.686-1.644,1.029-3.459,1.029-5.447c0-2.011-0.344-3.827-1.029-5.447
						c-0.687-1.62-1.639-2.998-2.857-4.135c-1.219-1.135-2.667-2.01-4.347-2.626c-1.68-0.615-3.502-0.922-5.465-0.922H55.903z"/>
					<path fill="#FFFFFF" d="M43.425,36.458c0.329,0.877,0.493,1.82,0.493,2.828c0,1.052-0.164,2.022-0.493,2.909
						c-0.328,0.888-0.789,1.649-1.381,2.284c-0.591,0.636-1.293,1.135-2.103,1.495c-0.812,0.362-1.709,0.543-2.695,0.543
						c-0.986,0-1.885-0.181-2.696-0.543c-0.811-0.361-1.507-0.859-2.087-1.495c-0.581-0.635-1.035-1.397-1.365-2.284
						c-0.328-0.887-0.492-1.857-0.492-2.909c0-1.008,0.158-1.951,0.476-2.828c0.318-0.875,0.773-1.627,1.364-2.251
						c0.592-0.625,1.293-1.118,2.104-1.48c0.81-0.362,1.709-0.542,2.696-0.542c0.986,0,1.89,0.181,2.711,0.542
						c0.822,0.362,1.523,0.855,2.104,1.48C42.642,34.831,43.097,35.583,43.425,36.458z"/>
					<path fill="#FFFFFF" d="M9.76,26.152h27.485c-1.965,0-3.78,0.308-5.447,0.922c-1.669,0.616-3.111,1.491-4.33,2.626
						c-1.219,1.136-2.171,2.515-2.857,4.135c-0.686,1.621-1.029,3.437-1.029,5.447c0,1.988,0.343,3.803,1.029,5.447
						c0.686,1.645,1.639,3.052,2.857,4.224c1.219,1.171,2.661,2.076,4.33,2.715c1.667,0.639,3.483,0.958,5.447,0.958H9.76
						c1.271,0,2.512-0.131,3.72-0.392c1.208-0.262,2.287-0.692,3.234-1.29c0.948-0.599,1.707-1.39,2.281-2.375
						c0.573-0.985,0.86-2.2,0.86-3.646c0-0.872-0.144-1.658-0.43-2.356c-0.287-0.698-0.673-1.309-1.16-1.833
						c-0.486-0.523-1.06-0.953-1.72-1.29c-0.661-0.336-1.365-0.567-2.112-0.692v-0.075c1.296-0.424,2.343-1.116,3.141-2.075
						c0.797-0.959,1.197-2.175,1.197-3.646c0-1.346-0.274-2.454-0.822-3.328c-0.549-0.872-1.259-1.564-2.132-2.075
						c-0.872-0.511-1.845-0.872-2.917-1.084C11.829,26.259,10.782,26.152,9.76,26.152z"/>
					<path fill="#FFFFFF" d="M13.462,44.325c0,0.648-0.138,1.177-0.412,1.589c-0.275,0.411-0.63,0.729-1.065,0.953
						c-0.436,0.225-0.923,0.381-1.459,0.467c-0.536,0.088-1.053,0.131-1.551,0.131h-3.59v-6.058h3.553
						c1.37,0,2.468,0.212,3.29,0.635C13.05,42.468,13.462,43.228,13.462,44.325z"/>
					<path fill="#FFFFFF" d="M12.602,33.817c0,0.948-0.33,1.664-0.991,2.151c-0.661,0.486-1.588,0.729-2.785,0.729h-3.44v-5.459
						h3.141c1.347,0,2.362,0.205,3.047,0.616C12.259,32.266,12.602,32.92,12.602,33.817z"/>
				</g>
			</g>
		</g>
		<rect x="63.309" y="-0.129" fill="#FFFFFF" width="2" height="80"/>
		<rect x="-15.691" y="-0.129" fill="none" width="160" height="80"/>
	</g>
</g>
<g id="Capa_4">
</g>
</svg>
