<?xml version="1.0" encoding="utf-8"?>
<!-- Generator: Adobe Illustrator 16.0.0, SVG Export Plug-In . SVG Version: 6.00 Build 0)  -->
<!DOCTYPE svg PUBLIC "-//W3C//DTD SVG 1.1//EN" "http://www.w3.org/Graphics/SVG/1.1/DTD/svg11.dtd">
<svg version="1.1" id="Layer_1" xmlns="http://www.w3.org/2000/svg" xmlns:xlink="http://www.w3.org/1999/xlink" x="0px" y="0px"
	 width="81.125px" height="33.75px" viewBox="0 0 81.125 33.75" enable-background="new 0 0 81.125 33.75" xml:space="preserve">
<g>
	<g id="XMLID_1_">
		<g id="XMLID_2_">
			<polygon fill="#FFFFFF" points="79.028,22.231 79.028,25.387 67.807,25.387 67.807,10.091 79.028,10.091 79.028,13.201 
				71.555,13.201 71.555,16.096 78.233,16.096 78.233,19.056 71.555,19.056 71.555,22.231 			"/>
			<path fill="#FFFFFF" d="M56.04,10.091c1.138,0,2.257,0.125,3.363,0.377c1.104,0.253,2.088,0.669,2.952,1.252
				c0.863,0.583,1.559,1.366,2.089,2.345c0.531,0.979,0.796,2.188,0.796,3.628c0,1.34-0.262,2.497-0.783,3.469
				c-0.523,0.972-1.213,1.771-2.068,2.397c-0.854,0.626-1.821,1.087-2.896,1.381c-1.075,0.297-2.166,0.445-3.271,0.445h-5.997
				V10.091H56.04z M61.197,17.694c0-0.864-0.147-1.581-0.443-2.15c-0.295-0.567-0.689-1.022-1.183-1.36
				c-0.492-0.336-1.052-0.58-1.68-0.723c-0.628-0.145-1.276-0.216-1.941-0.216h-1.932v8.943h1.841c0.696,0,1.365-0.074,2.01-0.227
				c0.644-0.151,1.21-0.399,1.702-0.745c0.493-0.345,0.888-0.805,1.183-1.384C61.05,19.258,61.197,18.545,61.197,17.694z"/>
			<path fill="#FFFFFF" d="M46.932,12.511c0.349,0.59,0.522,1.324,0.522,2.204c0,1.036-0.294,1.907-0.886,2.612
				c-0.591,0.707-1.407,1.212-2.453,1.514l4.203,6.546h-4.543l-3.491-6.07h-1.337v-2.68h1.839c0.32,0,0.647-0.024,0.981-0.075
				c0.335-0.049,0.639-0.14,0.914-0.27c0.274-0.131,0.497-0.316,0.673-0.563c0.174-0.245,0.263-0.561,0.263-0.95
				c0-0.359-0.08-0.651-0.241-0.874c-0.158-0.224-0.363-0.396-0.615-0.52c-0.251-0.123-0.533-0.205-0.845-0.248
				c-0.312-0.044-0.612-0.064-0.9-0.064h-2.068v-2.982h2.352c0.772,0,1.526,0.075,2.26,0.226c0.735,0.151,1.393,0.408,1.978,0.767
				C46.119,11.443,46.584,11.919,46.932,12.511z"/>
			<g>
				<path fill="#FFFFFF" d="M33.514,10.091v15.295H22.181c1.192,0,2.299-0.186,3.32-0.554c1.021-0.37,1.9-0.892,2.64-1.569
					c0.74-0.676,1.318-1.49,1.736-2.44c0.416-0.949,0.626-1.998,0.626-3.146c0-1.162-0.21-2.21-0.626-3.148
					c-0.417-0.935-0.996-1.731-1.736-2.388s-1.62-1.161-2.64-1.519c-1.021-0.354-2.127-0.531-3.32-0.531H33.514z"/>
				<path fill="#FFFFFF" d="M25.935,16.044c0.2,0.507,0.299,1.051,0.299,1.635c0,0.606-0.099,1.167-0.299,1.68
					c-0.2,0.514-0.479,0.953-0.839,1.319c-0.359,0.367-0.786,0.656-1.278,0.864c-0.493,0.209-1.037,0.313-1.637,0.313
					c-0.599,0-1.145-0.104-1.637-0.313c-0.493-0.208-0.916-0.497-1.269-0.864c-0.353-0.366-0.628-0.806-0.828-1.319
					c-0.2-0.513-0.3-1.073-0.3-1.68c0-0.584,0.097-1.128,0.29-1.635c0.194-0.505,0.47-0.939,0.83-1.3
					c0.359-0.361,0.785-0.646,1.277-0.854c0.493-0.209,1.039-0.313,1.637-0.313c0.6,0,1.149,0.104,1.647,0.313
					c0.499,0.208,0.925,0.493,1.278,0.854C25.459,15.105,25.735,15.539,25.935,16.044z"/>
				<path fill="#FFFFFF" d="M5.485,10.091h16.696c-1.193,0-2.296,0.177-3.309,0.531c-1.014,0.358-1.89,0.862-2.631,1.519
					c-0.74,0.656-1.319,1.453-1.735,2.388c-0.417,0.938-0.626,1.986-0.626,3.148c0,1.148,0.208,2.197,0.626,3.146
					c0.417,0.95,0.996,1.765,1.735,2.44c0.741,0.678,1.617,1.199,2.631,1.569c1.013,0.368,2.115,0.554,3.309,0.554H5.485
					c0.771,0,1.525-0.076,2.259-0.228c0.734-0.152,1.39-0.398,1.965-0.747c0.576-0.342,1.037-0.801,1.386-1.37
					c0.347-0.569,0.523-1.271,0.523-2.107c0-0.503-0.088-0.956-0.262-1.36c-0.174-0.403-0.409-0.757-0.705-1.059
					c-0.295-0.302-0.644-0.55-1.045-0.745c-0.401-0.193-0.83-0.327-1.284-0.399v-0.044c0.788-0.244,1.423-0.644,1.908-1.197
					c0.485-0.554,0.727-1.257,0.727-2.107c0-0.777-0.167-1.417-0.499-1.922c-0.333-0.503-0.765-0.904-1.295-1.199
					s-1.12-0.503-1.772-0.625C6.742,10.152,6.105,10.091,5.485,10.091z"/>
				<path fill="#FFFFFF" d="M7.733,20.59c0,0.375-0.083,0.68-0.251,0.918c-0.166,0.237-0.382,0.422-0.646,0.552
					c-0.265,0.128-0.561,0.219-0.886,0.269c-0.325,0.05-0.64,0.077-0.943,0.077H2.827v-3.501h2.158c0.833,0,1.5,0.123,1.999,0.368
					C7.482,19.517,7.733,19.955,7.733,20.59z"/>
				<path fill="#FFFFFF" d="M7.211,14.519c0,0.548-0.201,0.961-0.602,1.243c-0.403,0.281-0.965,0.422-1.693,0.422h-2.09V13.03h1.909
					c0.817,0,1.435,0.118,1.851,0.355C7.003,13.623,7.211,14,7.211,14.519z"/>
			</g>
		</g>
	</g>
	<rect x="38.062" y="-4.625" fill="#FFFFFF" width="2" height="46"/>
	<rect x="-9.938" y="-4.625" fill="none" width="97" height="46"/>
</g>
</svg>
