<?xml version="1.0" encoding="utf-8"?>
<!-- Generator: Adobe Illustrator 18.0.0, SVG Export Plug-In . SVG Version: 6.00 Build 0)  -->
<!DOCTYPE svg PUBLIC "-//W3C//DTD SVG 1.1//EN" "http://www.w3.org/Graphics/SVG/1.1/DTD/svg11.dtd">
<svg version="1.1" xmlns="http://www.w3.org/2000/svg" xmlns:xlink="http://www.w3.org/1999/xlink" x="0px" y="0px"
	 viewBox="0 0 190 190" enable-background="new 0 0 190 190" xml:space="preserve">
<g id="Guías_para_la_mesa_de_trabajo">
</g>
<g id="Capa_1">
	<g>
		<defs>
			<circle id="SVGID_1_" cx="95" cy="95" r="93"/>
		</defs>
		<clipPath id="SVGID_2_">
			<use xlink:href="#SVGID_1_"  overflow="visible"/>
		</clipPath>
		<rect x="0.7" y="0.7" clip-path="url(#SVGID_2_)" fill="#00A291" width="188.6" height="188.6"/>
		<g clip-path="url(#SVGID_2_)">
			<g>
				<path fill="#FFFFFF" d="M39.4,144c0-0.5,0.2-1,0.6-1.4c0.4-0.4,0.9-0.6,1.4-0.6c0.6,0,1,0.2,1.4,0.6c0.4,0.4,0.6,0.9,0.6,1.4
					c0,0.6-0.2,1.1-0.6,1.4c-0.4,0.4-0.8,0.6-1.4,0.6c-0.6,0-1.1-0.2-1.4-0.6C39.6,145.1,39.4,144.6,39.4,144z M40.7,147.6h1.5v9.2
					h-1.5V147.6z"/>
				<path fill="#FFFFFF" d="M45.2,149.8c0-0.4,0-0.8,0-1.2c0-0.4,0-0.7,0-1h1.4c0,0.2,0,0.5,0,0.7c0,0.2,0,0.5,0,0.8h0
					c0.1-0.2,0.3-0.4,0.4-0.6c0.2-0.2,0.4-0.4,0.7-0.6c0.3-0.2,0.6-0.3,0.9-0.4c0.3-0.1,0.7-0.1,1.1-0.1c0.6,0,1.1,0.1,1.6,0.3
					c0.4,0.2,0.8,0.4,1.1,0.8c0.3,0.3,0.5,0.7,0.6,1.2c0.1,0.5,0.2,1,0.2,1.5v5.7h-1.5v-5.5c0-0.8-0.2-1.4-0.5-1.8
					c-0.3-0.4-0.9-0.7-1.6-0.7c-0.5,0-0.9,0.1-1.3,0.3c-0.4,0.2-0.7,0.4-0.9,0.7c-0.2,0.3-0.4,0.7-0.5,1.1c-0.1,0.4-0.2,0.9-0.2,1.4
					v4.5h-1.5V149.8z"/>
				<path fill="#FFFFFF" d="M62.6,149.9c-0.3-0.4-0.7-0.7-1.1-0.9c-0.4-0.2-0.8-0.3-1.3-0.3c-0.5,0-1,0.1-1.4,0.3
					c-0.4,0.2-0.7,0.4-1,0.7c-0.3,0.3-0.4,0.7-0.6,1.1c-0.1,0.4-0.2,0.9-0.2,1.3c0,0.5,0.1,0.9,0.2,1.3c0.1,0.4,0.4,0.8,0.6,1.1
					c0.3,0.3,0.6,0.6,1,0.7c0.4,0.2,0.8,0.3,1.3,0.3c1,0,1.8-0.4,2.3-1.1l1.1,1.1c-0.4,0.5-1,0.9-1.6,1.1c-0.6,0.2-1.2,0.4-1.9,0.4
					c-0.7,0-1.4-0.1-1.9-0.4c-0.6-0.2-1.1-0.6-1.5-1c-0.4-0.4-0.7-0.9-1-1.5c-0.2-0.6-0.3-1.2-0.3-1.9c0-0.7,0.1-1.3,0.3-1.9
					c0.2-0.6,0.6-1.1,1-1.5c0.4-0.4,0.9-0.8,1.5-1c0.6-0.2,1.2-0.4,1.9-0.4c0.7,0,1.3,0.1,1.9,0.4c0.6,0.2,1.1,0.6,1.6,1.1
					L62.6,149.9z"/>
				<path fill="#FFFFFF" d="M65,152.2c0-0.7,0.1-1.4,0.4-2c0.2-0.6,0.6-1.1,1-1.5c0.4-0.4,0.9-0.8,1.5-1c0.6-0.2,1.3-0.4,2-0.4
					c0.7,0,1.4,0.1,2,0.4c0.6,0.2,1.1,0.6,1.5,1c0.4,0.4,0.8,0.9,1,1.5c0.2,0.6,0.4,1.2,0.4,2c0,0.7-0.1,1.4-0.4,2
					c-0.2,0.6-0.6,1.1-1,1.5c-0.4,0.4-0.9,0.8-1.5,1c-0.6,0.2-1.3,0.4-2,0.4c-0.7,0-1.4-0.1-2-0.4c-0.6-0.2-1.1-0.6-1.5-1
					c-0.4-0.4-0.8-0.9-1-1.5C65.1,153.6,65,152.9,65,152.2z M66.7,152.2c0,0.5,0.1,0.9,0.2,1.3c0.2,0.4,0.4,0.8,0.7,1.1
					c0.3,0.3,0.6,0.5,1,0.7c0.4,0.2,0.8,0.3,1.3,0.3c0.5,0,0.9-0.1,1.3-0.3c0.4-0.2,0.7-0.4,1-0.7c0.3-0.3,0.5-0.7,0.7-1.1
					c0.1-0.4,0.2-0.9,0.2-1.3c0-0.5-0.1-0.9-0.2-1.3c-0.2-0.4-0.4-0.8-0.7-1.1c-0.3-0.3-0.6-0.5-1-0.7c-0.4-0.2-0.8-0.3-1.3-0.3
					c-0.5,0-0.9,0.1-1.3,0.3c-0.4,0.2-0.7,0.4-1,0.7c-0.3,0.3-0.5,0.7-0.7,1.1C66.7,151.3,66.7,151.7,66.7,152.2z"/>
				<path fill="#FFFFFF" d="M77.2,149.8c0-0.4,0-0.8,0-1.2c0-0.4,0-0.7,0-1h1.4c0,0.2,0,0.5,0,0.7c0,0.2,0,0.5,0,0.8h0
					c0.1-0.2,0.3-0.4,0.4-0.6c0.2-0.2,0.4-0.4,0.7-0.6c0.3-0.2,0.6-0.3,0.9-0.4c0.3-0.1,0.7-0.1,1.1-0.1c0.1,0,0.2,0,0.3,0
					c0.1,0,0.2,0,0.3,0.1l-0.1,1.5c-0.3-0.1-0.5-0.1-0.8-0.1c-0.9,0-1.6,0.3-2,0.9c-0.4,0.6-0.6,1.4-0.6,2.5v4.5h-1.5V149.8z"/>
				<path fill="#FFFFFF" d="M84.1,149.8c0-0.4,0-0.8,0-1.2c0-0.4,0-0.7,0-1h1.4c0,0.2,0,0.5,0,0.7c0,0.2,0,0.5,0,0.8h0
					c0.1-0.2,0.3-0.4,0.4-0.6s0.4-0.4,0.7-0.6c0.3-0.2,0.6-0.3,0.9-0.4c0.3-0.1,0.7-0.1,1.1-0.1c0.1,0,0.2,0,0.3,0
					c0.1,0,0.2,0,0.3,0.1l-0.1,1.5c-0.3-0.1-0.5-0.1-0.8-0.1c-0.9,0-1.6,0.3-2,0.9c-0.4,0.6-0.6,1.4-0.6,2.5v4.5h-1.5V149.8z"/>
				<path fill="#FFFFFF" d="M98.9,154.6c0,0.4,0,0.8,0,1.2c0,0.4,0,0.7,0,1h-1.4c0-0.2,0-0.5,0-0.7c0-0.2,0-0.5,0-0.8h0
					c-0.1,0.2-0.3,0.4-0.4,0.6s-0.4,0.4-0.7,0.6c-0.3,0.2-0.6,0.3-0.9,0.4c-0.3,0.1-0.7,0.1-1.1,0.1c-0.6,0-1.1-0.1-1.6-0.3
					c-0.4-0.2-0.8-0.4-1.1-0.8c-0.3-0.3-0.5-0.7-0.6-1.2c-0.1-0.5-0.2-1-0.2-1.5v-5.7h1.5v5.5c0,0.8,0.2,1.4,0.5,1.8
					c0.3,0.4,0.9,0.7,1.6,0.7c0.5,0,0.9-0.1,1.3-0.3c0.4-0.2,0.7-0.4,0.9-0.7c0.2-0.3,0.4-0.7,0.5-1.1c0.1-0.4,0.2-0.9,0.2-1.4v-4.5
					h1.5V154.6z"/>
				<path fill="#FFFFFF" d="M101.7,147.6h1.5v1.3h0c0.4-0.5,0.9-0.9,1.5-1.2c0.6-0.3,1.2-0.4,1.8-0.4c0.7,0,1.4,0.1,2,0.4
					c0.6,0.2,1.1,0.6,1.5,1c0.4,0.4,0.7,0.9,1,1.5c0.2,0.6,0.4,1.2,0.4,1.9c0,0.7-0.1,1.3-0.4,1.9c-0.2,0.6-0.6,1.1-1,1.5
					c-0.4,0.4-0.9,0.8-1.5,1c-0.6,0.2-1.2,0.4-1.8,0.4c-0.8,0-1.5-0.2-2.2-0.5c-0.6-0.4-1.1-0.8-1.4-1.3h0v6.1h-1.5V147.6z
					 M103.3,152.2c0,0.5,0.1,0.9,0.2,1.3c0.2,0.4,0.4,0.8,0.7,1.1c0.3,0.3,0.6,0.5,1,0.7c0.4,0.2,0.8,0.3,1.3,0.3
					c0.5,0,0.9-0.1,1.3-0.3c0.4-0.2,0.7-0.4,1-0.7c0.3-0.3,0.5-0.7,0.7-1.1c0.1-0.4,0.2-0.9,0.2-1.3c0-0.5-0.1-0.9-0.2-1.3
					c-0.2-0.4-0.4-0.8-0.7-1.1c-0.3-0.3-0.6-0.5-1-0.7c-0.4-0.2-0.8-0.3-1.3-0.3c-0.5,0-0.9,0.1-1.3,0.3c-0.4,0.2-0.7,0.4-1,0.7
					c-0.3,0.3-0.5,0.7-0.7,1.1C103.3,151.3,103.3,151.7,103.3,152.2z"/>
				<path fill="#FFFFFF" d="M118.8,148.9h-2.7v4.6c0,0.3,0,0.6,0,0.8c0,0.3,0.1,0.5,0.2,0.7c0.1,0.2,0.2,0.3,0.4,0.4
					c0.2,0.1,0.4,0.2,0.8,0.2c0.2,0,0.5,0,0.7-0.1c0.2-0.1,0.5-0.1,0.7-0.2l0.1,1.4c-0.3,0.1-0.6,0.2-0.9,0.3
					c-0.3,0.1-0.6,0.1-0.9,0.1c-0.5,0-1-0.1-1.3-0.2c-0.3-0.1-0.6-0.3-0.8-0.6c-0.2-0.3-0.3-0.6-0.4-1c-0.1-0.4-0.1-0.8-0.1-1.3v-5
					h-2v-1.3h2V145h1.5v2.6h2.7V148.9z"/>
				<path fill="#FFFFFF" d="M120.5,144c0-0.3,0.1-0.6,0.3-0.8c0.2-0.2,0.5-0.3,0.8-0.3c0.3,0,0.6,0.1,0.8,0.3
					c0.2,0.2,0.3,0.5,0.3,0.8c0,0.3-0.1,0.6-0.3,0.8c-0.2,0.2-0.5,0.3-0.8,0.3c-0.3,0-0.6-0.1-0.8-0.3
					C120.6,144.6,120.5,144.4,120.5,144z M120.8,147.6h1.5v9.2h-1.5V147.6z M119.5,144c0-0.5,0.2-1,0.6-1.4c0.4-0.4,0.9-0.6,1.4-0.6
					c0.6,0,1,0.2,1.4,0.6c0.4,0.4,0.6,0.9,0.6,1.4c0,0.6-0.2,1.1-0.6,1.4c-0.4,0.4-0.8,0.6-1.4,0.6c-0.6,0-1.1-0.2-1.4-0.6
					C119.7,145.1,119.5,144.6,119.5,144z"/>
				<path fill="#FFFFFF" d="M125.3,142h1.5v7h0c0.4-0.5,0.9-0.9,1.5-1.2c0.6-0.3,1.2-0.4,1.8-0.4c0.7,0,1.4,0.1,2,0.4s1.1,0.6,1.5,1
					c0.4,0.4,0.7,0.9,1,1.5c0.2,0.6,0.4,1.2,0.4,1.9c0,0.7-0.1,1.3-0.4,1.9c-0.2,0.6-0.6,1.1-1,1.5c-0.4,0.4-0.9,0.8-1.5,1
					s-1.2,0.4-1.8,0.4c-0.8,0-1.5-0.2-2.2-0.5c-0.6-0.4-1.1-0.8-1.4-1.3h0v1.6h-1.5V142z M126.8,152.2c0,0.5,0.1,0.9,0.2,1.3
					c0.2,0.4,0.4,0.8,0.7,1.1c0.3,0.3,0.6,0.5,1,0.7c0.4,0.2,0.8,0.3,1.3,0.3c0.5,0,0.9-0.1,1.3-0.3c0.4-0.2,0.7-0.4,1-0.7
					c0.3-0.3,0.5-0.7,0.7-1.1c0.1-0.4,0.2-0.9,0.2-1.3c0-0.5-0.1-0.9-0.2-1.3c-0.2-0.4-0.4-0.8-0.7-1.1c-0.3-0.3-0.6-0.5-1-0.7
					c-0.4-0.2-0.8-0.3-1.3-0.3c-0.5,0-0.9,0.1-1.3,0.3c-0.4,0.2-0.7,0.4-1,0.7c-0.3,0.3-0.5,0.7-0.7,1.1
					C126.9,151.3,126.8,151.7,126.8,152.2z"/>
				<path fill="#FFFFFF" d="M137.5,142h1.5v14.8h-1.5V142z"/>
				<path fill="#FFFFFF" d="M150.2,155.1c-0.5,0.7-1.1,1.2-1.8,1.5c-0.7,0.3-1.4,0.4-2.3,0.4c-0.7,0-1.4-0.1-1.9-0.4
					c-0.6-0.3-1.1-0.6-1.5-1c-0.4-0.4-0.7-0.9-0.9-1.5c-0.2-0.6-0.3-1.2-0.3-1.9c0-0.7,0.1-1.4,0.4-1.9c0.2-0.6,0.6-1.1,1-1.5
					c0.4-0.4,0.9-0.8,1.5-1c0.6-0.2,1.2-0.4,1.9-0.4c0.6,0,1.2,0.1,1.8,0.3c0.5,0.2,1,0.5,1.4,0.9c0.4,0.4,0.7,0.9,0.9,1.5
					c0.2,0.6,0.3,1.3,0.3,2v0.5h-7.4c0,0.4,0.1,0.8,0.3,1.1c0.2,0.4,0.4,0.7,0.6,0.9c0.3,0.3,0.6,0.5,0.9,0.6
					c0.4,0.2,0.7,0.2,1.2,0.2c0.7,0,1.2-0.1,1.7-0.4c0.5-0.2,0.9-0.6,1.2-1L150.2,155.1z M148.9,151.4c0-0.8-0.3-1.4-0.8-1.9
					c-0.5-0.5-1.1-0.7-2-0.7c-0.8,0-1.5,0.2-2.1,0.7c-0.5,0.5-0.8,1.1-0.9,1.9H148.9z"/>
			</g>
			<g>
				<g id="XMLID_21_">
					<g id="XMLID_22_">
						<polygon opacity="0.5" fill="#2C3A4D" points="95,95.5 95,123.1 65.8,136.9 65.8,109.3 						"/>
						<polygon fill="#2C3A4D" points="65.8,109.3 65.8,136.9 36.6,123.1 36.6,95.5 						"/>
					</g>
				</g>
				<g id="XMLID_19_">
					<g id="XMLID_20_">
						<polygon opacity="0.5" fill="#2C3A4D" points="124.2,54.2 124.2,81.8 95,95.5 95,67.9 						"/>
						<polygon fill="#2C3A4D" points="95,67.9 95,95.5 65.8,81.8 65.8,54.2 						"/>
					</g>
				</g>
				<g id="XMLID_11_">
					<g id="XMLID_18_">
						<polygon opacity="0.5" fill="#2C3A4D" points="153.4,95.5 153.4,123.1 124.2,136.8 124.2,109.2 						"/>
						<polygon fill="#2C3A4D" points="124.2,109.2 124.2,136.8 95,123.1 95,95.5 						"/>
					</g>
				</g>
				<polygon opacity="0.5" fill="#2C3A4D" points="65.8,54.2 65.8,81.8 36.6,95.5 36.6,67.9 				"/>
				<polygon opacity="0.5" fill="#2C3A4D" points="95,12.8 95,40.4 65.8,54.2 65.8,26.6 				"/>
				<polygon fill="#2C3A4D" points="124.2,26.6 124.2,54.2 95,40.5 95,12.9 				"/>
				<polygon fill="#2C3A4D" points="153.4,67.9 153.4,95.5 124.2,81.8 124.2,54.2 				"/>
			</g>
		</g>
	</g>
</g>
</svg>
