<?xml version="1.0" encoding="utf-8"?>
<!-- Generator: Adobe Illustrator 17.0.0, SVG Export Plug-In . SVG Version: 6.00 Build 0)  -->
<!DOCTYPE svg PUBLIC "-//W3C//DTD SVG 1.1//EN" "http://www.w3.org/Graphics/SVG/1.1/DTD/svg11.dtd">
<svg version="1.1" xmlns="http://www.w3.org/2000/svg" xmlns:xlink="http://www.w3.org/1999/xlink" x="0px" y="0px" width="203px"
	 height="203px" viewBox="0 0 203 203" enable-background="new 0 0 203 203" xml:space="preserve">
<g id="Layer_3">
</g>
<g id="Layer_2">
	<g>
		<g id="XMLID_71_">
			<g>
				<g id="XMLID_72_">
					<g>
						<path fill="#EE4656" d="M0,101.5c0-35.85,18.635-67.396,46.731-85.422c4.141-2.72,8.485-5.075,13.033-7.105
							C72.471,3.207,86.6,0,101.5,0C157.528,0,203,45.472,203,101.5c0,14.86-3.207,28.988-9.013,41.737
							c-1.989,4.547-4.344,8.891-7.024,13.033C168.896,184.365,137.35,203,101.5,203c-18.026,0-34.957-4.71-49.613-12.951L0,203
							l12.951-51.887C4.71,136.457,0,119.526,0,101.5z"/>
					</g>
				</g>
			</g>
		</g>
		<g>
			<path fill="#FFFFFF" d="M146.11,59.7c-1.97-2.506-4.543-4.5-7.723-5.977c-3.179-1.478-6.243-2.216-9.2-2.216
				c-1.524,0-3.067,0.134-4.633,0.403c-1.569,0.269-2.977,0.785-4.231,1.545c-1.254,0.761-2.306,1.746-3.156,2.954
				c-0.853,1.209-1.278,2.754-1.278,4.634c0,1.611,0.336,2.955,1.007,4.029c0.672,1.074,1.658,2.015,2.956,2.821
				c1.296,0.805,2.841,1.545,4.633,2.216c1.792,0.671,3.806,1.366,6.044,2.081c3.224,1.075,6.582,2.263,10.073,3.559
				c3.492,1.299,6.671,3.022,9.536,5.171c2.865,2.149,5.239,4.814,7.12,7.992c1.881,3.179,2.82,7.141,2.82,11.887
				c0,5.462-1.007,10.186-3.022,14.17c-2.015,3.985-4.725,7.276-8.124,9.872c-3.405,2.598-7.301,4.522-11.687,5.775
				c-4.389,1.253-8.911,1.88-13.565,1.88c-6.805,0-13.387-1.188-19.743-3.559c-6.359-2.371-11.642-5.752-15.85-10.14l15.042-15.311
				c2.329,2.867,5.393,5.261,9.202,7.185c3.804,1.927,7.587,2.888,11.348,2.888c1.7,0,3.358-0.178,4.968-0.538
				c1.613-0.357,3.022-0.94,4.231-1.746c1.209-0.806,2.169-1.88,2.888-3.223c0.716-1.343,1.076-2.955,1.076-4.835
				c0-1.79-0.451-3.312-1.343-4.566c-0.897-1.253-2.172-2.394-3.83-3.425c-1.658-1.028-3.715-1.968-6.178-2.82
				c-2.463-0.85-5.26-1.767-8.394-2.754c-3.046-0.984-6.023-2.149-8.932-3.492c-2.909-1.343-5.506-3.066-7.788-5.171
				c-2.285-2.103-4.121-4.655-5.506-7.656c-1.39-2.999-2.083-6.649-2.083-10.946c0-5.283,1.076-9.805,3.224-13.565
				c2.149-3.761,4.969-6.85,8.46-9.267c3.494-2.418,7.432-4.185,11.82-5.306c4.386-1.118,8.82-1.679,13.297-1.679
				c5.372,0,10.855,0.986,16.453,2.955c5.596,1.971,10.496,4.881,14.706,8.73L146.11,59.7z"/>
			<path fill="#343434" d="M120.039,103.484c0,5.444-1.08,10.019-3.239,13.725c-2.158,3.708-5.02,6.686-8.586,8.939
				c-3.566,2.252-7.624,3.871-12.177,4.857c-4.553,0.985-9.218,1.478-14.005,1.478H42.337V32.82h39.695
				c3.846,0,7.789,0.4,11.825,1.196c4.033,0.799,7.693,2.16,10.978,4.083c3.285,1.925,5.96,4.528,8.025,7.812
				c2.062,3.286,3.096,7.46,3.096,12.528c0,5.539-1.501,10.113-4.503,13.725c-3.005,3.614-6.948,6.218-11.825,7.813v0.281
				c2.815,0.471,5.466,1.338,7.954,2.604c2.485,1.267,4.644,2.885,6.475,4.857c1.831,1.97,3.283,4.271,4.363,6.897
				C119.497,97.244,120.039,100.201,120.039,103.484z M92.73,61.677c0-3.379-1.29-5.842-3.871-7.39
				c-2.582-1.549-6.403-2.323-11.473-2.323H65.564v20.552h12.949c4.503,0,8.001-0.915,10.486-2.744
				C91.484,67.941,92.73,65.244,92.73,61.677z M95.968,101.232c0-4.128-1.548-6.989-4.646-8.586
				c-3.096-1.595-7.228-2.393-12.386-2.393H65.564v22.804h13.513c1.875,0,3.822-0.163,5.842-0.493
				c2.015-0.328,3.846-0.915,5.488-1.76c1.641-0.845,2.98-2.041,4.014-3.59C95.452,105.666,95.968,103.673,95.968,101.232z"/>
		</g>
		<text transform="matrix(1 0 0 1 40.7966 169.5528)" fill="#FFFFFF" font-family="'AvenirNext-Regular'" font-size="34.8246">SCORE</text>
	</g>
</g>
<g id="Capa_4">
</g>
</svg>
