<?xml version="1.0" encoding="utf-8"?>
<!-- Generator: Adobe Illustrator 17.0.0, SVG Export Plug-In . SVG Version: 6.00 Build 0)  -->
<!DOCTYPE svg PUBLIC "-//W3C//DTD SVG 1.1//EN" "http://www.w3.org/Graphics/SVG/1.1/DTD/svg11.dtd">
<svg version="1.1" xmlns="http://www.w3.org/2000/svg" xmlns:xlink="http://www.w3.org/1999/xlink" x="0px" y="0px" width="32px"
	 height="32px" viewBox="0 0 32 32" enable-background="new 0 0 32 32" xml:space="preserve">
<g id="Layer_3">
</g>
<g id="Layer_2">
	<circle opacity="0.5" fill="#CCCCCC" cx="16" cy="16" r="15"/>
	<g>
		<g>
			<path fill="#FFFFFF" d="M11.937,16.103l0.039,2.047l3.387-0.065c-0.12,0.881-0.974,2.596-3.337,2.641
				c-2.039,0.039-3.735-1.618-3.775-3.699c-0.04-2.082,1.591-3.803,3.63-3.842c1.16-0.022,1.946,0.458,2.398,0.876l1.591-1.592
				c-1.059-0.952-2.419-1.515-4.031-1.484c-3.301,0.063-5.92,2.785-5.857,6.086c0.063,3.301,2.785,5.92,6.086,5.857
				c3.446-0.066,5.686-2.533,5.621-5.945c-0.007-0.392-0.056-0.69-0.113-0.988L11.937,16.103L11.937,16.103z"/>
			<path fill="#FFFFFF" d="M24.733,15.857l-1.706,0.033l-0.033-1.706l-1.706,0.033l0.033,1.706l-1.706,0.033l0.033,1.706
				l1.706-0.033l0.033,1.706l1.706-0.033l-0.033-1.706l1.706-0.033L24.733,15.857z"/>
		</g>
	</g>
	<rect x="-256.498" y="-276" fill="none" stroke="#00FF00" stroke-miterlimit="10" width="799.29" height="1027.268"/>
</g>
<g id="Capa_4">
</g>
</svg>
