<?xml version="1.0" encoding="utf-8"?>
<!-- Generator: Adobe Illustrator 16.0.0, SVG Export Plug-In . SVG Version: 6.00 Build 0)  -->
<!DOCTYPE svg PUBLIC "-//W3C//DTD SVG 1.1//EN" "http://www.w3.org/Graphics/SVG/1.1/DTD/svg11.dtd">
<svg version="1.1" xmlns="http://www.w3.org/2000/svg" xmlns:xlink="http://www.w3.org/1999/xlink" x="0px" y="0px" width="32px"
	 height="32px" viewBox="0 0 32 32" enable-background="new 0 0 32 32" xml:space="preserve">
<g id="Layer_3">
</g>
<g id="Layer_2">
	<circle fill="#E3411F" cx="16" cy="16" r="15"/>
	<g>
		<g>
			<path fill="#FFFFFF" d="M11.937,16.103l0.04,2.048l3.387-0.065c-0.12,0.882-0.975,2.596-3.337,2.642
				c-2.039,0.039-3.734-1.618-3.774-3.699c-0.04-2.082,1.591-3.803,3.629-3.842c1.16-0.023,1.946,0.457,2.398,0.875l1.591-1.592
				c-1.059-0.953-2.418-1.516-4.031-1.484c-3.301,0.063-5.92,2.785-5.857,6.086s2.785,5.92,6.086,5.856
				c3.446-0.065,5.686-2.532,5.621-5.944c-0.008-0.393-0.056-0.69-0.113-0.988L11.937,16.103L11.937,16.103z"/>
			<path fill="#FFFFFF" d="M24.733,15.856l-1.706,0.033l-0.033-1.706l-1.706,0.033l0.033,1.705l-1.706,0.033l0.033,1.706
				l1.706-0.032l0.033,1.705l1.706-0.032l-0.033-1.706l1.706-0.033L24.733,15.856z"/>
		</g>
	</g>
	<rect x="-620.498" y="-276" fill="none" stroke="#00FF00" stroke-miterlimit="10" width="799.29" height="1027.268"/>
</g>
<g id="Capa_4">
</g>
</svg>
