<?xml version="1.0" encoding="utf-8"?>
<!-- Generator: Adobe Illustrator 17.0.0, SVG Export Plug-In . SVG Version: 6.00 Build 0)  -->
<!DOCTYPE svg PUBLIC "-//W3C//DTD SVG 1.1//EN" "http://www.w3.org/Graphics/SVG/1.1/DTD/svg11.dtd">
<svg version="1.1" xmlns="http://www.w3.org/2000/svg" xmlns:xlink="http://www.w3.org/1999/xlink" x="0px" y="0px" width="47px"
	 height="47px" viewBox="0 0 47 47" enable-background="new 0 0 47 47" xml:space="preserve">
<g id="Layer_3">
</g>
<g id="Layer_2">
	<rect x="-535.896" y="-864.77" fill="none" stroke="#00FF00" stroke-miterlimit="10" width="799.29" height="1027.268"/>
	<g>
		<path fill="#FFFFFF" d="M11.521,5.841l1.559,0.051l0.112,1.171c0.063,0.659,0.55,1.198,1.199,1.328
			c0.43,0.086,1,0.319,1.607,0.656c0.228,0.127,0.479,0.189,0.729,0.189c0.318,0,0.635-0.101,0.9-0.3l0.944-0.707l1.093,1.092
			l-0.764,0.941c-0.414,0.51-0.448,1.23-0.084,1.777c0.313,0.471,0.502,0.906,0.595,1.369c0.125,0.624,0.629,1.102,1.259,1.192
			l1.223,0.174l-0.052,1.572l-1.049,0.111c-0.615,0.065-1.127,0.501-1.29,1.097c-0.179,0.657-0.409,1.208-0.724,1.732
			c-0.323,0.538-0.277,1.219,0.115,1.709l0.674,0.843l-1.097,1.098l-0.804-0.644c-0.273-0.219-0.605-0.329-0.938-0.329
			c-0.3,0-0.601,0.09-0.86,0.271c-0.517,0.362-1.223,0.583-1.781,0.735c-0.594,0.162-1.028,0.67-1.096,1.281l-0.109,0.98h-1.565
			l-0.109-0.98c-0.069-0.623-0.519-1.137-1.127-1.289c-0.611-0.153-1.212-0.41-1.839-0.785C8,22.032,7.734,21.962,7.468,21.962
			c-0.347,0-0.692,0.12-0.969,0.355l-0.68,0.575l-1.116-1.117l0.636-0.743c0.419-0.49,0.479-1.194,0.147-1.747
			c-0.313-0.522-0.543-1.072-0.723-1.732c-0.154-0.565-0.622-0.989-1.2-1.085L2.5,16.291v-1.575l1.04-0.109
			c0.615-0.065,1.128-0.5,1.291-1.097c0.18-0.659,0.41-1.21,0.724-1.735c0.322-0.537,0.276-1.218-0.115-1.708L4.796,9.262
			l1.133-1.133l0.866,0.703C7.068,9.054,7.404,9.167,7.74,9.167c0.266,0,0.533-0.071,0.771-0.214
			c0.54-0.324,1.086-0.545,1.771-0.716c0.614-0.153,1.066-0.676,1.129-1.306L11.521,5.841 M12.098,21.15
			c3.093,0,5.516-2.423,5.516-5.516c0-3.042-2.444-5.517-5.449-5.517c-3.042,0-5.516,2.444-5.516,5.449
			c0,3.036,2.373,5.489,5.402,5.584C12.066,21.15,12.082,21.15,12.098,21.15 M11.281,4.332c-0.612,0-1.157,0.476-1.225,1.089
			L9.919,6.783C9.101,6.987,8.421,7.259,7.74,7.667L6.65,6.783c-0.218-0.156-0.479-0.24-0.743-0.24c-0.313,0-0.632,0.118-0.89,0.376
			l-1.429,1.43C3.111,8.756,3.111,9.506,3.451,9.982l0.816,1.021c-0.408,0.682-0.68,1.362-0.885,2.111L2.09,13.25
			C1.477,13.386,1,13.863,1,14.476v2.043c0,0.68,0.477,1.156,1.09,1.224l1.226,0.205c0.204,0.748,0.475,1.43,0.884,2.11
			l-0.816,0.954c-0.408,0.476-0.34,1.157,0.068,1.634l1.429,1.431c0.258,0.258,0.576,0.376,0.9,0.376
			c0.274,0,0.552-0.084,0.802-0.24l0.885-0.749c0.681,0.408,1.429,0.749,2.247,0.954l0.136,1.226
			c0.068,0.612,0.543,1.089,1.157,1.089h2.043c0.68,0,1.156-0.477,1.292-1.089l0.136-1.226c0.749-0.204,1.567-0.477,2.247-0.954
			l1.021,0.818c0.195,0.162,0.467,0.247,0.743,0.247c0.302,0,0.609-0.102,0.822-0.315l1.498-1.499
			c0.408-0.408,0.476-1.156,0.068-1.634l-0.817-1.022c0.408-0.68,0.681-1.361,0.885-2.11l1.294-0.137
			c0.612-0.068,1.09-0.612,1.09-1.225l0.068-2.043c0-0.612-0.478-1.158-1.089-1.225l-1.43-0.204
			c-0.136-0.681-0.409-1.293-0.817-1.907l0.885-1.09c0.408-0.544,0.408-1.224-0.068-1.701l-1.431-1.43
			c-0.221-0.221-0.541-0.342-0.865-0.342c-0.274,0-0.55,0.087-0.769,0.274l-1.089,0.816c-0.612-0.341-1.362-0.68-2.042-0.816
			l-0.137-1.43C14.479,4.876,13.935,4.4,13.323,4.4L11.281,4.332L11.281,4.332z M12.098,19.65c-2.179-0.068-3.949-1.839-3.949-4.084
			c0-2.179,1.838-3.949,4.016-3.949c2.178,0,3.949,1.837,3.949,4.017C16.114,17.879,14.343,19.65,12.098,19.65L12.098,19.65z"/>
		<path fill="#FFFFFF" d="M32.163,16.804l2.474,0.17l0.061,1.775c0.02,0.585,0.379,1.106,0.92,1.332
			c0.865,0.362,1.487,0.706,1.959,1.082c0.273,0.218,0.604,0.328,0.936,0.328c0.289,0,0.58-0.083,0.833-0.252l1.416-0.946
			l1.642,1.934l-1.166,1.223c-0.411,0.431-0.528,1.064-0.298,1.614c0.336,0.804,0.55,1.497,0.653,2.118
			c0.101,0.608,0.563,1.092,1.166,1.221l1.728,0.369l-0.228,2.458L42.61,31.29c-0.6,0.022-1.128,0.4-1.344,0.959
			c-0.32,0.83-0.683,1.538-1.142,2.227c-0.339,0.508-0.335,1.171,0.008,1.676l0.889,1.306l-1.952,1.607l-1.091-1.034
			c-0.285-0.27-0.656-0.411-1.032-0.411c-0.213,0-0.428,0.045-0.629,0.139c-0.871,0.403-1.697,0.679-2.523,0.844
			c-0.59,0.118-1.052,0.576-1.175,1.165l-0.288,1.382l-2.473-0.23l-0.059-1.451c-0.024-0.598-0.401-1.124-0.959-1.339
			c-0.801-0.309-1.55-0.723-2.226-1.23c-0.267-0.2-0.583-0.301-0.901-0.301c-0.301,0-0.602,0.09-0.86,0.271l-1.162,0.814
			l-1.599-1.954l1.034-1.092c0.433-0.458,0.534-1.138,0.252-1.702c-0.334-0.669-0.561-1.407-0.673-2.196
			c-0.09-0.634-0.573-1.14-1.201-1.261l-1.495-0.288l0.229-2.467l1.583-0.061c0.599-0.023,1.127-0.4,1.342-0.96
			c0.319-0.827,0.682-1.535,1.142-2.226c0.329-0.494,0.336-1.136,0.017-1.637L23.471,20.5l1.951-1.608l1.136,1.137
			c0.288,0.288,0.672,0.44,1.061,0.44c0.227,0,0.457-0.052,0.669-0.158c0.597-0.298,1.371-0.546,2.368-0.76
			c0.573-0.123,1.022-0.569,1.149-1.141L32.163,16.804 M32.091,35.461c3.349,0,6.168-2.558,6.415-5.786
			c0.171-1.668-0.323-3.307-1.39-4.615c-1.091-1.336-2.645-2.168-4.411-2.344c-0.166-0.013-0.33-0.019-0.494-0.019
			c-3.268,0-6.09,2.542-6.428,5.825c-0.266,3.461,2.322,6.563,5.809,6.92C31.759,35.454,31.925,35.461,32.091,35.461 M31.912,15.285
			c-0.557,0-1.034,0.393-1.161,0.961l-0.409,1.838c-0.953,0.205-1.905,0.477-2.723,0.885l-1.361-1.362
			c-0.238-0.204-0.544-0.306-0.842-0.306c-0.298,0-0.588,0.102-0.792,0.306l-2.314,1.907c-0.478,0.341-0.614,1.09-0.205,1.634
			l0.953,1.498c-0.544,0.817-0.953,1.635-1.293,2.519l-1.769,0.068c-0.681,0-1.157,0.477-1.226,1.09l-0.272,2.928
			c0,0.681,0.408,1.225,0.952,1.361l1.771,0.341c0.136,0.953,0.408,1.837,0.816,2.655l-1.225,1.293
			c-0.409,0.476-0.409,1.157,0,1.634l1.838,2.247c0.243,0.325,0.584,0.481,0.949,0.481c0.247,0,0.505-0.071,0.752-0.208l1.362-0.954
			c0.817,0.614,1.703,1.09,2.588,1.431l0.069,1.702c0,0.611,0.476,1.157,1.088,1.157l2.927,0.272
			c0.05,0.005,0.098,0.007,0.147,0.007c0.612,0,1.09-0.392,1.216-0.961l0.341-1.633c1.021-0.204,1.974-0.544,2.859-0.953
			l1.294,1.225c0.239,0.204,0.528,0.307,0.817,0.307s0.578-0.102,0.816-0.307l2.315-1.905c0.478-0.342,0.546-1.09,0.204-1.634
			l-1.02-1.498c0.544-0.816,0.952-1.634,1.293-2.519l1.837-0.068c0.612,0,1.158-0.476,1.226-1.09L46,28.704
			c0-0.681-0.408-1.226-1.021-1.362l-1.906-0.408c-0.136-0.818-0.408-1.635-0.749-2.451l1.363-1.43c0.409-0.477,0.409-1.158,0-1.635
			l-1.907-2.245c-0.212-0.297-0.582-0.462-0.963-0.462c-0.231,0-0.465,0.06-0.671,0.188l-1.633,1.09
			c-0.682-0.544-1.499-0.952-2.315-1.294l-0.068-1.974c0-0.613-0.545-1.157-1.089-1.225l-2.997-0.205
			C32,15.287,31.955,15.285,31.912,15.285L31.912,15.285z M32.091,33.961c-0.128,0-0.257-0.005-0.387-0.015
			c-2.655-0.272-4.63-2.655-4.426-5.31c0.26-2.528,2.433-4.439,4.932-4.439c0.126,0,0.252,0.005,0.379,0.015
			c2.723,0.272,4.697,2.655,4.425,5.31C36.82,32.05,34.649,33.961,32.091,33.961L32.091,33.961z"/>
	</g>
</g>
<g id="Capa_4">
</g>
</svg>
