<?xml version="1.0" encoding="utf-8"?>
<!-- Generator: Adobe Illustrator 17.0.0, SVG Export Plug-In . SVG Version: 6.00 Build 0)  -->
<!DOCTYPE svg PUBLIC "-//W3C//DTD SVG 1.1//EN" "http://www.w3.org/Graphics/SVG/1.1/DTD/svg11.dtd">
<svg version="1.1" xmlns="http://www.w3.org/2000/svg" xmlns:xlink="http://www.w3.org/1999/xlink" x="0px" y="0px"
	 width="42.796px" height="42.796px" viewBox="0 0 42.796 42.796" enable-background="new 0 0 42.796 42.796" xml:space="preserve">
<g id="Layer_3">
</g>
<g id="Layer_2">
	<g id="XMLID_205_">
		<g>
			<g>
				<g id="XMLID_63_">
					<g>
						<g>
							<path fill="#993300" d="M31.493,39.975c-3.111,1.705-6.634,2.604-10.204,2.604c-7.277,0-13.979-3.664-17.924-9.8
								c-0.57-0.88-1.067-1.803-1.474-2.734C0.636,27.29,0,24.344,0,21.289C0,9.551,9.55,0,21.289,0
								c3.056,0,6.002,0.633,8.752,1.881c0.964,0.431,1.887,0.934,2.736,1.491c6.137,3.937,9.802,10.635,9.802,17.917
								c0,3.569-0.9,7.093-2.604,10.204l2.821,11.302L31.493,39.975z M41.2,41.2l-2.464-9.872l0.113-0.201
								c1.68-2.987,2.568-6.389,2.568-9.838c0-6.884-3.464-13.216-9.272-16.942c-0.802-0.527-1.669-1-2.58-1.406
								c-2.602-1.18-5.386-1.778-8.275-1.778c-11.098,0-20.127,9.029-20.127,20.127c0,2.887,0.601,5.671,1.79,8.283
								c0.386,0.881,0.853,1.748,1.389,2.578c3.732,5.803,10.067,9.267,16.948,9.267c3.449,0,6.85-0.888,9.838-2.568l0.201-0.113
								L41.2,41.2z"/>
						</g>
					</g>
				</g>
			</g>
		</g>
	</g>
</g>
<g id="Capa_4">
</g>
</svg>
