<?xml version="1.0" encoding="utf-8"?>
<!-- Generator: Adobe Illustrator 17.0.0, SVG Export Plug-In . SVG Version: 6.00 Build 0)  -->
<!DOCTYPE svg PUBLIC "-//W3C//DTD SVG 1.1//EN" "http://www.w3.org/Graphics/SVG/1.1/DTD/svg11.dtd">
<svg version="1.1" xmlns="http://www.w3.org/2000/svg" xmlns:xlink="http://www.w3.org/1999/xlink" x="0px" y="0px" width="75px"
	 height="74.999px" viewBox="0 0 75 74.999" enable-background="new 0 0 75 74.999" xml:space="preserve">
<g id="Layer_3">
</g>
<g id="Layer_2">
	<g id="XMLID_75_">
		<g>
			<g>
				<g id="XMLID_63_">
					<g>
						<g>
							<path fill="#343434" d="M55.192,70.055c-5.453,2.988-11.626,4.564-17.882,4.564c-12.754,0-24.497-6.421-31.413-17.174
								c-0.998-1.542-1.869-3.16-2.583-4.792C1.115,47.825,0,42.663,0,37.309C0,16.737,16.737,0,37.31,0
								c5.355,0,10.518,1.11,15.338,3.296c1.69,0.755,3.306,1.636,4.795,2.614c10.756,6.9,17.177,18.639,17.177,31.4
								c0,6.256-1.577,12.43-4.564,17.883L75,74.999L55.192,70.055z M72.202,72.202l-4.318-17.3l0.199-0.353
								c2.944-5.235,4.5-11.196,4.5-17.24c0-12.064-6.071-23.161-16.249-29.691c-1.406-0.924-2.926-1.752-4.521-2.464
								c-4.56-2.069-9.439-3.117-14.502-3.117c-19.45,0-35.273,15.823-35.273,35.272c0,5.06,1.053,9.939,3.137,14.515
								c0.676,1.545,1.495,3.064,2.435,4.517c6.54,10.169,17.643,16.241,29.701,16.241c6.043,0,12.005-1.556,17.24-4.5l0.353-0.198
								L72.202,72.202z"/>
						</g>
					</g>
				</g>
			</g>
		</g>
	</g>
</g>
<g id="Capa_4">
</g>
</svg>
