<?xml version="1.0" encoding="utf-8"?>
<!-- Generator: Adobe Illustrator 17.0.0, SVG Export Plug-In . SVG Version: 6.00 Build 0)  -->
<!DOCTYPE svg PUBLIC "-//W3C//DTD SVG 1.1//EN" "http://www.w3.org/Graphics/SVG/1.1/DTD/svg11.dtd">
<svg version="1.1" xmlns="http://www.w3.org/2000/svg" xmlns:xlink="http://www.w3.org/1999/xlink" x="0px" y="0px" width="78px"
	 height="78px" viewBox="0 0 78 78" enable-background="new 0 0 78 78" xml:space="preserve">
<g id="Layer_3">
</g>
<g id="Layer_2">
	<g id="XMLID_69_" opacity="0.85">
		<g>
			<g id="XMLID_70_">
				<g>
					<path fill="#EE4656" d="M1.5,39c0-13.245,6.885-24.9,17.265-31.56c1.53-1.005,3.135-1.875,4.815-2.625
						C28.275,2.685,33.495,1.5,39,1.5c20.7,0,37.5,16.8,37.5,37.5c0,5.49-1.185,10.71-3.33,15.42
						c-0.735,1.68-1.605,3.285-2.595,4.815C63.9,69.615,52.245,76.5,39,76.5c-6.66,0-12.915-1.74-18.33-4.785L1.5,76.5l4.785-19.17
						C3.24,51.915,1.5,45.66,1.5,39z"/>
				</g>
			</g>
		</g>
	</g>
	<rect x="-215.998" y="-125.5" fill="none" stroke="#00FF00" stroke-miterlimit="10" width="799.29" height="1027.268"/>
</g>
<g id="Capa_4">
</g>
</svg>
