<?xml version="1.0" encoding="utf-8"?>
<!-- Generator: Adobe Illustrator 16.0.0, SVG Export Plug-In . SVG Version: 6.00 Build 0)  -->
<!DOCTYPE svg PUBLIC "-//W3C//DTD SVG 1.1//EN" "http://www.w3.org/Graphics/SVG/1.1/DTD/svg11.dtd">
<svg version="1.1" xmlns="http://www.w3.org/2000/svg" xmlns:xlink="http://www.w3.org/1999/xlink" x="0px" y="0px" width="32px"
	 height="32px" viewBox="0 0 32 32" enable-background="new 0 0 32 32" xml:space="preserve">
<g id="Layer_3">
</g>
<g id="Layer_2">
	<rect x="-470.405" y="-498.451" fill="none" stroke="#00FF00" stroke-miterlimit="10" width="799.29" height="1027.268"/>
	<g>
		
			<rect x="0.557" y="23.337" transform="matrix(-0.7071 0.7071 -0.7071 -0.7071 30.7628 36.0625)" fill="#AAAAAA" width="14.71" height="2.131"/>
		<g>
			<path fill="#AAAAAA" d="M20.027,23.201c-6.005,0-10.891-4.887-10.891-10.891c0-6.006,4.885-10.891,10.891-10.891
				c6.005,0,10.891,4.885,10.891,10.891C30.918,18.314,26.032,23.201,20.027,23.201z M20.027,3.555
				c-4.828,0-8.755,3.928-8.755,8.756s3.928,8.755,8.755,8.755s8.755-3.927,8.755-8.755S24.855,3.555,20.027,3.555z"/>
		</g>
	</g>
</g>
<g id="Capa_4">
</g>
</svg>
