<?xml version="1.0" encoding="utf-8"?>
<!-- Generator: Adobe Illustrator 17.0.0, SVG Export Plug-In . SVG Version: 6.00 Build 0)  -->
<!DOCTYPE svg PUBLIC "-//W3C//DTD SVG 1.1//EN" "http://www.w3.org/Graphics/SVG/1.1/DTD/svg11.dtd">
<svg version="1.1" xmlns="http://www.w3.org/2000/svg" xmlns:xlink="http://www.w3.org/1999/xlink" x="0px" y="0px" width="70px"
	 height="70px" viewBox="0 0 70 70" enable-background="new 0 0 70 70" xml:space="preserve">
<g id="Layer_3">
</g>
<g id="Layer_2">
	<rect x="-397.32" y="-577.529" fill="none" stroke="#00FF00" stroke-miterlimit="10" width="799.29" height="1027.268"/>
	<g>
		<circle fill="#D0D2D3" cx="35" cy="35" r="34.18"/>
		<g>
			<g>
				<g>
					<path fill="#F1F1F2" d="M45.417,31.823H43.81v-4.243c0-4.582-3.696-8.309-8.234-8.309h-1.084c-4.544,0-8.238,3.727-8.238,8.309
						v4.243H24.65c-0.556,0-0.999,0.446-0.999,1v17.184c0,0.551,0.443,1.001,0.999,1.001h20.766c0.552,0,1.004-0.451,1.004-1.001
						V32.824C46.42,32.27,45.968,31.823,45.417,31.823z M36.466,42.459v3.216c0,0.554-0.452,0.998-1.004,0.998h-0.863
						c-0.552,0-0.997-0.444-0.997-0.998v-3.213c-0.634-0.447-1.053-1.182-1.053-2.016c0-1.372,1.113-2.483,2.481-2.483
						c1.371,0,2.481,1.111,2.481,2.483C37.512,41.28,37.098,42.014,36.466,42.459z M39.806,31.823h-9.549v-4.243
						c0-2.372,1.9-4.306,4.235-4.306h1.084c2.334,0,4.23,1.934,4.23,4.306V31.823z"/>
				</g>
			</g>
		</g>
	</g>
</g>
<g id="Capa_4">
</g>
</svg>
