<?xml version="1.0" encoding="utf-8"?>
<!-- Generator: Adobe Illustrator 16.0.0, SVG Export Plug-In . SVG Version: 6.00 Build 0)  -->
<!DOCTYPE svg PUBLIC "-//W3C//DTD SVG 1.1//EN" "http://www.w3.org/Graphics/SVG/1.1/DTD/svg11.dtd">
<svg version="1.1" xmlns="http://www.w3.org/2000/svg" xmlns:xlink="http://www.w3.org/1999/xlink" x="0px" y="0px" width="32px"
	 height="32px" viewBox="0 0 32 32" enable-background="new 0 0 32 32" xml:space="preserve">
<g id="Layer_3">
</g>
<g id="Layer_2">
	<circle fill="#1CB7EB" cx="16" cy="16" r="15"/>
	<g>
		<g>
			<path fill="#FFFFFF" d="M24.492,10.777c-0.671,0.298-1.393,0.499-2.149,0.589c0.773-0.463,1.366-1.195,1.646-2.069
				c-0.723,0.429-1.524,0.74-2.376,0.907c-0.683-0.727-1.655-1.181-2.732-1.181c-2.066,0-3.742,1.675-3.742,3.741
				c0,0.293,0.033,0.579,0.098,0.853c-3.109-0.156-5.867-1.646-7.712-3.91c-0.322,0.553-0.507,1.196-0.507,1.882
				c0,1.298,0.662,2.443,1.665,3.114c-0.613-0.02-1.19-0.188-1.695-0.469c0,0.016,0,0.032,0,0.048c0,1.812,1.291,3.324,3.002,3.668
				c-0.314,0.086-0.645,0.132-0.986,0.132c-0.241,0-0.476-0.023-0.704-0.066c0.477,1.485,1.857,2.567,3.495,2.598
				c-1.281,1.004-2.894,1.602-4.647,1.602c-0.301,0-0.6-0.018-0.892-0.053c1.655,1.062,3.622,1.682,5.735,1.682
				c6.882,0,10.646-5.701,10.646-10.646c0-0.162-0.004-0.324-0.011-0.483C23.356,12.187,23.99,11.527,24.492,10.777L24.492,10.777z
				 M24.492,10.777"/>
		</g>
	</g>
	<rect x="-620.498" y="-241" fill="none" stroke="#00FF00" stroke-miterlimit="10" width="799.29" height="1027.268"/>
</g>
<g id="Capa_4">
</g>
</svg>
