<?xml version="1.0" encoding="utf-8"?>
<!-- Generator: Adobe Illustrator 17.0.0, SVG Export Plug-In . SVG Version: 6.00 Build 0)  -->
<!DOCTYPE svg PUBLIC "-//W3C//DTD SVG 1.1//EN" "http://www.w3.org/Graphics/SVG/1.1/DTD/svg11.dtd">
<svg version="1.1" xmlns="http://www.w3.org/2000/svg" xmlns:xlink="http://www.w3.org/1999/xlink" x="0px" y="0px" width="47px"
	 height="47px" viewBox="0 0 47 47" enable-background="new 0 0 47 47" xml:space="preserve">
<g id="Layer_3">
</g>
<g id="Layer_2">
	<rect x="-415.905" y="-864.77" fill="none" stroke="#00FF00" stroke-miterlimit="10" width="799.29" height="1027.268"/>
	<g>
		<g>
			<path fill="#FFFFFF" d="M32.814,7.614c0.499,0,1.004,0.072,1.503,0.225l0.498,0.083l-3.645,3.726l3.064,3.064l3.644-3.726
				l0.165,0.58c0.496,1.904,0,3.891-1.408,5.299c-1.005,1.005-2.387,1.559-3.789,1.559c-0.678,0-1.36-0.129-2.008-0.399l-5.63,5.549
				c1.077,1.075,2.152,2.069,3.56,3.56l0.746-0.827c0.165-0.167,0.413-0.249,0.661-0.249c0.248,0,0.414,0.083,0.579,0.249
				l8.612,8.611c0.165,0.165,0.249,0.414,0.249,0.663c0,0.248-0.083,0.414-0.249,0.579l-2.898,2.982
				c-0.166,0.165-0.414,0.247-0.662,0.247c-0.248,0-0.415-0.083-0.581-0.247l-8.61-8.613c-0.166-0.165-0.331-0.414-0.331-0.662
				c0-0.165,0.165-0.413,0.331-0.58l0.744-0.744c-1.408-1.408-2.485-2.485-3.56-3.561l-2.485,2.566l-4.802,4.803
				c0.58,1.574,0.166,3.479-1.16,4.803c-0.911,0.911-2.111,1.367-3.312,1.367c-1.201,0-2.401-0.456-3.312-1.367
				c-1.822-1.904-1.822-4.885,0-6.707c0.928-0.87,2.099-1.334,3.287-1.334c0.508,0,1.019,0.085,1.515,0.259l7.287-7.37
				c-1.573-1.574-3.56-3.479-6.458-6.46c0,0,0,0-0.083,0l-2.733-1.572c-0.083-0.083-0.083-0.083-0.166-0.167l-1.823-2.732
				c-0.165-0.166-0.165-0.332,0-0.498l1.244-1.16c0.048-0.097,0.154-0.137,0.266-0.137c0.079,0,0.162,0.02,0.23,0.054l2.733,1.906
				l0.083,0.083l1.654,2.815c2.982,3.064,4.97,4.969,6.46,6.459l5.63-5.549c-0.827-1.986-0.414-4.306,1.159-5.88
				C30.057,8.186,31.411,7.614,32.814,7.614 M32.814,6.231L32.814,6.231c-1.739,0-3.423,0.683-4.742,1.923
				c-1.743,1.743-2.394,4.205-1.796,6.506l-4.044,3.986c-0.161-0.159-0.328-0.323-0.5-0.493c-1.261-1.242-2.824-2.781-4.856-4.867
				l-1.57-2.671c-0.059-0.101-0.132-0.195-0.215-0.278l-0.083-0.083c-0.057-0.057-0.12-0.109-0.186-0.156l-2.733-1.906
				c-0.054-0.038-0.112-0.072-0.171-0.102c-0.262-0.131-0.556-0.201-0.85-0.201c-0.521,0-0.996,0.223-1.306,0.599L8.616,9.559
				C8.603,9.57,8.591,9.582,8.579,9.594c-0.666,0.668-0.705,1.621-0.117,2.322l1.768,2.651c0.049,0.074,0.105,0.142,0.167,0.205
				l0.171,0.172c0.086,0.086,0.183,0.16,0.288,0.221l2.733,1.572c0.007,0.004,0.014,0.008,0.021,0.011
				c1.924,1.973,3.455,3.483,4.694,4.705c0.193,0.191,0.381,0.375,0.562,0.555l-5.756,5.821c-0.36-0.067-0.726-0.101-1.093-0.101
				c-1.555,0-3.059,0.607-4.233,1.708c-2.367,2.365-2.377,6.241-0.053,8.67c1.163,1.165,2.686,1.794,4.311,1.794
				s3.148-0.63,4.29-1.773c1.45-1.448,2.081-3.475,1.725-5.368l4.237-4.237l1.523-1.573l0.394,0.394l1.209,1.209
				c-0.25,0.312-0.516,0.771-0.516,1.312c0,0.788,0.462,1.366,0.737,1.641l8.609,8.611c0.437,0.434,0.96,0.652,1.558,0.652
				c0.625,0,1.221-0.237,1.636-0.649l2.915-2.999C40.78,36.702,41,36.178,41,35.578c0-0.628-0.238-1.226-0.654-1.641l-8.612-8.611
				c-0.429-0.433-0.954-0.654-1.557-0.654c-0.522,0-1.023,0.165-1.416,0.461c-0.553-0.56-1.057-1.052-1.551-1.533
				c-0.01-0.01-0.02-0.02-0.03-0.03l4.028-3.971c0.532,0.136,1.08,0.204,1.639,0.204c1.781,0,3.518-0.716,4.766-1.963
				c1.736-1.736,2.397-4.213,1.768-6.625l-0.174-0.61c-0.135-0.474-0.512-0.84-0.99-0.961c-0.112-0.029-0.226-0.042-0.34-0.042
				c-0.367,0-0.725,0.147-0.988,0.416l-2.667,2.727l-1.109-1.109l2.689-2.748c0.36-0.368,0.486-0.906,0.326-1.396
				c-0.16-0.49-0.579-0.85-1.088-0.934l-0.414-0.069C34.037,6.318,33.427,6.231,32.814,6.231L32.814,6.231z"/>
		</g>
		<circle fill-rule="evenodd" clip-rule="evenodd" fill="#FFFFFF" cx="11.986" cy="33.656" r="1.829"/>
	</g>
</g>
<g id="Capa_4">
</g>
</svg>
