<?xml version="1.0" encoding="utf-8"?>
<!-- Generator: Adobe Illustrator 16.0.0, SVG Export Plug-In . SVG Version: 6.00 Build 0)  -->
<!DOCTYPE svg PUBLIC "-//W3C//DTD SVG 1.1//EN" "http://www.w3.org/Graphics/SVG/1.1/DTD/svg11.dtd">
<svg version="1.1" id="Capa_1" xmlns="http://www.w3.org/2000/svg" xmlns:xlink="http://www.w3.org/1999/xlink" x="0px" y="0px"
	 width="300px" height="300px" viewBox="0 0 300 300" enable-background="new 0 0 300 300" xml:space="preserve">
<polygon fill="#BBB" points="52.467,24.8 57.02,23.797 59.555,20.748 65.123,21.252 71.196,24.8 75.44,12.604 85.071,14.624 
	85.566,20.704 83.033,24.25 83.539,33.859 82.025,41.451 94.177,41.451 100.759,51.077 102.777,53.104 107.836,53.608 112.4,48.549 
	135.683,26.78 138.218,21.714 154.422,15.139 158.986,13.614 174.879,17.776 179.441,11.7 186.529,16.764 184.303,20.704 
	193.41,23.23 196.951,31.837 197.463,36.905 208.094,39.94 208.607,44.49 213.676,46.025 217.713,48.549 215.688,52.603 
	218.047,65.676 218.047,71.279 226.099,71.792 250.242,88.077 263.416,90.789 269.268,94.856 279.511,111.835 283.9,115.225 
	296.353,118.622 297.812,121.336 297.812,137.625 300,142.382 298.533,149.844 299.269,153.917 201.212,153.917 162.425,221.108 
	162.425,227.893 174.879,233.334 174.879,239.438 169.019,249.615 171.208,257.082 174.145,262.51 173.404,271.332 166.824,280.844 
	164.628,286.941 163.172,288.3 158.046,287.631 149.994,278.797 149.994,276.082 117.213,245.631 114.186,241.505 117.213,240.119 
	117.213,239.016 111.686,235.703 110.585,237.915 100.646,232.392 81.867,214.721 52.042,193.73 18.925,174.954 25.544,172.751 
	21.125,167.229 5.064,162.468 7.599,156.396 5.567,150.834 8.091,143.733 0,130.063 7.091,114.876 5.064,106.277 9.614,104.761 
	17.211,99.69 16.204,90.58 19.747,88.548 18.739,76.902 33.925,65.77 39.483,61.711 48.097,48.045 49.117,40.964 55.19,35.891 "/>
</svg>
