<?xml version="1.0" encoding="utf-8"?>
<!-- Generator: Adobe Illustrator 18.0.0, SVG Export Plug-In . SVG Version: 6.00 Build 0)  -->
<!DOCTYPE svg PUBLIC "-//W3C//DTD SVG 1.1//EN" "http://www.w3.org/Graphics/SVG/1.1/DTD/svg11.dtd">
<svg version="1.1" id="Capa_1" xmlns="http://www.w3.org/2000/svg" xmlns:xlink="http://www.w3.org/1999/xlink" x="0px" y="0px"
	 viewBox="0 0 143.42 89.847" enable-background="new 0 0 143.42 89.847" xml:space="preserve">
<polygon fill="#BBB" points="118.297,81.252 115.92,81.252 114.971,82.206 108.784,79.825 85.951,76.018 80.247,73.159 
	79.294,70.308 77.657,70.471 75.96,69.363 52.181,61.27 38.38,56.513 36.482,53.186 25.537,47.476 22.685,43.671 20.779,43.671 
	17.925,42.244 12.697,34.634 6.984,30.825 3.655,30.353 0.582,32.856 0,29.367 0.295,25.878 2.912,23.264 7.273,22.389 
	11.341,20.645 10.178,16.571 10.178,12.797 9.887,10.756 12.502,8.433 15.699,8.724 19.189,8.143 20.641,9.886 22.973,11.628 
	25.88,11.628 31.115,9.886 34.312,11.923 37.511,12.209 40.709,11.923 42.747,14.535 45.945,13.08 48.273,13.955 51.179,15.987 
	52.92,17.444 55.248,15.7 55.825,12.797 53.21,9.012 54.662,5.521 56.992,3.488 59.314,0 60.48,5.521 60.772,10.756 63.387,13.955 
	66.88,15.7 69.493,12.502 71.525,11.923 73.565,7.561 77.927,6.689 82.288,6.393 84.618,3.2 86.649,2.325 88.972,4.07 91.594,4.648 
	92.173,6.393 93.918,7.561 94.792,9.597 96.534,10.467 96.534,12.502 98.86,14.247 100.901,13.668 101.187,10.178 103.515,10.756 
	104.97,14.247 107.005,16.861 107.586,19.774 109.911,20.936 112.817,23.264 113.688,25.006 117.47,25.586 117.182,27.911 
	118.053,29.949 121.25,31.691 125.027,29.949 129.097,31.399 130.556,33.146 130.334,35.547 130.334,38.813 130.122,43.615 
	129.902,47.976 132.08,51.03 133.604,54.95 134.045,57.789 136.444,59.095 137.75,63.243 140.803,65.204 142.549,72.401 
	143.42,73.707 142.768,76.982 139.277,78.944 138.843,80.906 132.304,82.866 130.556,87.226 126.483,89.847 "/>
</svg>
