<?xml version="1.0" encoding="utf-8"?>
<!-- Generator: Adobe Illustrator 18.0.0, SVG Export Plug-In . SVG Version: 6.00 Build 0)  -->
<!DOCTYPE svg PUBLIC "-//W3C//DTD SVG 1.1//EN" "http://www.w3.org/Graphics/SVG/1.1/DTD/svg11.dtd">
<svg version="1.1" id="Capa_1" xmlns="http://www.w3.org/2000/svg" xmlns:xlink="http://www.w3.org/1999/xlink" x="0px" y="0px"
	 viewBox="0 0 127.585 137.827" enable-background="new 0 0 127.585 137.827" xml:space="preserve">
<polyline fill="#BBB" points="19.666,129.572 17.236,128.668 14.857,126.288 19.144,129.145 19.623,126.766 16.29,126.766 
	12.96,124.388 10.108,120.582 9.158,116.773 5.35,114.398 5.353,108.878 3.364,105.893 7.083,102.062 5.652,94.93 0,88.768 
	1.064,83.967 0.117,81.762 3.92,79.859 3.92,77.478 2.125,75.069 6.187,70.13 7.645,67.804 5.316,64.553 9.101,64.841 
	12.004,62.228 14.622,61.06 16.948,62.509 18.985,64.258 21.888,64.553 25.38,68.916 27.707,69.784 31.199,73.273 31.775,66.003 
	34.974,63.972 35.845,61.643 35.845,59.317 34.397,57.281 34.397,55.532 40.5,54.662 42.828,52.337 43.265,50.08 35.412,44.268 
	38.324,33.726 35.412,31.113 32.068,27.766 29.307,24.714 31.417,18.938 38.463,16.571 42.244,16.863 43.991,13.956 43.698,9.303 
	41.084,7.558 40.792,3.783 41.661,0 49.801,1.161 49.223,4.363 46.605,6.107 46.896,10.468 45.733,13.374 46.605,18.607 
	49.515,12.792 49.515,8.429 50.972,5.236 55.038,8.429 54.459,10.759 52.714,16.571 53.003,19.48 52.714,21.513 54.166,23.554 
	56.785,22.099 59.98,23.554 60.854,20.066 62.884,18.896 62.884,14.829 61.437,13.085 61.729,11.047 64.054,8.429 70.158,13.374 
	68.992,15.409 67.545,15.992 68.123,17.151 71.322,16.281 73.94,18.029 73.36,20.351 70.158,22.681 72.193,25.005 70.449,27.044 
	70.449,28.494 68.415,29.947 65.506,28.204 62.884,30.236 60.562,31.692 56.492,37.219 56.785,43.61 54.166,45.649 51.844,44.485 
	50.386,45.362 50.098,50.885 48.059,56.12 52.128,55.828 53.587,58.152 55.91,58.735 58.235,59.609 60.273,59.317 62.6,61.348 
	65.506,60.479 68.415,61.348 70.158,62.228 72.486,60.479 71.322,56.407 72.193,54.085 78.589,55.828 80.334,53.505 82.661,52.918 
	83.244,50.595 86.155,50.595 86.733,49.139 85.28,47.683 87.024,47.105 86.733,43.325 82.661,41.874 80.334,40.13 81.502,38.382 
	84.116,36.638 87.897,37.507 93.712,39.255 99.817,40.13 105.048,36.054 107.086,32.274 111.736,30.53 109.993,27.332 
	113.192,26.173 118.713,29.076 123.366,32.564 126.496,31.692 127.585,33.221 124.967,35.619 126.058,37.797 124.967,39.979 
	123.003,41.507 121.257,43.688 121.698,45.868 123.441,48.706 123.655,50.885 121.257,51.975 118.645,52.409 114.718,58.299 
	109.924,64.188 108.396,67.674 105.345,70.948 105.995,75.09 109.924,76.615 111.011,78.581 109.047,79.455 104.906,82.505 
	105.345,85.34 101.416,86.649 98.798,86.431 96.18,87.518 94.438,87.083 91.82,87.74 91.386,89.266 88.55,89.701 87.46,91.229 
	85.495,91.447 83.533,90.793 75.357,92.865 73.94,93.916 71.322,95.08 70.449,98.861 71.03,102.35 73.068,100.895 75.688,101.475 
	78.884,101.475 80.334,103.514 82.373,102.931 85.568,104.965 81.785,110.78 83.824,113.399 84.985,116.594 84.116,119.506 
	89.06,118.053 90.8,121.248 85.568,128.521 80.916,127.645 78.884,129.682 76.558,131.136 68.415,136.95 66.673,137.827 
	66.382,135.784 64.631,134.331 61.729,137.238 59.402,136.079 58.53,134.331 56.785,132.298 57.656,127.645 57.073,123.869 
	55.038,121.831 53.295,119.799 50.676,119.217 46.896,120.954 39.338,119.217 38.463,120.376 35.269,123.574 31.484,123.869 
	28.291,124.738 25.38,125.025 23.633,126.484 21.888,125.611 19.854,129.682 "/>
</svg>
