<?xml version="1.0" encoding="utf-8"?>
<!-- Generator: Adobe Illustrator 18.0.0, SVG Export Plug-In . SVG Version: 6.00 Build 0)  -->
<!DOCTYPE svg PUBLIC "-//W3C//DTD SVG 1.1//EN" "http://www.w3.org/Graphics/SVG/1.1/DTD/svg11.dtd">
<svg version="1.1" id="Capa_1" xmlns="http://www.w3.org/2000/svg" xmlns:xlink="http://www.w3.org/1999/xlink" x="0px" y="0px"
	 viewBox="0 0 29.366 25.871" enable-background="new 0 0 29.366 25.871" xml:space="preserve">
<polygon fill="#BBB" points="13.376,23.257 11.921,19.766 9.593,19.188 9.308,22.678 7.267,23.257 4.94,21.512 4.94,19.476 
	3.198,18.606 2.324,16.57 0.579,15.402 0,13.657 2.033,11.626 1.742,9.591 3.198,6.101 6.107,4.937 6.107,2.906 8.142,0 
	11.921,0.289 14.247,1.155 18.029,0.289 21.81,2.612 21.224,5.233 23.55,4.937 26.459,4.356 27.623,3.19 29.366,2.906 29.366,5.812 
	27.33,7.264 26.166,11.045 29.366,13.657 27.623,15.402 28.498,22.09 27.33,23.257 26.166,21.512 23.55,20.348 19.48,24.131 
	15.411,25.871 "/>
</svg>
