<?xml version="1.0" encoding="utf-8"?>
<!-- Generator: Adobe Illustrator 18.0.0, SVG Export Plug-In . SVG Version: 6.00 Build 0)  -->
<!DOCTYPE svg PUBLIC "-//W3C//DTD SVG 1.1//EN" "http://www.w3.org/Graphics/SVG/1.1/DTD/svg11.dtd">
<svg version="1.1" id="Capa_1" xmlns="http://www.w3.org/2000/svg" xmlns:xlink="http://www.w3.org/1999/xlink" x="0px" y="0px"
	 viewBox="0 0 111 111" enable-background="new 0 0 111 111" xml:space="preserve">
<g>
	<g>
		<g>
			<path fill="#BBB" d="M89.816,88.436c0.671,0.198,0.789,0.532,0.451,1.032c-0.045,0.067-0.045,0.215-0.001,0.285
				c0.379,0.605-0.031,1.069-0.316,1.504c-0.244,0.372-0.51,0.086-0.723-0.139c-0.616-0.65-1.168-1.383-1.867-1.928
				c-1.243-0.968-2.577-1.819-3.868-2.726c-0.14-0.099-0.245-0.247-0.367-0.374c-0.116,0.017-0.346,0.124-0.518,0.063
				c-1.024-0.362-2.07-0.533-3.14-0.35c-0.398,0.068-0.775,0.297-1.142,0.489c-0.302,0.158-0.558,0.406-0.863,0.553
				c-0.688,0.331-1.375,0.685-2.099,0.917c-0.942,0.302-1.93,0.486-2.862-0.047c-0.67-0.383-1.376-0.624-2.135-0.581
				c-1.028,0.059-1.795-0.516-2.626-0.952c-0.101-0.053-0.198-0.15-0.302-0.158c-0.7-0.051-1.214-0.375-1.716-0.875
				c-0.276-0.275-0.834-0.282-1.273-0.373c-0.571-0.118-1.163-0.15-1.72-0.311c-0.442-0.127-0.844-0.393-1.264-0.596
				c-0.194-0.094-0.384-0.202-0.586-0.273c-0.818-0.286-1.631-0.591-2.463-0.83c-1.059-0.304-1.875-0.994-2.723-1.631
				c-0.517-0.389-0.955-0.884-1.473-1.272c-0.155-0.116-0.461-0.038-0.698-0.036c-0.141,0.001-0.297,0.072-0.421,0.031
				c-1.471-0.479-2.959-0.919-4.391-1.497c-0.43-0.174-0.697-0.749-1.044-1.135c-0.293-0.326-0.545-0.725-0.904-0.948
				c-0.628-0.39-1.308-0.707-1.996-0.983c-0.633-0.253-1.037-0.689-1.325-1.276c-0.143-0.293-0.317-0.571-0.448-0.868
				c-0.156-0.351-0.179-0.658,0.083-1.033c0.105-0.15-0.158-0.639-0.353-0.898c-0.367-0.487-0.369-1.094,0.101-1.5
				c-0.066-0.105-0.112-0.243-0.207-0.319c-0.724-0.581-0.772-0.889-0.288-1.714c0.078-0.133,0.073-0.321,0.086-0.485
				c0.023-0.285,0.03-0.571,0.048-0.926c-0.967-0.148-0.905-1.231-1.442-1.842c-0.081-0.092-0.083-0.291-0.061-0.431
				c0.179-1.157-0.368-1.968-1.139-2.766c-0.954-0.988-1.979-1.987-2.626-3.171c-0.66-1.209-1.649-1.931-2.673-2.683
				c-1.091-0.802-1.757-1.92-2.421-3.054c-0.14-0.239-0.39-0.421-0.61-0.603c-0.21-0.174-0.44-0.329-0.677-0.463
				c-0.185-0.104-0.4-0.235-0.595-0.225c-0.39,0.02-0.546-0.187-0.75-0.466c-0.182-0.249-0.5-0.398-0.838-0.527
				c-0.197-0.589-0.26-1.231,0.209-1.833c0.622-0.801,0.507-1.38-0.368-1.854c-0.191-0.103-0.569,0.038-0.682-0.09
				c-0.364-0.415-0.645-0.903-1.046-1.492c-0.589-0.023-1.272-0.373-1.601-1.097c-0.228-0.503-0.211-1.116-0.317-1.678
				c-0.028-0.148-0.081-0.389-0.163-0.408c-0.138-0.032-0.309,0.081-0.479,0.137c-0.885-0.393-1.473-1.122-1.904-2
				c-0.022-0.045-0.035-0.115-0.07-0.129c-0.988-0.388-1.165-1.486-1.855-2.112c-0.517-0.47-0.452-0.986-0.437-1.546
				c-0.441,0.057-0.632-0.1-0.558-0.574c0.029-0.187-0.03-0.415-0.119-0.588c-0.372-0.723-0.921-1.342-0.869-2.27
				c0.025-0.445-0.259-0.953-0.52-1.357c-0.386-0.596-0.516-1.171-0.25-1.836c0.079-0.197,0.105-0.414,0.155-0.619
				c-0.634-0.218-1.234-0.425-1.823-0.628c0.089-0.73-0.312-0.987-1.01-0.87c-0.319,0.053-0.723-0.16-1.031-0.347
				c-0.435-0.264-0.817-0.615-1.279-0.974c-0.178,0.755-0.379,1.332-0.428,1.922c-0.031,0.369,0.165,0.757,0.269,1.135
				c0.02,0.074,0.12,0.136,0.121,0.205c0.013,0.755,0.007,1.51,0.023,2.265c0.006,0.286-0.04,0.648,0.11,0.84
				c0.308,0.396,0.569,0.827,0.912,1.211c0.853,0.955,2.064,1.713,2.195,3.163c0.534,0.398,1.195,0.678,1.195,1.507
				c0,0.385,0.119,0.688,0.592,0.698c0.092,0.002,0.24,0.089,0.262,0.166c0.087,0.299,0.158,0.608,0.191,0.918
				c0.044,0.409-0.023,0.842,0.091,1.226c0.089,0.303,0.33,0.619,0.592,0.798c0.374,0.253,0.673,0.462,0.718,0.976
				c0.053,0.603,0.431,1.015,1.086,1.167c-0.271,0.452-0.066,0.619,0.299,0.846c0.438,0.272,0.885,0.497,1.017,1.209
				c0.152,0.821,0.456,1.602,0.494,2.476c0.024,0.543,0.266,1.133,0.81,1.549c0.266,0.203,0.27,0.734,0.425,1.102
				c0.124,0.296,0.326,0.56,0.44,0.859c0.137,0.358,0.367,0.768,0.298,1.102c-0.294,1.429-0.318,1.446,0.871,2.102
				c0.082-0.19,0.167-0.386,0.252-0.581c0.188,0.118,0.363,0.269,0.566,0.346c0.441,0.168,0.414,0.882,1.018,0.852
				c0.047-0.002,0.127,0.114,0.145,0.186c0.093,0.375,0.154,0.759,0.263,1.129c0.035,0.119,0.166,0.255,0.284,0.297
				c0.475,0.167,0.628,0.567,0.638,0.981c0.012,0.5-0.1,0.981-0.636,1.258c-0.286,0.148-0.5,0.427-0.768,0.618
				c-0.599,0.427-1.078,0.241-1.249-0.478c-0.077-0.324-0.11-0.659-0.192-0.981c-0.146-0.574-0.383-1.073-0.942-1.4
				c-0.379-0.222-0.686-0.568-1.021-0.862c-0.633-0.557-1.257-1.125-1.897-1.674c-0.351-0.301-0.729-0.573-1.037-0.919
				c-0.356,0.06-0.562-0.069-0.573-0.585c-0.003-0.145-0.287-0.283-0.439-0.427c-0.154-0.147-0.414-0.286-0.433-0.449
				c-0.048-0.433-0.102-0.92,0.046-1.31c0.465-1.222,0.163-2.228-0.409-3.367c-0.339-0.676-0.906-0.722-1.316-1.112
				c-0.56-0.534-1.146-1.041-1.726-1.554c-0.098-0.087-0.221-0.145-0.329-0.214c-0.581,0.447-0.769,0.419-1.187-0.193
				c-0.183-0.268-0.552-0.411-0.684-0.572c-0.464-0.567-1.416-0.633-1.604-1.225c-0.288-0.909-1.104-1.226-1.572-1.891
				c-0.137-0.195-0.19-0.45-0.334-0.809c0.658,0.212,1.119,0.381,1.592,0.503c0.157,0.04,0.386,0.012,0.511-0.08
				c0.381-0.284,0.737-0.604,1.078-0.935c0.067-0.065,0.027-0.243,0.032-0.37c0.007-0.185-0.057-0.413,0.028-0.547
				c0.305-0.479,0.064-0.812-0.212-1.178c-0.607-0.803-1.191-1.624-1.789-2.435c-0.097-0.132-0.194-0.32-0.328-0.361
				c-0.86-0.262-1.393-0.953-2.003-1.527c-0.413-0.389-0.649-0.925-0.527-1.525c0.104-0.516,0.052-0.908-0.434-1.253
				c-0.18-0.127-0.221-0.588-0.173-0.87c0.098-0.576-0.142-0.909-0.595-1.184c-0.089-0.054-0.169-0.239-0.146-0.34
				c0.162-0.706-0.14-1.2-0.638-1.66c-0.163-0.151-0.208-0.438-0.288-0.668c-0.064-0.184-0.1-0.378-0.162-0.621
				c0.106-0.039,0.234-0.087,0.411-0.153c-0.115-0.122-0.255-0.218-0.321-0.35c-0.311-0.619-0.689-1.223-0.879-1.88
				c-0.278-0.965-0.431-1.968-0.598-2.962c-0.021-0.124,0.196-0.413,0.305-0.414c2.501-0.021,5.003-0.013,7.505-0.008
				c0.045,0,0.091,0.034,0.176,0.068c0,0.187,0.061,0.41-0.011,0.576c-0.212,0.488,0.062,0.649,0.431,0.851
				c3.54,1.935,7.069,3.89,10.61,5.823c0.277,0.151,0.623,0.245,0.937,0.247c2.635,0.019,5.27,0.011,7.906,0.011
				c0.179,0,0.358,0,0.603,0c0-0.413,0.015-0.776-0.005-1.136c-0.017-0.311,0.11-0.4,0.408-0.4c1.117,0,2.234-0.029,3.351-0.028
				c0.207,0,0.46,0.033,0.612,0.152c0.65,0.508,1.905,0.167,2.019,1.427c0.003,0.034,0.07,0.071,0.113,0.093
				c1.18,0.579,1.842,1.646,2.545,2.68c0.111,0.163,0.304,0.294,0.487,0.382c0.813,0.389,1.42,0.962,1.698,1.837
				c0.085,0.269,0.174,0.552,0.175,0.83c0.011,1.766,1.206,2.605,2.555,3.344c0.712,0.39,1.408,0.811,2.106,1.226
				c0.259,0.154,0.47,0.16,0.61-0.14c0.292-0.626,0.567-1.261,0.87-1.881c0.104-0.213,0.23-0.49,0.419-0.574
				c0.555-0.247,1.142-0.424,1.723-0.607c0.772-0.243,1.561-0.322,2.308,0.05c0.331,0.165,0.607,0.45,0.885,0.706
				c0.188,0.173,0.297,0.481,0.508,0.571c1.112,0.471,1.474,1.508,1.97,2.461c0.472,0.906,0.985,1.791,1.491,2.679
				c0.106,0.186,0.334,0.328,0.378,0.52c0.149,0.644,0.454,1.098,1.127,1.287c0.132,0.037,0.256,0.295,0.288,0.469
				c0.25,1.36,0.729,2.626,1.494,3.779c0.099,0.149,0.216,0.328,0.367,0.395c0.721,0.317,1.456,0.603,2.187,0.895
				c0.17,0.068,0.385,0.074,0.513,0.185c0.532,0.46,1.161,0.393,1.792,0.426c0.351,0.019,0.688,0.23,1.039,0.325
				c0.192,0.052,0.403,0.08,0.599,0.057c0.22-0.026,0.433-0.12,0.799-0.23c-0.061,0.616-0.029,1.155-0.181,1.637
				c-0.249,0.792-0.611,1.549-0.94,2.315c-0.061,0.141-0.224,0.238-0.282,0.379c-0.114,0.28-0.218,0.572-0.268,0.869
				c-0.061,0.358-0.087,0.725-0.086,1.089c0.007,1.788,0.034,3.576,0.037,5.364c0,0.242-0.038,0.528-0.168,0.717
				c-0.285,0.414-0.176,0.808-0.08,1.232c0.268,1.194,0.836,2.197,1.795,2.976c0.338,0.275,0.219,1.176-0.174,1.542
				c0.58,1.289,1.196,2.548,2.309,3.492c1.002,0.849,1.436,2.036,1.836,3.238c0.057,0.172,0.204,0.404,0.349,0.438
				c0.396,0.093,0.371,0.358,0.377,0.645c0.019,1.007,1.002,1.993,2.022,1.994c1.293,0.002,2.409,0.488,3.324,1.341
				c0.908,0.846,1.951,0.836,2.907,0.422c1.08-0.468,2.15-0.764,3.312-0.813c0.168-0.007,0.425-0.127,0.479-0.26
				c0.45-1.112,1.361-1.464,2.446-1.562c0.425-0.039,0.866-0.367,1.262,0.064c0.133,0.145,0.245,0.311,0.355,0.452
				c0.263-0.253,0.581-0.542,0.87-0.859c0.036-0.039-0.057-0.287-0.141-0.326c-0.172-0.078-0.379-0.079-0.754-0.143
				c0.279-0.279,0.463-0.499,0.684-0.676c0.581-0.465,1.229-0.859,1.742-1.387c0.233-0.24,0.263-0.726,0.288-1.106
				c0.032-0.469,0.119-0.863,0.486-1.203c0.126-0.117,0.113-0.423,0.103-0.64c-0.042-0.956-0.101-1.887,0.141-2.856
				c0.414-1.659,1.75-1.934,3.056-2.31c0.688-0.198,1.398-0.318,2.085-0.52c0.339-0.1,0.646-0.304,0.967-0.463
				c0.059-0.029,0.109-0.09,0.17-0.102c0.773-0.149,1.545-0.399,2.32-0.406c0.822-0.007,1.647,0.219,2.47,0.344
				c0.475,0.072,0.743,0.316,0.752,0.828c0.019,1.161-0.166,2.268-0.957,3.167c-0.526,0.598-0.656,1.208-0.435,1.976
				c0.077,0.267-0.125,0.63-0.242,0.932c-0.079,0.203-0.233,0.377-0.351,0.56c0.27,0.041,0.472,0.073,0.674,0.104
				c-0.101,0.377-0.202,0.754-0.313,1.169c0.033,0.006,0.197,0.033,0.425,0.072c-0.025,0.168-0.041,0.324-0.071,0.477
				c-0.199,1.013-0.393,2.027-0.609,3.036c-0.036,0.168-0.171,0.316-0.26,0.473c-0.17-0.116-0.415-0.193-0.497-0.354
				c-0.286-0.559-0.516-1.147-0.757-1.701c-0.027,0.102-0.043,0.366-0.166,0.563c-0.161,0.257-0.379,0.614-0.621,0.657
				c-0.53,0.095-0.622,0.433-0.779,0.836c-0.175,0.45-0.459,0.858-0.696,1.284c-0.695-0.268-1.037,0.479-1.589,0.56
				c-1.649,0.242-3.306,0.426-4.96,0.634c-0.163,0.021-0.323,0.059-0.537,0.1c0,0.488-0.03,0.97,0.008,1.447
				c0.039,0.479-0.079,0.742-0.615,0.661c-0.091-0.014-0.19,0.02-0.34,0.168c0.453,0.24,0.908,0.476,1.358,0.721
				c0.227,0.124,0.512,0.216,0.654,0.408c0.286,0.387,0.472,0.847,1.046,0.907c0.08,0.008,0.184,0.19,0.203,0.303
				c0.053,0.326,0.069,0.658,0.098,0.988c0.037,0.433-0.121,0.603-0.594,0.587c-1.15-0.038-2.302-0.032-3.452,0.005
				c-0.223,0.007-0.523,0.186-0.643,0.376C90.833,86.626,90.355,87.501,89.816,88.436z M69.912,66.595
				c0.023,0.022,0.046,0.045,0.07,0.065c0.001,0.001,0.016-0.015,0.024-0.023c-0.037-0.009-0.073-0.019-0.11-0.028
				c0-0.047,0-0.093,0-0.073C69.89,66.513,69.899,66.555,69.912,66.595z M69.735,66.16c0.025-0.031,0.049-0.061,0.074-0.092
				c-0.097-0.085-0.194-0.169-0.291-0.254c-0.028,0.036-0.055,0.072-0.083,0.108C69.535,66.002,69.635,66.081,69.735,66.16z"/>
			<path fill="#EE4455" d="M69.735,66.16c-0.1-0.079-0.2-0.158-0.3-0.238c0.028-0.036,0.055-0.072,0.083-0.108
				c0.097,0.085,0.194,0.169,0.291,0.254C69.785,66.099,69.76,66.13,69.735,66.16z"/>
			<path fill="#EE4455" d="M69.909,66.598c-0.009-0.042-0.018-0.085-0.013-0.062c0-0.02,0,0.027,0,0.073
				C69.895,66.609,69.909,66.598,69.909,66.598z"/>
			<path fill="#EE4455" d="M69.895,66.609c0.037,0.009,0.073,0.019,0.11,0.028c-0.008,0.008-0.023,0.023-0.024,0.023
				c-0.024-0.021-0.047-0.043-0.071-0.064C69.909,66.598,69.895,66.609,69.895,66.609z"/>
		</g>
	</g>
</g>
</svg>
