<?xml version="1.0" encoding="utf-8"?>
<!-- Generator: Adobe Illustrator 18.0.0, SVG Export Plug-In . SVG Version: 6.00 Build 0)  -->
<!DOCTYPE svg PUBLIC "-//W3C//DTD SVG 1.1//EN" "http://www.w3.org/Graphics/SVG/1.1/DTD/svg11.dtd">
<svg version="1.1" id="Capa_1" xmlns="http://www.w3.org/2000/svg" xmlns:xlink="http://www.w3.org/1999/xlink" x="0px" y="0px"
	 viewBox="0 0 79.086 106.422" enable-background="new 0 0 79.086 106.422" xml:space="preserve">
<polygon fill="#BBB" points="79.086,87.811 77.053,83.161 73.273,81.418 71.238,83.161 67.744,84.325 66.002,81.999 65.419,78.508 
	58.44,77.923 56.985,75.601 58.44,72.4 60.771,69.786 60.478,64.839 60.188,60.771 65.419,58.734 68.323,58.446 70.652,56.697 
	67.744,54.667 64.548,54.952 57.28,52.34 54.662,45.65 55.534,43.618 56.694,43.032 58.156,36.052 61.349,28.206 65.13,26.175 
	64.548,25.3 57.572,22.901 56.985,21.153 53.792,20.866 52.92,24.358 49.723,26.676 47.977,24.358 45.646,24.936 43.615,23.187 
	44.482,20.28 43.615,17.372 43.615,14.177 46.812,14.177 48.555,12.429 50.881,11.852 49.427,9.814 46.229,9.524 43.904,7.198 
	43.615,3.709 43.615,1.384 41.646,0 39.326,0.071 38.162,4.143 36.997,5.017 37.944,7.198 35.979,10.689 35.763,12.795 
	33.144,14.249 31.113,17.151 28.78,19.774 26.165,19.19 25.003,22.391 25.58,23.55 28.493,22.683 30.529,25.3 29.655,27.331 
	29.655,30.236 26.456,35.476 26.165,38.092 27.328,40.998 28.493,42.743 31.113,43.327 32.855,41.583 35.182,44.202 38.961,46.521 
	38.671,48.266 40.413,50.012 43.325,48.849 45.646,52.626 48.555,53.211 47.977,54.952 46.521,56.41 43.325,55.831 40.705,56.697 
	40.993,58.734 37.508,60.193 34.597,59.029 30.243,62.808 28.201,61.643 26.165,61.354 23.551,60.193 21.52,56.118 18.897,54.667 
	18.318,52.626 16.569,50.304 13.669,51.471 13.371,55.246 13.955,59.896 15.114,65.134 13.955,67.172 13.955,70.077 11.919,71.529 
	10.755,75.311 13.955,77.923 12.212,79.668 13.087,86.355 11.919,87.522 10.755,85.777 8.139,84.613 4.069,88.396 0,90.137 
	0.581,93.05 2.906,94.211 5.812,96.539 6.684,98.281 10.465,98.861 10.177,101.187 11.048,103.225 14.245,104.967 18.022,103.225 
	22.092,104.675 23.551,106.422 25.73,104.675 27.693,106.201 28.35,103.154 37.944,102.934 39.908,104.675 42.524,104.675 
	44.265,103.586 44.265,101.187 41.215,98.571 43.395,92.024 45.362,91.811 47.755,89.41 49.501,90.72 48.409,95.955 51.682,98.133 
	52.991,103.369 54.732,103.586 55.825,99.88 61.935,95.302 66.51,94.867 67.599,95.738 69.562,95.52 71.745,93.557 75.232,93.337 
	76.54,91.595 "/>
</svg>
