<?xml version="1.0" encoding="utf-8"?>
<!-- Generator: Adobe Illustrator 18.0.0, SVG Export Plug-In . SVG Version: 6.00 Build 0)  -->
<!DOCTYPE svg PUBLIC "-//W3C//DTD SVG 1.1//EN" "http://www.w3.org/Graphics/SVG/1.1/DTD/svg11.dtd">
<svg version="1.1" id="Capa_1" xmlns="http://www.w3.org/2000/svg" xmlns:xlink="http://www.w3.org/1999/xlink" x="0px" y="0px"
	 viewBox="0 0 63.403 134.406" enable-background="new 0 0 63.403 134.406" xml:space="preserve">
<polyline fill-rule="evenodd" clip-rule="evenodd" fill="#BBB" points="0,84.864 3.836,132.95 8.882,134.406 15.497,125.351 
	15.497,120.671 18.969,114.822 21.798,113.366 25.585,113.366 28.422,110.731 30.312,101.961 33.148,98.454 35.038,99.328 
	35.356,111.897 38.192,113.948 40.398,118.916 42.287,120.965 44.18,121.257 44.812,120.671 45.439,114.822 46.388,109.562 
	47.011,104.593 50.481,90.268 51.739,85.295 48.273,85.295 46.068,86.467 45.439,82.665 49.542,78.869 50.796,75.649 50.796,72.728 
	48.593,72.728 46.388,74.774 44.492,73.899 43.861,72.728 45.439,67.466 50.166,62.785 50.166,57.82 48.593,53.139 48.904,44.374 
	56.466,34.429 61.515,25.077 61.515,21.862 63.403,11.92 62.771,4.609 61.515,3.149 59.624,1.688 56.647,1.113 47.389,0 
	47.104,0.437 47.389,1.602 47.687,9.162 48.701,17.01 43.469,30.967 0,84.864 "/>
</svg>
