<?xml version="1.0" encoding="utf-8"?>
<!-- Generator: Adobe Illustrator 18.0.0, SVG Export Plug-In . SVG Version: 6.00 Build 0)  -->
<!DOCTYPE svg PUBLIC "-//W3C//DTD SVG 1.1//EN" "http://www.w3.org/Graphics/SVG/1.1/DTD/svg11.dtd">
<svg version="1.1" id="Capa_1" xmlns="http://www.w3.org/2000/svg" xmlns:xlink="http://www.w3.org/1999/xlink" x="0px" y="0px"
	 viewBox="0 0 56.91 59.241" enable-background="new 0 0 56.91 59.241" xml:space="preserve">
<polygon fill="#BBB" points="56.91,15.922 53.641,17.229 49.936,17.229 47.323,18.323 44.92,19.191 42.084,18.323 41.212,19.627 
	39.691,19.848 40.776,22.024 39.691,23.771 39.691,25.517 36.418,30.532 34.89,33.587 36.198,35.987 32.713,37.73 27.911,39.258 
	25.291,39.913 24.635,44.271 23.916,49.364 22.169,51.1 22.746,54.012 20.427,54.593 16.354,59.241 14.825,56.7 13.736,54.305 
	11.115,51.906 8.062,50.815 6.977,49.069 6.322,46.455 3.701,45.578 3.269,43.182 1.741,40.781 2.613,38.818 0.867,37.292 0,34.891 
	0.212,30.752 3.485,26.39 5.448,27.694 7.849,27.694 10.247,25.517 13.957,27.913 16.569,25.737 16.354,23.771 16.789,21.374 
	18.752,20.286 19.409,17.012 22.461,17.229 23.763,18.976 26.821,18.104 27.694,17.012 30.312,15.7 30.09,13.739 27.255,13.739 
	27.255,10.909 26.164,8.946 27.472,6.763 27.694,4.146 29.653,3.71 31.613,6.108 33.146,8.073 35.109,8.073 37.724,7.418 
	39.691,7.201 40.342,3.71 41.868,3.71 43.395,3.056 43.395,1.312 45.139,0 46.884,6.763 47.974,10.909 51.021,14.396 54.299,13.739 
	54.736,15.267 "/>
</svg>
