<?xml version="1.0" encoding="utf-8"?>
<!-- Generator: Adobe Illustrator 18.0.0, SVG Export Plug-In . SVG Version: 6.00 Build 0)  -->
<!DOCTYPE svg PUBLIC "-//W3C//DTD SVG 1.1//EN" "http://www.w3.org/Graphics/SVG/1.1/DTD/svg11.dtd">
<svg version="1.1" id="Capa_1" xmlns="http://www.w3.org/2000/svg" xmlns:xlink="http://www.w3.org/1999/xlink" x="0px" y="0px"
	 viewBox="0 0 129.462 167.917" enable-background="new 0 0 129.462 167.917" xml:space="preserve">
<polygon fill="#BBB" points="75.204,52.443 75.204,46.849 73.479,43.615 70.504,42.743 69.236,38.818 66.639,35.328 55.743,34.458 
	53.132,17.009 49.208,12.649 49.645,6.977 43.976,3.489 42.233,0.874 37.872,0 35.254,2.617 32.199,10.03 25.662,16.149 
	10.612,24.532 10.939,26.812 12.844,27.762 11.893,30.612 9.512,28.234 9.598,27.796 8.646,26.841 6.186,32.042 6.186,29.188 
	0.949,36.322 0.476,39.652 0.949,42.508 0.949,42.981 0,44.885 0.949,49.165 2.376,46.313 4.753,48.214 5.708,49.165 8.561,50.592 
	9.512,52.97 11.893,52.97 15.845,50.63 16.761,51.687 14.746,54.875 14.271,53.448 12.367,54.13 10.463,54.875 12.844,57.729 
	13.321,56.298 15.698,56.298 16.649,57.729 18.076,56.298 17.123,53.921 21.408,54.875 20.93,59.156 21.879,58.68 22.831,60.108 
	23.061,60.084 24.259,60.108 26.164,61.534 24.112,62.301 31.869,65.341 33.298,67.719 33.602,67.366 34.25,65.813 35.678,66.292 
	35.678,68.669 35.029,68.694 34.724,69.144 39.004,69.144 40.434,71.524 41.861,71.047 44.241,72.473 45.666,75.33 42.336,74.854 
	41.385,73.427 40.434,74.376 41.385,74.854 41.385,76.283 39.958,75.804 36.626,71.524 35.198,71.524 37.846,75.061 41.385,81.037 
	42.336,81.987 42.812,81.037 44.241,81.511 44.571,77.477 46.045,79.197 45.874,81.707 46.141,83.891 45.666,84.368 43.29,83.415 
	45.19,88.171 48.851,91.078 47.567,88.649 51.374,90.553 53.752,93.881 56.132,94.355 57.08,95.782 59.938,94.355 58.509,93.881 
	58.988,93.405 60.888,93.405 62.317,98.163 61.366,99.114 59.46,98.636 51.837,94.089 51.362,94.563 67.545,106.252 74.208,111.96 
	76.111,113.385 80.394,118.622 83.246,125.756 92.284,134.788 95.613,142.877 97.041,142.877 102.276,147.637 108.459,155.724 
	109.886,155.246 109.408,156.199 115.118,161.905 117.021,166.665 117.973,166.665 117.497,167.614 119.649,167.917 
	120.195,165.301 121.029,166.459 125.976,167.917 128.3,165.591 126.843,160.65 124.518,158.323 125.976,154.54 128.3,153.672 
	126.843,151.631 129.462,148.729 129.026,145.238 125.102,145.671 122.049,143.493 122.049,140.872 119.429,137.825 
	118.557,130.843 114.632,128.227 113.325,122.561 112.018,120.813 112.45,116.889 113.766,113.837 111.579,110.348 108.527,103.368 
	101.548,99.439 98.934,102.497 94.134,103.807 90.209,99.439 91.517,95.954 87.59,88.975 84.538,83.741 79.74,81.999 76.254,75.018 
	74.071,65.858 75.814,58.881 "/>
</svg>
