<?xml version="1.0" encoding="utf-8"?>
<!-- Generator: Adobe Illustrator 18.0.0, SVG Export Plug-In . SVG Version: 6.00 Build 0)  -->
<!DOCTYPE svg PUBLIC "-//W3C//DTD SVG 1.1//EN" "http://www.w3.org/Graphics/SVG/1.1/DTD/svg11.dtd">
<svg version="1.1" id="Capa_1" xmlns="http://www.w3.org/2000/svg" xmlns:xlink="http://www.w3.org/1999/xlink" x="0px" y="0px"
	 viewBox="0 0 199.538 249.611" enable-background="new 0 0 199.538 249.611" xml:space="preserve">
<polygon fill="#BBB" points="19.532,0 9.438,14.104 5.044,14.917 1.214,23.028 2.806,26.084 2.729,28.568 1.635,30.637 0,31.398 
	0.802,33.045 10.314,41.607 14.121,42.081 24.585,51.597 30.769,53.024 33.148,50.643 32.196,50.554 33.148,49.99 35.083,49.99 
	42.662,54.622 43.136,59.99 41.921,59.99 46.942,62.346 53.602,64.579 55.031,64.033 53.127,63.049 54.034,62.555 56.37,66.344 
	56.37,64.708 58.499,64.915 60.37,67.293 60.37,69.682 58.891,73.477 58.389,75.381 56.947,80.14 57.305,84.419 63.37,94.407 
	63.37,100.143 64.546,100.118 66.45,102.969 65.974,113.436 68.347,113.912 70.73,121.047 76.436,129.134 75.01,133.417 
	75.474,135.32 77.37,136.745 77.37,135.577 80.096,135.32 81.597,137.222 80.296,141.026 81.37,142.928 81.37,148.632 
	83.248,149.112 87.287,154.345 90.37,155.772 90.37,157.957 89.271,156.249 88.086,156.723 93.442,163.383 95.403,168.142 
	103.521,171.947 103.061,173.375 106.289,178.813 113.061,188.117 116.869,187.646 120.201,192.403 121.153,190.501 
	120.202,190.026 121.627,187.169 122.582,189.544 123.187,189.731 124.007,189.544 128.765,191.925 128.877,190.974 131.37,191.925 
	131.37,192.77 128.37,193.353 128.37,196.5 130.53,196.681 129.171,198.107 129.681,198.589 127.793,199.538 129.23,203.809 
	129.715,209.99 132.061,209.99 133.044,212.99 131.44,212.99 133.996,214.126 136.851,218.01 144.937,219.99 148.224,219.99 
	150.646,226.434 148.267,224.639 152.547,233.731 156.83,236.613 158.257,235.676 161.075,235.574 160.315,234.258 162.37,233.312 
	162.37,235.043 164.042,235.624 164.441,236.99 163.144,236.99 169.2,242.382 170.147,245.455 169.673,249.611 173.002,248.123 
	188.2,239.799 194.738,233.675 197.793,226.253 196.92,224.506 194.303,224.94 191.688,217.089 193.866,214.033 192.559,209.673 
	192.993,205.746 189.505,203.565 189.072,200.077 184.709,195.281 181.218,187.865 178.604,181.321 181.218,178.27 186.453,177.833 
	193.431,180.45 196.048,177.833 194.303,167.802 196.483,160.822 193.431,138.58 196.92,137.708 198.23,133.784 199.538,117.646 
	197.355,98.018 195.611,94.963 192.993,74.465 190.814,73.156 192.122,69.233 193.814,54.62 118.856,54.618 "/>
</svg>
