<?xml version="1.0" encoding="utf-8"?>
<!-- Generator: Adobe Illustrator 18.0.0, SVG Export Plug-In . SVG Version: 6.00 Build 0)  -->
<!DOCTYPE svg PUBLIC "-//W3C//DTD SVG 1.1//EN" "http://www.w3.org/Graphics/SVG/1.1/DTD/svg11.dtd">
<svg version="1.1" id="Capa_1" xmlns="http://www.w3.org/2000/svg" xmlns:xlink="http://www.w3.org/1999/xlink" x="0px" y="0px"
	 viewBox="0 0 176.923 185.511" enable-background="new 0 0 176.923 185.511" xml:space="preserve">
<polyline fill="#BBB" points="28.127,7.411 25.508,9.155 23.475,8.867 23.185,5.381 19.694,3.852 17.077,2.325 15.115,0.58 
	12.497,0 11.047,2.325 9.008,2.98 4.869,1.307 2.908,4.508 7.483,8.289 9.809,9.448 10.539,10.61 6.392,12.358 6.683,15.556 
	5.518,17.881 2.908,17.881 2.908,21.663 5.228,23.985 4.648,26.026 2.614,27.479 0,29.221 2.322,34.454 4.359,36.49 5.306,39.614 
	5.518,41.432 3.991,43.322 5.81,44.922 8.138,47.83 9.301,46.957 11.336,45.792 13.082,47.541 14.827,48.123 16.574,50.738 
	15.696,53.938 13.957,57.135 14.534,60.044 13.957,60.917 10.173,58.006 7.555,59.176 6.978,61.79 5.81,62.66 5.518,64.116 
	6.978,63.824 9.008,62.951 6.9,66.44 4.869,67.604 3.991,70.799 1.962,71.964 4.286,76.909 5.74,77.777 7.777,75.739 10.973,74.289 
	13.587,71.092 15.915,70.514 18.535,66.153 20.565,67.022 23.4,69.277 25.366,65.786 24.419,63.604 25.584,62.73 26.748,58.659 
	29.067,58.588 31.037,59.972 31.037,62.297 31.326,65.786 33.65,68.112 36.849,68.401 38.303,70.439 35.977,71.017 34.234,72.765 
	31.037,72.765 31.037,75.96 31.904,78.868 31.037,81.774 33.067,83.523 35.398,82.946 37.145,85.264 40.342,82.946 41.214,79.454 
	44.407,79.741 44.994,81.489 51.97,83.888 52.552,84.763 48.771,86.794 45.578,94.64 44.116,101.62 42.956,102.206 42.084,104.238 
	44.702,110.928 51.97,113.54 55.166,113.255 58.074,115.285 55.745,117.034 52.841,117.322 47.61,119.359 47.899,123.427 
	48.192,128.374 45.862,130.988 44.407,134.188 45.862,136.511 52.841,137.096 53.424,140.587 55.166,142.913 58.66,141.749 
	60.695,140.006 64.475,141.749 66.508,146.398 69.854,139.278 67.453,134.915 68.109,133.826 69.854,134.262 72.468,136.004 
	76.612,138.403 77.919,141.46 79.451,142.982 79.451,144.943 82.498,146.695 82.719,148.873 86.279,152.218 87.805,153.959 
	88.6,160.083 90.563,160.953 95.355,160.083 97.104,160.738 100.236,159.846 98.707,164.864 96.966,167.48 100.023,172.714 
	103.725,176.422 105.906,174.24 107.216,174.896 109.396,174.678 113.252,169.006 115.648,168.35 117.608,166.388 121.098,167.48 
	120.882,169.006 118.264,169.879 118.264,172.276 121.318,175.766 127.862,181.004 132.004,180.275 132.874,182.893 
	132.004,183.983 131.786,185.511 167.988,184.199 174.529,179.404 176.923,177.656 172.788,173.733 174.309,170.462 
	174.529,168.721 171.256,164.789 167.113,163.263 164.713,162.611 163.19,159.338 161.66,159.559 159.48,158.468 161.59,158.438 
	158.745,161.102 156.784,158.048 164.285,159.186 163.193,157.225 143.839,156.844 146.843,158.913 145.89,156.057 141.614,152.729 
	132.422,144.48 128.143,143.718 124.336,143.05 118.15,138.288 104.831,138.288 102.919,137.249 99.595,135.434 98.646,135.434 
	93.416,133.055 91.037,126.396 88.184,126.396 87.485,124.726 87.194,113.692 85.292,113.692 80.534,109.884 80.067,105.136 
	78.155,103.229 77.754,101.792 74.828,91.337 66.742,80.867 55.837,69.384 49.142,62.317 47.718,57.08 46.084,53.992 38.201,39.011 
	37.482,35.716 34.872,34.252 31.538,28.069 38.066,30.015 39.782,32.629 40.932,34.979 42.834,40.692 44.604,30.532 36.039,23.004 
	33.194,17.993 32.812,16.648 "/>
</svg>
