<?xml version="1.0" encoding="utf-8"?>
<!-- Generator: Adobe Illustrator 16.0.0, SVG Export Plug-In . SVG Version: 6.00 Build 0)  -->
<!DOCTYPE svg PUBLIC "-//W3C//DTD SVG 1.1//EN" "http://www.w3.org/Graphics/SVG/1.1/DTD/svg11.dtd">
<svg version="1.1" id="Capa_1" xmlns="http://www.w3.org/2000/svg" xmlns:xlink="http://www.w3.org/1999/xlink" x="0px" y="0px"
	 width="300px" height="300px" viewBox="0 0 300 300" enable-background="new 0 0 300 300" xml:space="preserve">
<polyline fill="#BBB" points="1.379,124.438 2.327,114.493 1.461,106.5 1.461,102.022 5.722,98.542 25.42,82.535 48.29,70.571 
	56.88,66.059 102.272,55.065 118.371,51.138 155.758,42.097 170.745,37.597 181.217,27.119 196.19,21.11 218.67,19.618 
	227.66,13.631 244.137,12.126 275.581,16.613 281.587,18.119 295.818,20.701 298.069,21.11 295.865,25.667 296.804,49.472 
	300,74.187 283.521,118.14 146.632,287.874 42.256,159.113 39.491,163.229 36.398,165.295 31.952,164.609 24.733,162.543 
	20.611,161.176 20.611,158.773 20.252,155.688 18.549,154.302 11.684,154.302 4.478,154.648 1.379,124.438 0,122.382 "/>
</svg>
