<?xml version="1.0" encoding="utf-8"?>
<!-- Generator: Adobe Illustrator 17.0.0, SVG Export Plug-In . SVG Version: 6.00 Build 0)  -->
<!DOCTYPE svg PUBLIC "-//W3C//DTD SVG 1.1//EN" "http://www.w3.org/Graphics/SVG/1.1/DTD/svg11.dtd">
<svg version="1.1" id="Capa_1" xmlns="http://www.w3.org/2000/svg" xmlns:xlink="http://www.w3.org/1999/xlink" x="0px" y="0px"
	 width="64px" height="64px" viewBox="0 0 64 64" enable-background="new 0 0 64 64" xml:space="preserve">
<g>
	<circle opacity="0.8" fill="#66CC66" cx="32" cy="32" r="30"/>
	<g>
		<path fill="#FFFFFF" d="M16.501,25.604c0,0.285-0.057,0.555-0.169,0.803c-0.114,0.249-0.265,0.464-0.453,0.645
			c-0.19,0.182-0.416,0.324-0.68,0.431c-0.263,0.105-0.54,0.159-0.825,0.159c-0.604,0-1.109-0.201-1.518-0.601
			c-0.407-0.4-0.61-0.879-0.61-1.437c0-0.273,0.052-0.532,0.158-0.781c0.105-0.249,0.256-0.464,0.451-0.645
			c0.197-0.182,0.424-0.33,0.68-0.442c0.256-0.112,0.536-0.169,0.838-0.169c0.285,0,0.562,0.053,0.825,0.158
			c0.263,0.105,0.49,0.249,0.68,0.429c0.188,0.182,0.339,0.396,0.453,0.647C16.444,25.049,16.501,25.316,16.501,25.604z
			 M12.517,40.476V29.203h3.712v11.273H12.517z"/>
		<path fill="#FFFFFF" d="M26.575,40.476v-6.157c0-0.317-0.028-0.619-0.079-0.906c-0.053-0.286-0.14-0.54-0.262-0.759
			c-0.12-0.217-0.291-0.391-0.508-0.52c-0.219-0.129-0.496-0.193-0.827-0.193s-0.623,0.065-0.871,0.193
			c-0.249,0.129-0.457,0.306-0.623,0.533s-0.291,0.486-0.372,0.781c-0.085,0.293-0.125,0.599-0.125,0.916v6.113h-3.736V29.203h3.6
			v1.56h0.046c0.136-0.24,0.313-0.479,0.532-0.713c0.217-0.234,0.475-0.433,0.768-0.599c0.295-0.166,0.615-0.302,0.964-0.407
			c0.346-0.107,0.717-0.158,1.109-0.158c0.753,0,1.395,0.135,1.923,0.407c0.529,0.271,0.954,0.623,1.279,1.052
			c0.326,0.431,0.558,0.925,0.702,1.483c0.144,0.558,0.216,1.116,0.216,1.675v6.973H26.575z"/>
		<path fill="#FFFFFF" d="M41.653,40.476v-1.472h-0.046c-0.361,0.575-0.879,1.015-1.549,1.325c-0.673,0.31-1.385,0.464-2.141,0.464
			c-0.844,0-1.599-0.166-2.262-0.497c-0.665-0.332-1.227-0.774-1.688-1.325c-0.46-0.551-0.811-1.188-1.052-1.912
			c-0.241-0.726-0.363-1.479-0.363-2.264c0-0.785,0.125-1.536,0.374-2.253c0.249-0.717,0.604-1.347,1.065-1.89
			c0.459-0.543,1.017-0.973,1.675-1.29c0.656-0.317,1.393-0.475,2.207-0.475c0.829,0,1.531,0.158,2.106,0.475
			c0.573,0.317,1.019,0.663,1.336,1.041h0.044v-7.041h3.712v17.115H41.653z M41.516,34.817c0-0.363-0.064-0.717-0.192-1.065
			c-0.129-0.346-0.309-0.656-0.543-0.927c-0.234-0.273-0.518-0.49-0.849-0.658c-0.332-0.166-0.709-0.249-1.131-0.249
			c-0.438,0-0.824,0.083-1.155,0.249c-0.332,0.168-0.612,0.381-0.838,0.647c-0.227,0.264-0.396,0.569-0.508,0.916
			c-0.114,0.348-0.17,0.702-0.17,1.065c0,0.361,0.055,0.72,0.17,1.074c0.112,0.355,0.282,0.669,0.508,0.94
			c0.227,0.273,0.507,0.492,0.838,0.658c0.332,0.166,0.717,0.249,1.155,0.249c0.422,0,0.8-0.083,1.131-0.249
			c0.332-0.166,0.615-0.385,0.849-0.658c0.234-0.271,0.415-0.58,0.543-0.927C41.452,35.534,41.516,35.18,41.516,34.817z"/>
		<path fill="#FFFFFF" d="M52.246,38.485c0,0.634-0.223,1.163-0.667,1.584c-0.446,0.422-0.978,0.634-1.597,0.634
			c-0.317,0-0.614-0.057-0.894-0.169c-0.28-0.114-0.525-0.269-0.735-0.464c-0.212-0.197-0.378-0.427-0.499-0.691
			c-0.12-0.264-0.181-0.555-0.181-0.871c0-0.302,0.061-0.59,0.181-0.86c0.122-0.271,0.287-0.508,0.499-0.713
			c0.21-0.205,0.455-0.367,0.735-0.486c0.28-0.122,0.577-0.182,0.894-0.182c0.619,0,1.151,0.212,1.597,0.634
			C52.023,37.322,52.246,37.851,52.246,38.485z"/>
	</g>
</g>
</svg>
