<?xml version="1.0" encoding="utf-8"?>
<!-- Generator: Adobe Illustrator 17.0.0, SVG Export Plug-In . SVG Version: 6.00 Build 0)  -->
<!DOCTYPE svg PUBLIC "-//W3C//DTD SVG 1.1//EN" "http://www.w3.org/Graphics/SVG/1.1/DTD/svg11.dtd">
<svg version="1.1" id="Capa_1" xmlns="http://www.w3.org/2000/svg" xmlns:xlink="http://www.w3.org/1999/xlink" x="0px" y="0px"
	 width="64px" height="64px" viewBox="0 0 64 64" enable-background="new 0 0 64 64" xml:space="preserve">
<g>
	<circle opacity="0.8" fill="#6666DD" cx="32" cy="32" r="30"/>
	<g>
		<g>
			<g>
				<path fill="#FFFFFF" d="M22.068,29.198c0.103,0.097,0.124,0.198,0.162,0.288c0.322,0.748,0.692,1.47,1.134,2.154
					c0.639,0.989,1.403,1.867,2.336,2.592c1.185,0.922,2.524,1.503,3.992,1.796c0.92,0.184,1.85,0.255,2.788,0.236
					c0.439-0.009,0.868-0.091,1.296-0.176c1.144-0.226,2.232-0.608,3.246-1.19c1.526-0.877,2.697-2.107,3.59-3.612
					c0.338-0.569,0.626-1.162,0.875-1.775c0.038-0.093,0.08-0.184,0.122-0.282c0.083,0.022,0.085,0.09,0.097,0.139
					c0.13,0.502,0.217,1.012,0.268,1.529c0.065,0.66,0.055,1.32-0.019,1.978c-0.168,1.495-0.619,2.9-1.417,4.178
					c-1.565,2.507-3.79,4.108-6.693,4.681c-5.479,1.083-10.607-2.378-11.862-7.562c-0.256-1.056-0.328-2.127-0.247-3.208
					C21.778,30.429,21.893,29.697,22.068,29.198z"/>
			</g>
			<g>
				<path fill="#FFFFFF" d="M31.899,22.462c2.822,0,5.028,2.328,5.025,5.061c-0.003,2.632-2.058,5.058-5.055,5.066
					c-2.92,0.008-5.078-2.332-5.069-5.08C26.81,24.632,29.102,22.451,31.899,22.462z"/>
			</g>
			<g>
				<path fill="#FFFFFF" d="M7.193,28.988c0.047,0.111,0.094,0.222,0.14,0.334c0.395,0.966,0.907,1.862,1.595,2.652
					c1.038,1.191,2.335,1.971,3.846,2.406c0.755,0.217,1.525,0.347,2.311,0.361c1.534,0.027,2.951-0.379,4.26-1.173
					c0.418-0.253,0.812-0.54,1.187-0.853c0.077-0.065,0.156-0.129,0.253-0.209c0.031,0.063,0.065,0.109,0.079,0.161
					c0.261,0.992,0.519,1.984,0.779,2.976c0.066,0.253,0.037,0.474-0.152,0.676c-1.058,1.13-2.275,2.022-3.752,2.529
					c-0.686,0.235-1.392,0.365-2.115,0.422c-0.744,0.058-1.481,0.023-2.215-0.113c-1.128-0.209-2.154-0.659-3.07-1.346
					c-1.157-0.867-2.078-1.938-2.715-3.241c-0.631-1.291-0.864-2.658-0.735-4.087c0.034-0.374,0.095-0.745,0.148-1.117
					C7.054,29.239,7.087,29.113,7.193,28.988z"/>
			</g>
			<g>
				<path fill="#FFFFFF" d="M42.911,32.499c0.104,0.086,0.174,0.141,0.242,0.2c1.115,0.984,2.402,1.621,3.862,1.901
					c0.772,0.148,1.55,0.183,2.336,0.103c1.586-0.16,3.017-0.714,4.285-1.677c1.287-0.977,2.201-2.237,2.783-3.741
					c0.039-0.1,0.054-0.215,0.159-0.319c0.028,0.098,0.053,0.171,0.069,0.245c0.54,2.59,0.033,4.947-1.611,7.03
					c-1.148,1.453-2.657,2.367-4.443,2.831c-0.672,0.175-1.356,0.262-2.051,0.249c-0.923-0.017-1.816-0.195-2.675-0.533
					c-1.332-0.525-2.511-1.282-3.499-2.326c-0.063-0.066-0.122-0.136-0.183-0.205c-0.14-0.156-0.181-0.332-0.122-0.537
					c0.093-0.322,0.179-0.646,0.263-0.97c0.166-0.639,0.328-1.278,0.492-1.918C42.845,32.734,42.873,32.637,42.911,32.499z"/>
			</g>
			<g>
				<path fill="#FFFFFF" d="M11.018,27.539c0.002-1.845,1.293-3.486,3.142-3.939c1.763-0.432,3.556,0.297,4.485,1.813
					c1.193,1.947,0.647,4.637-1.543,5.801c-1.482,0.788-3.363,0.601-4.627-0.477c-0.73-0.623-1.179-1.413-1.357-2.353
					C11.066,28.106,11.051,27.821,11.018,27.539z"/>
			</g>
			<g>
				<path fill="#FFFFFF" d="M52.766,27.539c-0.009,2.276-1.703,4.163-4.15,4.15c-2.342-0.012-4.1-1.898-4.084-4.128
					c0.016-2.244,1.823-4.101,4.172-4.077C51.026,23.508,52.796,25.424,52.766,27.539z"/>
			</g>
		</g>
	</g>
</g>
</svg>
