<?xml version="1.0" encoding="utf-8"?>
<!-- Generator: Adobe Illustrator 17.0.0, SVG Export Plug-In . SVG Version: 6.00 Build 0)  -->
<!DOCTYPE svg PUBLIC "-//W3C//DTD SVG 1.1//EN" "http://www.w3.org/Graphics/SVG/1.1/DTD/svg11.dtd">
<svg version="1.1" id="Capa_1" xmlns="http://www.w3.org/2000/svg" xmlns:xlink="http://www.w3.org/1999/xlink" x="0px" y="0px"
	 width="64px" height="64px" viewBox="0 0 64 64" enable-background="new 0 0 64 64" xml:space="preserve">
<g>
	<circle opacity="0.8" fill="#EECC22" cx="32" cy="32" r="30"/>
	<g>
		<g>
			<g>
				<path fill="#FFFFFF" d="M51.811,25.881c-0.022-0.069-0.033-0.114-0.05-0.156c-0.373-0.925-0.751-1.848-1.117-2.776
					c-0.067-0.171-0.153-0.139-0.277-0.089c-3.011,1.213-6.023,2.425-9.034,3.638c-0.116,0.047-0.23,0.098-0.363,0.156
					c0.413,1.038,0.818,2.055,1.232,3.095C45.411,28.455,48.601,27.172,51.811,25.881z"/>
			</g>
			<g>
				<path fill="#FFFFFF" d="M51.681,38.779c-0.086-0.04-0.138-0.067-0.193-0.09c-0.77-0.329-1.539-0.658-2.308-0.986
					c-2.284-0.974-4.569-1.947-6.852-2.925c-0.138-0.059-0.198-0.03-0.256,0.104c-0.362,0.828-0.731,1.653-1.096,2.48
					c-0.057,0.127-0.111,0.255-0.174,0.403c3.198,1.364,6.378,2.72,9.578,4.083C50.817,40.816,51.244,39.808,51.681,38.779z"/>
			</g>
			<g>
				<path fill="#FFFFFF" d="M49.421,33.8c0.168,0.001,0.239-0.041,0.238-0.223c-0.007-0.971-0.006-1.943-0.001-2.914
					c0.001-0.165-0.054-0.219-0.22-0.219c-2.298,0.005-4.595,0.005-6.893,0c-0.164,0-0.22,0.048-0.22,0.216
					c-0.002,0.965-0.01,1.929-0.027,2.894c-0.004,0.199,0.062,0.248,0.252,0.248c1.139-0.008,2.277-0.004,3.416-0.004
					C47.117,33.797,48.269,33.793,49.421,33.8z"/>
			</g>
			<g>
				<path fill="#FFFFFF" d="M45.522,20.689c-0.753-0.755-1.525-1.531-2.264-2.273c-1.694,1.69-3.402,3.394-5.121,5.107
					c0.749,0.766,1.515,1.549,2.245,2.295C42.118,24.088,43.835,22.374,45.522,20.689z"/>
			</g>
			<g>
				<path fill="#FFFFFF" d="M43.249,45.844c0.761-0.757,1.538-1.531,2.303-2.293c-1.705-1.7-3.419-3.411-5.14-5.128
					c-0.747,0.766-1.513,1.551-2.264,2.321C39.831,42.428,41.548,44.144,43.249,45.844z"/>
			</g>
			<g>
				<path fill="#FFFFFF" d="M41.481,13.732c0.065-0.151,0.012-0.197-0.114-0.249c-0.851-0.358-1.699-0.723-2.551-1.079
					c-0.395-0.165-0.315-0.216-0.489,0.193c-1.223,2.86-2.441,5.723-3.66,8.585c-0.081,0.189-0.157,0.379-0.243,0.587
					c1.028,0.44,2.035,0.871,3.056,1.309c0.033-0.063,0.053-0.098,0.068-0.135C38.858,19.872,40.166,16.802,41.481,13.732z"/>
			</g>
			<g>
				<path fill="#FFFFFF" d="M41.152,50.868c-0.037-0.1-0.065-0.181-0.097-0.26c-0.184-0.459-0.369-0.918-0.553-1.378
					c-1.038-2.582-2.076-5.164-3.108-7.749c-0.073-0.182-0.141-0.21-0.319-0.136c-0.885,0.364-1.774,0.719-2.664,1.068
					c-0.16,0.063-0.215,0.116-0.14,0.301c1.245,3.076,2.482,6.154,3.716,9.235c0.058,0.145,0.121,0.157,0.253,0.103
					c0.767-0.316,1.536-0.625,2.306-0.936C40.743,51.036,40.94,50.955,41.152,50.868z"/>
			</g>
			<g>
				<path fill="#FFFFFF" d="M33.503,42.901c0.001-0.197-0.048-0.268-0.257-0.266c-0.944,0.011-1.888,0.004-2.833,0.005
					c-0.263,0-0.263,0.001-0.263,0.264c0,2.263,0,4.527,0,6.79c0,0.072,0,0.145,0,0.236c0.097,0.006,0.175,0.016,0.253,0.016
					c0.945,0.001,1.889-0.005,2.833,0.004c0.202,0.002,0.26-0.056,0.26-0.258C33.491,47.428,33.494,45.165,33.503,42.901z"/>
			</g>
			<g>
				<path fill="#FFFFFF" d="M33.493,21.372c-0.005-2.291-0.005-4.583,0-6.873c0-0.17-0.061-0.214-0.223-0.212
					c-0.958,0.007-1.916,0.01-2.874-0.002c-0.215-0.003-0.254,0.069-0.252,0.264c0.008,1.126,0.005,2.251,0.005,3.377h0.001
					c0,1.139,0.004,2.278-0.004,3.417c-0.002,0.197,0.06,0.247,0.251,0.246c0.958-0.008,1.916-0.007,2.874-0.001
					C33.433,21.587,33.493,21.541,33.493,21.372z"/>
			</g>
			<g>
				<path fill="#FFFFFF" d="M29.244,21.806c0.158-0.063,0.181-0.128,0.118-0.28c-0.299-0.723-0.588-1.451-0.88-2.178
					c-0.945-2.347-1.891-4.693-2.83-7.042c-0.066-0.166-0.138-0.171-0.283-0.109c-0.481,0.202-0.967,0.393-1.451,0.589
					c-0.471,0.19-0.942,0.382-1.444,0.586c1.294,3.214,2.577,6.401,3.864,9.596C27.33,22.569,28.285,22.181,29.244,21.806z"/>
			</g>
			<g>
				<path fill="#FFFFFF" d="M29.223,42.47c-1.034-0.437-2.047-0.865-3.081-1.302c-1.355,3.176-2.701,6.331-4.056,9.508
					c1.043,0.442,2.051,0.87,3.077,1.305C26.52,48.802,27.866,45.648,29.223,42.47z"/>
			</g>
			<g>
				<path fill="#FFFFFF" d="M25.473,40.755c-0.75-0.768-1.515-1.551-2.272-2.326c-1.722,1.722-3.425,3.426-5.105,5.106
					c0.762,0.764,1.539,1.543,2.295,2.302C22.083,44.146,23.789,42.438,25.473,40.755z"/>
			</g>
			<g>
				<path fill="#FFFFFF" d="M23.169,25.776c0.766-0.763,1.546-1.538,2.293-2.28c-1.693-1.694-3.398-3.402-5.088-5.094
					c-0.754,0.756-1.528,1.531-2.287,2.291C19.782,22.388,21.487,24.095,23.169,25.776z"/>
			</g>
			<g>
				<path fill="#FFFFFF" d="M22.687,26.663c0.075-0.171,0.042-0.239-0.125-0.31c-2.761-1.172-5.519-2.35-8.278-3.525
					c-0.337-0.144-0.674-0.285-1.031-0.434c-0.439,1.034-0.869,2.047-1.305,3.075c3.176,1.353,6.322,2.694,9.497,4.047
					c0.042-0.085,0.075-0.149,0.104-0.215C21.928,28.42,22.302,27.539,22.687,26.663z"/>
			</g>
			<g>
				<path fill="#FFFFFF" d="M22.657,37.603c-0.421-1.037-0.832-2.052-1.257-3.097c-3.211,1.291-6.392,2.571-9.59,3.857
					c0.424,1.047,0.834,2.062,1.253,3.096C16.271,40.17,19.454,38.89,22.657,37.603z"/>
			</g>
			<g>
				<path fill="#FFFFFF" d="M21.279,30.703c0.001-0.204-0.06-0.261-0.263-0.26c-1.132,0.009-2.264,0.005-3.396,0.005
					s-2.264,0.003-3.396-0.003c-0.178-0.002-0.243,0.043-0.241,0.234c0.009,0.957,0.009,1.915,0,2.873
					c-0.002,0.192,0.051,0.251,0.246,0.251c2.264-0.007,4.528-0.007,6.792,0c0.211,0.001,0.258-0.072,0.257-0.267
					C21.27,32.592,21.269,31.648,21.279,30.703z"/>
			</g>
			<g>
				<path fill="#FFFFFF" d="M41.421,32.6c0.113-1.553-0.203-3.048-0.819-4.483c-1.495-3.487-4.981-5.797-8.232-5.798
					c-1.965-0.01-3.331,0.273-4.601,0.909c-3.238,1.622-5.087,4.262-5.511,7.843c-0.309,2.606,0.374,4.993,1.978,7.076
					c1.768,2.294,4.123,3.558,7.015,3.763c1.583,0.113,3.118-0.163,4.545-0.871C39.285,39.309,41.139,36.462,41.421,32.6z
					 M37.437,29.891c0.988,2.591,0.115,5.625-2.085,7.255c-2.702,2-6.438,1.402-8.384-1.347c-0.842-1.189-1.232-2.517-1.167-3.969
					c0.126-2.787,2.028-5.132,4.664-5.754c0.439-0.104,0.897-0.134,1.346-0.198C34.318,25.918,36.514,27.471,37.437,29.891z"/>
			</g>
		</g>
	</g>
</g>
</svg>
