<?xml version="1.0" encoding="utf-8"?>
<!-- Generator: Adobe Illustrator 17.0.0, SVG Export Plug-In . SVG Version: 6.00 Build 0)  -->
<!DOCTYPE svg PUBLIC "-//W3C//DTD SVG 1.1//EN" "http://www.w3.org/Graphics/SVG/1.1/DTD/svg11.dtd">
<svg version="1.1" id="Capa_1" xmlns="http://www.w3.org/2000/svg" xmlns:xlink="http://www.w3.org/1999/xlink" x="0px" y="0px"
	 width="64px" height="64px" viewBox="0 0 64 64" enable-background="new 0 0 64 64" xml:space="preserve">
<g>
	<circle opacity="0.8" fill="#EE2233" cx="32" cy="32" r="30"/>
	<g>
		<g>
			<g>
				<path fill="#FFFFFF" d="M50.141,35.442c-0.005-2.218-0.008-4.437-0.011-6.656c-0.002-1.604-0.004-3.208-0.005-4.813
					c-0.001-0.253-0.004-0.257-0.255-0.257c-1.354,0.002-2.708,0.005-4.061,0.004c-0.153,0-0.213,0.053-0.207,0.21
					c0.012,0.32,0.013,0.641,0.013,0.962c0.001,3.573,0.001,7.145,0.001,10.718h0.038c0,1.038-0.001,2.076,0.001,3.115
					c0.005,2.855,0.012,5.709,0.013,8.564c0,0.16,0.038,0.217,0.208,0.216c1.365-0.01,2.729-0.011,4.094-0.015
					c0.016,0,0.033-0.001,0.049,0c0.114,0.008,0.175-0.038,0.169-0.159c-0.003-0.06,0.002-0.12,0.002-0.179
					c-0.009-1.484-0.02-2.968-0.026-4.452C50.154,40.28,50.147,37.861,50.141,35.442z"/>
			</g>
			<g>
				<path fill="#FFFFFF" d="M37.097,36.428c-1.294,0.004-2.589,0.006-3.882,0.013c-0.14,0.001-0.203-0.03-0.202-0.19
					c0.004-1.441-0.001-2.882-0.005-4.323c-0.002-0.805-0.009-1.609-0.009-2.414c0-0.282,0.024-0.565,0.024-0.847
					c0.001-0.838-0.539-1.347-1.378-1.313c-0.121,0.005-0.161,0.052-0.161,0.168c0.013,1.484,0.025,2.968,0.033,4.452
					c0.005,0.935,0.001,1.871,0.001,2.806c0.001,0.489,0,0.979,0.006,1.468c0.002,0.145-0.048,0.203-0.198,0.202
					c-1.3-0.003-2.6-0.001-3.899-0.002c-0.042,0-0.084-0.009-0.14-0.015V36.25c-0.002-2.088-0.003-4.177-0.006-6.265
					c-0.001-1.088-0.003-2.175-0.006-3.263c-0.002-1.223-0.006-2.447-0.01-3.67c-0.007-1.963-0.013-3.926-0.022-5.888
					c-0.003-0.652-0.013-1.304-0.021-1.957c-0.002-0.177,0.017-0.198,0.208-0.198c1.387-0.002,2.773-0.004,4.16-0.006
					c0.859-0.001,1.718,0,2.577,0c1.534,0.001,2.677,0.958,2.932,2.475c0.06,0.357,0.091,0.723,0.094,1.086
					c0.011,1.299,0.024,2.6-0.003,3.899c-0.017,0.833-0.227,1.623-0.749,2.301c-0.086,0.111-0.183,0.218-0.29,0.307
					c-0.114,0.095-0.115,0.155,0.001,0.251c0.404,0.333,0.716,0.741,0.937,1.217c0.198,0.424,0.227,0.871,0.223,1.335
					c-0.014,1.789-0.007,3.578-0.005,5.367c0.001,0.989,0.007,1.979,0.01,2.968C37.316,36.42,37.31,36.427,37.097,36.428z
					 M32.952,19.655c-0.027-0.7-0.492-1.174-1.15-1.198c-0.2-0.007-0.217,0.006-0.214,0.204c0.01,0.803,0.026,1.606,0.031,2.408
					c0.005,0.701,0.002,1.402-0.005,2.104c-0.001,0.141,0.045,0.189,0.182,0.153c0.136-0.035,0.278-0.055,0.411-0.099
					c0.503-0.164,0.778-0.55,0.778-1.079c0.001-0.402,0-0.805,0-1.207h-0.03C32.956,20.514,32.969,20.084,32.952,19.655z"/>
			</g>
			<g>
				<path fill="#FFFFFF" d="M17.018,37.94c0.772-0.004,1.545-0.002,2.317-0.015c0.177-0.003,0.36-0.029,0.527-0.085
					c1.38-0.464,2.42-1.919,2.419-3.377c-0.002-1.936-0.005-3.872-0.012-5.808c-0.001-0.26-0.01-0.523-0.051-0.78
					c-0.223-1.389-0.936-2.401-2.288-2.901c-0.149-0.055-0.316-0.086-0.476-0.086c-2.268-0.002-4.535,0.003-6.803,0.007
					c-0.033,0-0.065,0.001-0.098,0.001c-0.115-0.001-0.165,0.051-0.156,0.171c0.016,0.2,0.032,0.401,0.033,0.601
					c0.002,3.426,0.001,6.853,0.001,10.279c0.001,1.213-0.003,2.426,0.001,3.638c0.008,2.268,0.021,4.535,0.027,6.802
					c0,0.126,0.028,0.17,0.161,0.169c1.338-0.004,2.676-0.004,4.013,0c0.149,0,0.203-0.047,0.2-0.197
					c-0.01-0.489-0.011-0.979-0.013-1.468c-0.005-1.158-0.009-2.316-0.011-3.474c-0.001-1.088,0-2.175,0-3.263
					C16.81,37.95,16.818,37.941,17.018,37.94z M17.131,28.805c0.67-0.01,1.201,0.504,1.235,1.235
					c0.023,0.477,0.006,0.955,0.01,1.434c0.003,0.32,0.009,0.641,0.022,0.961c0.022,0.581-0.3,1.036-0.859,1.195
					c-0.119,0.034-0.245,0.047-0.366,0.075c-0.123,0.029-0.181-0.003-0.181-0.142c-0.002-0.576-0.013-1.152-0.019-1.728
					c-0.002-0.19,0-0.381,0-0.571h-0.005c0-0.767,0.001-1.533-0.002-2.3C16.966,28.846,17.012,28.807,17.131,28.805z"/>
			</g>
		</g>
	</g>
</g>
</svg>
